<?xml version="1.0" encoding="utf-8"?>
<!-- Generator: Adobe Illustrator 24.3.0, SVG Export Plug-In . SVG Version: 6.00 Build 0)  -->
<svg version="1.1" id="Calque_1" xmlns="http://www.w3.org/2000/svg" xmlns:xlink="http://www.w3.org/1999/xlink" x="0px" y="0px"
	 viewBox="0 0 200 59.6" style="enable-background:new 0 0 200 59.6;" xml:space="preserve">
<style type="text/css">
	.st0{fill-rule:evenodd;clip-rule:evenodd;fill:#FFFFFF;}
	.st1{fill-rule:evenodd;clip-rule:evenodd;fill:#050607;}
	.st2{fill-rule:evenodd;clip-rule:evenodd;fill:#BFC0C0;}
	.st3{fill-rule:evenodd;clip-rule:evenodd;fill:#646464;}
	.st4{fill-rule:evenodd;clip-rule:evenodd;fill:#767677;}
</style>
<g>
	<g>
		<g>
			<g id="svgg_1_">
				<path id="path0_1_" class="st0" d="M41.6,9.4c-0.8,0.2-0.9,0.2-1.9,0.7c-2.6,1.2-4.6,4.1-4.7,7v0.7h0.4c3.1,0.2,6.5-3.3,7-7.1
					C42.5,9.4,42.4,9.2,41.6,9.4 M104,14.6c0,2.7,0,4.9,0.1,5c0,0.1,0.2,0.1,0.7,0.1h0.6v-5v-5h-0.7H104V14.6 M129.4,11.6
					c0,2.1,0,2.2-0.4,1.8c-1.1-1.2-3.4-0.7-4.2,1c-0.3,0.7-0.4,0.8-0.4,1.6c-0.1,1.6,0.5,2.9,1.5,3.6c1,0.6,3.3,0.1,3.3-0.7
					c0-0.1,0.3-0.2,0.3-0.1s0.1,0.3,0.1,0.5v0.4h0.6h0.6v-5v-5h-0.7h-0.7V11.6 M164.9,14.8v5h0.7h0.7v-2.4V15l0.2-0.3
					c0.7-1.1,2.1-1.1,2.7-0.1c0.2,0.4,0.2,0.5,0.2,2.8v2.4h0.7h0.7v-2.6v-2.6l-0.2-0.5c-0.7-1.4-2.7-1.8-3.7-0.6
					c-0.5,0.6-0.6,0.6-0.6-1.7v-2h-0.7h-0.7L164.9,14.8 M66.3,10.2c-0.2,0-0.5,0-0.7,0.1h-0.3V15v4.7h1.8c4.1,0,5.9-1.5,5.9-5
					C73,11.3,71,9.9,66.3,10.2 M69.5,11.4c2.7,1.1,2.9,5.6,0.2,6.9c-0.8,0.4-2.8,0.6-3,0.4c-0.1-0.1-0.1-7.3,0-7.4
					C66.9,11.1,68.8,11.2,69.5,11.4 M160.5,11.3c-0.1,0-0.3,0.1-0.5,0.2c-0.4,0.1-0.4,0.2-0.5,0.9v0.5H159h-0.5v0.5v0.5h0.5h0.5
					l0.1,2.1c0.1,3.4,0.4,3.9,2.4,3.7l0.5-0.1v-0.5v-0.5H162c-1.1,0-1.2-0.3-1.2-2.9v-1.9h0.9h0.9v-0.5v-0.4h-0.9h-0.9v-0.8
					C160.8,11.2,160.8,11.2,160.5,11.3 M77.8,12.9c-1,0.2-1.1,0.2-1.7,0.8c-1.7,1.7-1.3,4.9,0.8,5.9c0.6,0.3,2.3,0.3,2.9,0
					c1.7-0.8,2.4-3.4,1.4-5.3c-0.2-0.3-1.1-1.1-1.3-1.2c-0.1,0-0.3-0.1-0.5-0.1C78.7,12.8,78.4,12.8,77.8,12.9 M98.4,12.9
					c-0.7,0.1-1,0.4-1.3,0.7c-0.3,0.4-0.5,0.4-0.5,0.1c0-0.7-0.1-0.8-0.6-0.8h-0.5v3.4v3.4h0.7h0.7v-2.2c0-2,0-2.3,0.2-2.6
					c0.5-1.1,1.7-1.5,2.5-0.7c0.5,0.5,0.5,0.7,0.5,3.2v2.2h0.7h0.7v-2.4c0-3,0-3.2-0.8-4C100,12.9,99.2,12.7,98.4,12.9 M110.8,12.8
					c-0.9,0.1-1.6,0.5-2.1,1c-1.2,1.4-1,3.9,0.2,5.1c1.2,1.2,3.4,1.1,4.6-0.1c1.3-1.3,1.3-4.1-0.1-5.3c-0.5-0.5-0.9-0.6-2.1-0.8
					C111.3,12.8,111,12.8,110.8,12.8 M118.7,12.9c-1.1,0.1-1.7,0.4-1.6,0.6c0.1,0.6,0.2,0.7,0.5,0.6c1.1-0.6,2.5-0.4,2.9,0.4
					c0.4,0.7,0.2,1-0.5,1c-2.9,0-4.5,2.5-2.7,4c0.7,0.6,2.7,0.4,3.1-0.3c0.2-0.3,0.5-0.2,0.5,0.2v0.4h0.6h0.6v-2.3
					c0-2.9-0.1-3.4-0.8-4.1C120.6,12.9,119.7,12.7,118.7,12.9 M140,12.9c-2.3,0.4-3.4,3-2.3,5.3c0.9,1.8,4,2.2,5.3,0.7
					c1.2-1.4,1.3-3.7,0.1-5.1c-0.6-0.7-1-0.9-2.3-1C140.7,12.8,140.3,12.8,140,12.9 M149.4,12.9c-0.3,0.1-0.6,0.1-0.7,0.2
					c-0.1,0-0.4,0.2-0.6,0.5c-0.5,0.5-0.6,0.5-0.6-0.1v-0.6h-0.6h-0.6v3.3c0,3.9-0.1,3.6,0.8,3.6h0.7v-2.3c0-2.8,0.2-3.3,1.2-3.6
					c1.5-0.4,1.9,0.5,1.9,3.7v2.1h0.6h0.6v-2.1c0-3.5-0.3-4.4-1.8-4.7c-0.2,0-0.3-0.1-0.4-0.1C150,12.8,149.7,12.8,149.4,12.9
					 M175.7,12.9c-1.1,0.3-1.6,0.7-2.1,1.7l-0.4,0.7v1.1c0,1.7,0.5,2.6,1.8,3.2c0.8,0.3,3.4,0.3,3.7-0.1c0.2-0.2-0.1-0.9-0.3-0.8
					c-2,0.6-3.4,0.1-3.8-1.3c-0.2-0.7-0.3-0.7,2.3-0.7h2.2l0.1-0.3C179.5,14.2,177.7,12.3,175.7,12.9 M83.4,13.1
					c0,0.1,0.1,0.4,0.2,0.6c0.1,0.3,0.2,0.8,0.3,1.1c0.1,0.3,0.3,0.8,0.3,1.1c0.1,0.3,0.2,0.5,0.2,0.6s0.1,0.5,0.2,0.9
					c0.1,0.4,0.3,1,0.4,1.4c0.3,1.1,0.2,1,1,1h0.6l0.2-0.7c0.1-0.4,0.4-1.1,0.5-1.6c0.3-1,0.4-1.2,0.6-2.1c0.3-1,0.3-1,0.6,0.2
					c0.1,0.4,0.3,1,0.3,1.3c0.1,0.3,0.2,0.7,0.3,1.1c0.1,0.3,0.2,0.9,0.3,1.2c0.1,0.3,0.2,0.6,0.2,0.7s0.2,0.1,0.7,0.1H91l0.1-0.4
					c0.1-0.2,0.3-0.9,0.5-1.6c0.2-0.7,0.6-1.8,0.7-2.4c0.2-0.6,0.4-1.4,0.5-1.7c0.3-0.8,0.3-0.8-0.4-0.8h-0.6l-0.1,0.4
					c-0.1,0.2-0.1,0.5-0.2,0.7c0,0.2-0.1,0.5-0.2,0.7c0,0.2-0.1,0.5-0.2,0.7c-0.4,1.3-0.5,1.9-0.6,2.4c-0.1,0.4-0.2,0.7-0.3,0.5
					c0,0-0.1-0.4-0.2-0.7c-0.2-0.8-0.2-1-0.6-2.2c-0.2-0.5-0.4-1.3-0.5-1.7l-0.1-1h-0.5c-0.6,0-0.6,0-0.8,0.8
					c-0.1,0.5-0.6,2.1-0.7,2.3c-0.2,0.5-0.4,1.4-0.4,1.6c0,0.3-0.2,0.8-0.3,0.8c-0.1,0-0.1-0.1-0.3-0.8c-0.1-0.3-0.1-0.6-0.2-0.8
					c-0.1-0.3-0.3-1.3-0.6-2.5c-0.1-0.4-0.2-0.9-0.3-1.1v-0.3H84C83.5,12.9,83.4,12.9,83.4,13.1 M177.2,13.9
					c0.5,0.3,0.9,1.3,0.7,1.6c-0.1,0.1-2,0.2-3.2,0.1c-0.3,0,0-1,0.4-1.5C175.6,13.6,176.6,13.5,177.2,13.9 M79,13.9
					c0.9,0.4,1.5,1.9,1.2,3c-0.4,1.9-1.9,2.7-3.1,1.6C75.4,16.6,76.9,13,79,13.9 M111.9,13.9c0.9,0.4,1.5,2.1,1.1,3.4
					c-0.8,2.7-3.7,1.9-3.7-0.9C109.3,14.5,110.5,13.3,111.9,13.9 M141.5,14c1.1,0.8,1.3,3.3,0.2,4.4c-0.9,0.9-2.3,0.6-2.8-0.7
					C138.1,15.3,139.8,12.8,141.5,14 M128.6,14.1c1.1,0.9,1.1,3.7-0.1,4.4c-1.7,1.1-3.4-1.2-2.6-3.4
					C126.3,13.9,127.7,13.4,128.6,14.1 M120.5,17c0,1.2-0.6,1.9-1.6,1.9c-1.3,0-1.6-1.8-0.3-2.4c0.2-0.1,0.4-0.2,0.5-0.2
					s0.5-0.1,0.8-0.1h0.6V17 M41,18.4c-0.7,0.1-2.6,0.7-3.5,1c-0.2,0.1-0.5,0.2-0.6,0.2c-0.1,0-0.3,0.1-0.4,0.2
					c-0.9,0.4-2,0.3-3.4-0.3c-0.2-0.1-0.4-0.2-0.6-0.2c-2.5-1.1-5.1-1.1-7.3,0.1c-2.2,1.1-3.9,3.1-4.8,5.6c-0.3,0.9-0.4,1.1-0.6,2.3
					c-0.2,0.9-0.2,3.7,0,4.7c0.2,1.1,0.4,2.4,0.7,3.2c0,0.1,0.1,0.5,0.2,0.8c0.2,0.5,0.5,1.4,0.7,1.9c0.1,0.2,0.2,0.4,0.2,0.4
					c0,0.1,0.5,1.1,0.8,1.6c0.1,0.2,0.2,0.4,0.2,0.5c0,0.1,1.1,1.8,1.6,2.5c2.7,3.6,4.3,4.5,7,3.6c0.2-0.1,0.5-0.2,1.2-0.5
					c1.4-0.6,3.4-0.8,4.7-0.5c0.3,0.1,0.6,0.2,0.8,0.2c0.3,0.1,0.6,0.2,1.5,0.6c1.7,0.8,3.8,0.6,5-0.4c0.6-0.5,1.4-1.3,1.9-1.9
					c0.9-1.2,1.1-1.5,1.1-1.6c0,0,0.1-0.2,0.3-0.5c0.6-0.8,1.4-2.3,1.9-3.6c0.5-1.3,0.5-1.3,0.3-1.5c-4.2-2.6-5.7-6.1-4.4-10.2
					c0.4-1.2,1.6-2.9,2.9-4l0.7-0.5L49,21.9c-0.2-0.3-1.7-1.8-1.9-1.8c0,0-0.2-0.1-0.4-0.2c-0.7-0.5-1.7-0.9-3-1.2
					C43.3,18.4,41.5,18.3,41,18.4 M124.2,26.7c-2.6,0.3-4.4,1.5-5.1,3.5c-1.2,3.2,0.6,5.9,4.8,7.5c2.8,1,4,2.7,3.4,4.6
					c-0.6,1.8-3.4,2.6-6.1,1.8c-0.1,0-0.4-0.1-0.6-0.2c-0.2-0.1-0.6-0.3-1-0.4c-0.5-0.2-0.6-0.3-0.6-0.2c0,0.1-0.1,0.4-0.2,0.6
					c-0.1,0.3-0.2,0.7-0.3,1c-0.1,0.3-0.2,0.5-0.2,0.6c-0.1,0.2,1.2,0.7,2.1,1c1.2,0.3,4.3,0.3,5.4,0c2.8-0.8,4.4-2.7,4.4-5.4
					c0-2.6-1.3-4.2-4.6-5.6c-0.2-0.1-0.5-0.2-0.7-0.3c-0.2-0.1-0.4-0.2-0.5-0.2c-0.3,0-1.9-1.1-2.3-1.4c-1.1-1.3-0.7-3.2,0.8-4
					c1.3-0.7,3.3-0.6,5.1,0.2l0.6,0.2l0.1-0.2c0-0.1,0.1-0.3,0.1-0.3c0-0.1,0.1-0.3,0.1-0.5c0.1-0.2,0.2-0.6,0.3-0.9l0.2-0.5
					l-0.2-0.1C128.6,27,125.7,26.5,124.2,26.7 M69.6,27.2c0,0.1-0.3,1-0.6,1.9c-0.6,1.8-1.3,3.9-2,6.3c-0.3,0.9-0.7,2.3-1,3.1
					s-0.7,2.2-1,3.1c-0.3,0.9-0.7,2.3-1,3.1c-0.3,0.8-0.5,1.5-0.5,1.6c0,0.1,0.2,0.1,1.5,0.1h1.5l0.1-0.2c0-0.1,0.1-0.4,0.2-0.5
					c0-0.2,0.2-0.5,0.3-0.8c0.1-0.3,0.2-0.7,0.3-1s0.2-0.8,0.3-1.1c0.1-0.3,0.3-0.9,0.4-1.2c0.1-0.3,0.2-0.7,0.3-0.7
					c0.1-0.2,6.4-0.1,6.6,0c0,0.1,0.2,0.6,0.4,1.1c0.2,0.5,0.5,1.6,0.8,2.5c0.3,0.8,0.5,1.6,0.5,1.8v0.2h1.6c0.9,0,1.6,0,1.6-0.1
					c0-0.1-0.1-0.4-0.9-2.7c-0.3-0.8-0.5-1.7-0.6-2c-0.1-0.3-0.3-1-0.5-1.7c-0.2-0.6-0.6-1.8-0.9-2.7c-1.2-3.7-1.7-5.4-2.1-6.5
					c-0.2-0.7-0.6-1.8-0.8-2.6l-0.6-1.3h-1.9h-1.9L69.6,27.2 M136.5,29.1c-1.3,0.4-1.7,0.6-1.9,0.6c-0.1,0-0.1,0.2-0.2,1.3v1.3h-1
					h-1v1.1v1.1h0.9c0.7,0,1,0,1,0.1c0.1,0.1,0.1,1.6,0.1,4.5c0,4.8,0,4.7,0.6,5.8c0.7,1.5,3.1,2.2,5.4,1.5l0.3-0.1v-0.7
					c0-0.4-0.1-0.9-0.1-1.1v-0.4l-0.6,0.1c-1.4,0.2-2.1-0.2-2.5-1.4c-0.2-0.5-0.2-8.1,0-8.3c0.1,0,0.8-0.1,1.8-0.1h1.6v-1.1v-1.1
					h-1.7h-1.7v-1.7c0-1-0.1-1.7-0.1-1.7C137.2,29,136.8,29,136.5,29.1 M71.8,30.3c0.1,0.5,0.3,1.2,0.4,1.5c0.1,0.3,0.2,0.8,0.2,0.9
					c0,0.2,0.3,0.9,0.5,1.7c1,3.1,1.2,3.7,1.2,3.8c-0.1,0.1-5.3,0.1-5.3,0c0-0.1,0.1-0.5,0.2-0.9c0.8-2.5,1.3-3.9,1.4-4.6
					c0.4-1.4,0.5-1.9,0.6-2.1c0-0.1,0.1-0.4,0.1-0.7C71.3,29.1,71.5,29.2,71.8,30.3 M89.3,32.1c-1.6,0.2-3,1.1-3.5,2.1
					c-0.2,0.4-0.5,0.4-0.5-0.1c0-0.2,0-0.7-0.1-1.1l-0.1-0.7h-1.3h-1.3l0.1,1.5c0,0.8,0.1,5.3,0.1,9.8V52h1.5c1.3,0,1.5,0,1.5-0.1
					c0-0.1,0-1.7,0-3.7c0-2.3,0-3.6,0.1-3.6c0.1-0.1,0.1-0.1,0.5,0.5c1,1.3,3.3,1.8,5.6,1.2c1.5-0.4,3.1-2.1,3.7-4.1
					c1.6-4.7-0.6-9.7-4.7-10.1C90.1,32,90.2,32,89.3,32.1 M105.7,32.1c-1.6,0.2-3.2,1.1-3.7,2.1c-0.3,0.6-0.5,0.4-0.6-0.6
					c-0.1-1.4,0.1-1.3-1.4-1.3h-1.3l0.1,1.5c0,0.8,0.1,5.3,0.1,9.8V52h1.5c1.3,0,1.5,0,1.5-0.1c0-0.1,0-1.7,0-3.7c0-1.9,0-3.6,0-3.6
					c0.1-0.1,0.3,0,0.4,0.3c0.9,1.7,4.6,2.1,6.7,0.8c0.3-0.2,0.5-0.3,0.6-0.3c0.4,0,1.8-2.1,2.1-3.2c0.5-1.5,0.5-4.5,0.1-6
					c-0.8-2.5-3.3-4.5-5.5-4.3C106.3,32,106,32,105.7,32.1 M148.6,32.1c-1.9,0.3-3.1,0.9-4.3,2.3c-0.4,0.4-1.2,1.9-1.3,2.3
					c0,0.1-0.1,0.5-0.2,0.8c-0.2,0.8-0.2,3,0,3.8c0.1,0.3,0.2,0.7,0.2,0.8c0.1,0.3,0.5,1.1,0.9,1.8s1.4,1.5,2.4,2.1
					c1.7,0.9,5.1,0.7,6.7-0.3c0.2-0.1,0.4-0.2,0.4-0.2c0.5,0,2.2-2.4,2.5-3.4c0-0.1,0.1-0.5,0.2-0.7c0.3-1.3,0.3-3,0-4.3
					c-0.1-0.3-0.2-0.6-0.2-0.7c-0.5-2.1-2.8-3.9-5.3-4.3C149.6,32,149.6,32,148.6,32.1 M165.2,32.1c-1.3,0.3-2.3,1.1-2.9,2.3
					c-0.4,0.9-0.6,0.8-0.6-0.5c0-0.6,0-1.1-0.1-1.3l-0.1-0.3h-1.2h-1.2v7v7h1.5h1.5v-4c0-4.4,0-4.6,0.5-5.6c0.6-1.3,1.7-1.9,3.1-1.9
					h0.7v-1.4V32l-0.3-0.1C165.8,32,165.8,32,165.2,32.1 M173.6,32.1c-3,0.5-5,2.9-5.4,6.5c-0.4,3.6,1.3,6.5,4.5,7.6l0.8,0.3h1.9
					c1.7,0,2,0,2.7-0.2c1-0.2,1.8-0.5,1.8-0.6c0,0-0.1-0.4-0.2-0.8c-0.1-0.4-0.3-0.8-0.3-0.9c0-0.2-0.1-0.2-0.8,0
					c-4.1,1.2-7.4-0.3-7.5-3.4V40h4.7h4.7l0.1-0.3c0.2-1,0-3-0.6-4.3C178.9,32.9,176.6,31.6,173.6,32.1 M175.5,34.1
					c1.2,0.4,1.8,1.1,2.2,2.5c0.1,0.5,0.2,1.2,0,1.2c-0.1,0-5.1,0.1-6.6,0c-0.2,0-0.1-0.7,0.2-1.3C172.1,34.6,173.9,33.6,175.5,34.1
					 M150.4,34.3c4.1,1.1,3.9,9.4-0.3,10.1c-1.9,0.4-3.8-1.1-4.2-3.5C145.1,36.9,147.4,33.4,150.4,34.3 M89.7,34.4
					c1.4,0.3,2.2,0.9,2.7,2.1c0.8,1.9,0.8,4.1-0.1,6c-1.2,2.5-5,2.5-6.2,0c-0.5-1-0.6-4.5-0.2-5.6c0.5-1.3,1.3-2,2.4-2.4
					C89.1,34.3,89.2,34.3,89.7,34.4 M106.1,34.5c0.3,0.1,0.6,0.1,0.7,0.2c0.3,0.1,1.3,0.9,1.5,1.3c0.6,1.1,0.7,1.3,0.8,2.4
					c0.1,0.7,0.1,1,0,1.9c-0.1,1.1-0.6,2.2-1.2,2.9c-1.1,1.3-3.6,1.5-4.8,0.4c-1.1-1-1.3-1.7-1.3-4.1c0-2.4,0.2-3.1,1.1-4
					C103.9,34.5,105,34.2,106.1,34.5"/>
				<path id="path1_1_" class="st1" d="M6.5,1.6C4.2,2.2,2.8,4,2.4,6.4c-0.2,1-0.2,45.3,0,46.3c0.3,2.4,2,4.2,4.2,4.8
					c0.4,0.1,11.3,0.1,93.7,0.1h93.3l0.6-0.2c2.1-0.6,3.5-2.2,4-4.5c0.1-0.7,0.1-46.3,0-47c-0.5-2.2-2-3.8-4.1-4.4l-0.6-0.2h-93.2
					C24.9,1.4,6.8,1.5,6.5,1.6 M42.4,9.2c0.5,0.3-0.2,3.8-1.1,5.1c-1.5,2.3-3.4,3.5-5.8,3.8c-0.7,0.1-0.8,0-0.8-0.7
					c0-4,3.4-7.7,7.5-8.3C42.3,9.1,42.3,9.1,42.4,9.2 M105.6,9.7c0.1,0.3,0.1,9.9,0,10c-0.1,0.1-1.3,0.1-1.5,0
					c-0.1-0.1-0.2-10-0.1-10.1C104.1,9.6,105.5,9.7,105.6,9.7 M130.8,9.7c0,0,0.1,2.4,0.1,5.1v5.1h-0.8h-0.8v-0.4
					c0-0.5-0.1-0.5-0.4-0.1c-0.6,0.7-2.2,1-3,0.5c-3.1-1.7-2.1-7.2,1.3-7.2c0.7,0,1.3,0.2,1.6,0.5l0.2,0.2v-1.8c0-1,0-1.9,0.1-1.9
					C129.2,9.7,130.8,9.7,130.8,9.7 M166.4,11.6v2l0.4-0.3c0.9-0.9,2.6-0.9,3.4,0c0.8,0.8,0.8,1.3,0.8,4.4v2.2h-0.8h-0.8v-2.4
					c0-2.3,0-2.4-0.2-2.8c-0.5-1-1.8-0.9-2.4,0.2c-0.2,0.3-0.2,0.5-0.2,2.7v2.3h-0.8H165v-5c0-2.8,0-5.1,0-5.1
					c0-0.1,0.3-0.1,0.8-0.1h0.8v1.9 M69.6,10.1c4.3,0.9,5.1,7.2,1.1,9.2c-1.3,0.7-4.9,1-5.5,0.6c-0.1-0.1-0.2-9.3-0.1-9.6
					C65.3,10,68.5,9.9,69.6,10.1 M161,11.2c0,0.1,0.1,0.5,0.1,0.9v0.7h0.8h0.8v0.6V14h-0.8h-0.8v2v2l0.3,0.3
					c0.2,0.2,0.3,0.2,0.7,0.2c0.6,0,0.6,0,0.6,0.7c0,0.7,0,0.7-1.1,0.7c-1.8,0-2.2-0.5-2.2-3.7V14h-0.5h-0.5v-0.6v-0.6h0.5h0.5v-0.5
					c0-0.7,0-0.7,0.8-1C161,11,160.9,11,161,11.2 M67.2,11.4h-0.4V15v3.6h0.7c2.3,0,3.6-1,3.8-3c0.3-2.4-0.6-3.8-2.7-4.1
					C68.1,11.3,67.9,11.3,67.2,11.4 M79.6,12.8c2.8,0.8,3.1,5.5,0.3,6.9c-0.7,0.3-2.5,0.4-3.1,0c-1.6-0.8-2.4-3.4-1.6-5.1
					c0.1-0.1,0.1-0.3,0.1-0.3c0-0.2,0.9-1.1,1.3-1.3C77.4,12.6,78.6,12.5,79.6,12.8 M99.9,12.8c1.2,0.5,1.4,1.1,1.4,4.3v2.8h-0.7
					c-1,0-1,0.2-1-2.5c0-1.8,0-2.4-0.1-2.6c-0.4-1-1.7-1.1-2.3-0.1L97,15.1v2.3c0,2.7,0.1,2.5-1,2.5h-0.7v-3.5
					c-0.1-4-0.1-3.6,0.8-3.6h0.6l0.1,0.4l0.1,0.4l0.4-0.4C97.8,12.6,99,12.4,99.9,12.8 M112.5,12.8c1.9,0.6,2.8,3.1,1.8,5.3
					c-1.1,2.5-5,2.5-6.2,0.1C106.6,15,109.2,11.8,112.5,12.8 M120.4,12.8c0.5,0.2,1.1,0.7,1.4,1.3c0.2,0.4,0.4,5.5,0.3,5.7
					c-0.1,0.1-1.3,0.1-1.4,0s-0.1-0.2-0.1-0.3c0-0.3-0.2-0.3-0.3-0.1c-0.3,0.6-2,0.8-2.8,0.4c-1.3-0.6-1.6-2.4-0.6-3.5
					c0.6-0.7,1.7-1,3.1-1.1c0.6,0,0.3-1.1-0.4-1.2c-0.5-0.1-1.6,0-2,0.2c-0.5,0.2-0.5,0.2-0.6-0.3c-0.2-0.6-0.2-0.7,0.2-0.9
					C118.1,12.6,119.5,12.5,120.4,12.8 M141.8,12.8c2.2,0.6,3,3.9,1.5,5.9c-1.7,2.3-5.6,1.4-6.1-1.4c-0.5-2.5,0.7-4.3,3.1-4.7
					C140.6,12.6,141.3,12.7,141.8,12.8 M150.8,12.8c0.5,0.1,1.1,0.8,1.4,1.4c0.2,0.5,0.2,0.6,0.2,3c0,2.9,0.1,2.7-0.8,2.7
					c-1,0-0.9,0.2-0.9-2.4c0-2.5,0-2.8-0.5-3.2c-0.5-0.5-1.5-0.3-2,0.4L148,15v2.4v2.4h-0.7c-0.4,0-0.8,0-0.9,0h-0.2v-3.5v-3.5h0.7
					h0.7v0.3c0,0.6,0.1,0.6,0.4,0.2C148.6,12.7,149.7,12.5,150.8,12.8 M177.6,12.8c1,0.4,1.8,1.7,1.8,3.2c0,0.9,0.1,0.9-2.4,0.9
					c-2.4,0-2.3,0-2.1,0.6c0.3,1.2,1.8,1.6,3.7,1c0.2-0.1,0.5,0.8,0.4,1.1c-0.2,0.5-3.1,0.6-4,0.2c-2.9-1.4-2.4-6.4,0.7-7.1
					C176.2,12.6,177.1,12.6,177.6,12.8 M84.9,12.9c0.1,0.2,0.2,0.6,0.8,3.3c0.4,1.9,0.4,1.8,0.5,1.4c0-0.2,0.2-0.7,0.3-1.2
					c0.1-0.5,0.3-1,0.4-1.2c0.8-2.7,0.6-2.5,1.4-2.5s0.7,0,1.1,1.4c0.2,0.6,0.4,1.6,0.6,2.1c0.2,0.6,0.3,1.2,0.4,1.3
					c0,0.2,0.1,0.3,0.1,0.2c0.2-0.8,1.2-4.9,1.3-5c0.1,0,0.4-0.1,0.8-0.1h0.7v0.2c0,0.1-0.2,0.9-0.5,1.8c-1,3.1-1.4,4.4-1.5,4.7
					c-0.1,0.6-0.1,0.6-0.9,0.6c-0.9,0-0.8,0.1-1.2-1.4c-0.1-0.3-0.2-0.8-0.3-1.1c-0.5-1.5-0.6-2-0.6-2.1s0-0.2-0.1-0.2
					c0,0-0.1,0.1-0.1,0.2c0,0.1,0,0.3-0.1,0.4c0,0.1-0.2,0.7-0.4,1.4c-0.6,2.1-0.9,2.7-0.9,2.8c-0.1,0.1-1.3,0.1-1.4,0
					c-0.1-0.1-0.9-2.6-1.1-3.5c0-0.2-0.2-0.8-0.4-1.5c-0.5-1.6-0.6-2-0.5-2.1C83.3,12.6,84.8,12.7,84.9,12.9 M175.8,14
					c-0.5,0.2-0.7,0.4-0.9,0.9c-0.2,0.6-0.3,0.6,1.4,0.6h1.5v-0.3C177.8,14.3,176.7,13.6,175.8,14 M77.9,14
					c-0.8,0.1-1.5,1.9-1.2,3.1c0.6,2.6,3.4,2,3.4-0.8C80.1,14.7,79.2,13.8,77.9,14 M110.7,14c-0.9,0.2-1.5,1.8-1.1,3.2
					c0.6,2.4,3.1,1.9,3.3-0.6C113.1,14.9,112.1,13.7,110.7,14 M140.1,14c-1.4,0.4-1.7,3.4-0.4,4.4c1.3,1.1,2.9-0.6,2.6-2.6
					C142,14.4,141.2,13.7,140.1,14 M126.9,14.1c-1.3,0.6-1.5,3.5-0.2,4.3c0.9,0.5,1.8,0.2,2.2-0.7c0.2-0.5,0.2-2.4,0-2.9
					C128.6,14.2,127.6,13.8,126.9,14.1 M119.5,16.5c-1.3,0.2-2,1.3-1.2,2.1c0.8,0.7,2-0.1,2-1.4v-0.7H120
					C119.8,16.4,119.7,16.5,119.5,16.5 M43.5,18.3c2.2,0.4,4.4,1.7,5.5,3.2c0.4,0.5,0.4,0.6-0.1,0.8c-0.5,0.3-1.9,1.7-2.3,2.3
					c-2.8,4.2-1.3,9.7,3.2,11.9c0.5,0.2,0.5,0.3,0.1,1.2c-0.8,2-1.7,3.7-3.5,6.1c-2.2,3-4.4,3.6-7.7,2.2c-2.3-1-4.3-1-6.6,0
					c-2.8,1.2-4.6,0.9-6.5-1.1c-4.3-4.5-6.9-11.8-6.2-17.4c0.7-5.2,4-8.8,8.6-9.3c1.4-0.2,2.6,0.1,4.9,1c1.8,0.7,2.3,0.7,4.1,0
					C40.1,18.2,41.7,18,43.5,18.3 M127.8,26.7c0.8,0.2,1.6,0.4,1.8,0.6c0.2,0.1,0.1,0.2-0.6,2.6c0,0.2-0.2,0.1-0.7-0.1
					c-3.2-1.4-6.4-0.5-6.4,1.8c0,1.4,0.8,2.2,3.4,3.3c2.9,1.2,4.4,2.5,4.9,4.2c1.2,3.9-1.4,7.4-5.8,7.7c-2.3,0.2-4.1-0.1-5.5-0.8
					c-0.9-0.5-0.9-0.2-0.2-2.6c0.2-0.7,0.1-0.6,1-0.2c2.8,1.4,6.4,1,7.2-0.7c0.9-1.9-0.4-3.8-3.3-4.8c-3.1-1-5-3.2-5-5.7
					C118.7,28,122.8,25.6,127.8,26.7 M73.5,26.8c0.1,0,0.3,0.6,0.6,1.4c0.2,0.7,0.6,1.9,0.9,2.7c1.2,3.8,1.5,4.7,2.5,7.6
					c0.6,1.7,1.3,3.9,1.6,4.9c0.3,1,0.7,2.1,0.8,2.4c0.3,0.9,0.3,0.8-1.5,0.8c-1.6,0-1.8,0-1.9-0.4c0-0.1-0.3-1-0.6-1.9
					c-0.3-0.9-0.7-2.1-0.8-2.6l-0.4-0.8h-3.1c-2.4,0-3.1,0-3.2,0.1c-0.1,0.1-0.5,1.5-1,3.1c-0.8,2.9-0.6,2.6-2.5,2.6
					c-2,0-1.9,0.2-1-2.4c0.2-0.5,0.5-1.6,0.8-2.6c0.3-0.9,1-3.1,1.5-4.8c0.5-1.7,1.2-3.9,1.6-4.8c0.3-1,0.8-2.4,1-3.2
					c0.3-0.8,0.5-1.5,0.5-1.6c0-0.4,0.1-0.5,2.1-0.5C72.5,26.8,73.4,26.8,73.5,26.8 M137.5,28.9c0,0.1,0.1,0.9,0.1,1.8v1.6h1.7
					c2,0,1.9-0.1,1.9,1.2c0,1.5,0.2,1.4-1.8,1.4h-1.7v3.9v3.9l0.3,0.5c0.4,0.8,1,1,2.2,0.9c0.8-0.1,0.8-0.2,0.8,1.3v1.2l-0.5,0.2
					c-0.7,0.2-2.9,0.2-3.5,0c-0.9-0.3-1.6-0.9-2-1.6c-0.6-1.1-0.6-1-0.6-5.8V35h-1c-1.2,0-1.2,0-1.2-1.4c0-1.3-0.1-1.3,1.2-1.3h1V31
					v-1.3l1.2-0.4c0.7-0.2,1.3-0.4,1.4-0.5C137.3,28.7,137.4,28.7,137.5,28.9 M71.4,30c0,0.1-0.3,1.3-0.9,3.4
					c-0.1,0.4-0.3,1.1-0.4,1.4c-0.3,0.8-1,3.3-1,3.4c0,0.1,0.8,0.1,2.5,0.1h2.5l-0.3-0.9c-0.9-2.8-2.2-6.9-2.2-7.3
					C71.6,30,71.6,30,71.4,30C71.4,29.8,71.4,29.9,71.4,30 M91.7,32c5.3,1.3,6.2,10.9,1.3,13.8c-2.3,1.4-5.7,1-6.9-0.7l-0.2-0.3v3.6
					c0,2.8,0,3.6-0.1,3.7c-0.1,0.1-2.9,0.1-3.1,0c-0.1,0-0.1-0.9-0.1-8.7c0-4.8,0-9.2-0.1-9.9c-0.1-1.6-0.2-1.5,1.5-1.4h1.4l0.1,0.3
					c0,0.2,0.1,0.6,0.1,1c0,0.8,0.1,0.8,0.3,0.4C86.7,32.4,89.4,31.5,91.7,32 M107.8,32c2.2,0.5,4,2.7,4.5,5.3
					c0.8,5.1-1.7,9.2-5.7,9.5c-1.9,0.1-3.6-0.5-4.3-1.6l-0.2-0.3v3.6c0,3.2,0,3.6-0.1,3.7c-0.2,0.1-2.9,0.1-3.1,0
					c-0.1,0-0.1-0.9-0.1-8.8c0-4.8,0-9.3-0.1-9.8c-0.1-1.5-0.2-1.4,1.4-1.4c1.6,0,1.5-0.1,1.6,1c0.1,1.1,0.1,1.2,0.4,0.9
					C102.9,32.4,105.6,31.5,107.8,32 M151.7,32.1c4,1.1,5.9,5.4,4.5,9.9c-1.9,6.3-11.3,6.3-13.1,0C141.1,35.8,145.8,30.4,151.7,32.1
					 M166.7,32c0,0.1,0.1,0.8,0,1.6v1.5h-0.9c-1.7,0-2.7,0.7-3.2,2.4c-0.2,0.5-0.2,0.8-0.2,4.7c0,3.7,0,4.2-0.1,4.3
					c-0.1,0.2-2.9,0.2-3.1,0.1c-0.1-0.1-0.1-0.9-0.1-5.7c0-3.1,0-6.3-0.1-7.1c-0.1-1.7-0.2-1.6,1.4-1.6c1.7,0,1.5-0.1,1.5,1
					c0,1.4,0.1,1.5,0.4,0.9c0.5-1.1,1.9-2,2.9-2.2C165.7,31.8,166.6,31.9,166.7,32 M176.8,32.1c2,0.7,3.3,2.2,3.8,4.4
					c0.2,0.7,0.3,3.2,0.1,3.5c-0.1,0.1-0.4,0.1-4.8,0.1h-4.7v0.2c0,3.2,3.4,4.7,7.6,3.3c0.7-0.2,0.7-0.2,0.9,0.7
					c0.4,1.6,0.4,1.5-0.7,1.8c-3.2,1-6.9,0.6-8.8-1.1c-3.6-3.3-2.7-10.5,1.6-12.5C173.4,31.8,175.3,31.6,176.8,32.1 M174.2,34.3
					c-1.3,0.1-2.4,1.3-2.8,2.9c-0.1,0.3-0.1,0.5-0.1,0.6c0,0,1.5,0.1,3.2,0h3.1v-0.5c0-0.7-0.4-1.7-0.9-2.3
					C176.3,34.5,175.1,34.1,174.2,34.3 M148.9,34.4c-1.4,0.2-2.5,1.6-2.9,3.4c-0.7,4,1.3,7.1,4.1,6.5c4-0.9,3.9-9.2-0.1-9.8
					C149.5,34.3,149.5,34.3,148.9,34.4 M88.1,34.8c-1.7,0.6-2.3,1.9-2.3,4.8c0,3.3,1,4.6,3.4,4.6c2.3,0,3.6-1.8,3.6-4.8
					C92.8,35.9,90.7,33.9,88.1,34.8 M104.4,34.8c-1.7,0.5-2.4,1.9-2.4,4.8c0,2.2,0.1,2.6,0.9,3.6c1.4,1.8,4.4,1.3,5.5-0.9
					C110.4,38.2,107.9,33.6,104.4,34.8"/>
				<path id="path2_1_" class="st2" d="M5.9,0.2c-0.2,0-0.3,0.1-0.3,0.1S5.5,0.4,5.4,0.4c-0.1,0-0.2,0-0.3,0.1c0,0-0.1,0.1-0.2,0.1
					c-0.1,0-0.2,0-0.2,0.1s0,0-0.1,0c-0.1,0-0.2,0-0.2,0.1S4,1.1,3.9,1.1c0,0-0.2,0.1-0.3,0.3c0,0.1-0.2,0.3-0.2,0.3
					C3.3,1.7,2.1,2.9,2.1,3c0,0-0.1,0.2-0.3,0.4C1.7,3.6,1.5,3.7,1.5,3.8S1.4,4,1.3,4.1C1.2,4.2,1.1,4.4,1.1,4.4
					c0,0.1,0,0.2-0.1,0.2c0,0-0.1,0.1-0.1,0.2S0.9,5,0.8,5c0-0.1,0,48.9,0.1,49.1C1,54.2,1,54.3,1,54.4c0,0.1,0,0.2,0.1,0.2l0.1,0.1
					c0,0.1,0,0.2,0.1,0.3c0.1,0.1,0.1,0.3,0.2,0.5c0.2,0.4,0.4,0.7,0.4,0.8c0,0,0.1,0.2,0.2,0.3c0.3,0.4,1.6,1.8,1.8,1.8
					c0.1,0,0.1,0,0.1,0.1c0,0,0,0.1,0.1,0.1c0.1,0,0.2,0.1,0.3,0.2C4.5,58.9,4.6,59,4.7,59s0.1,0,0.1,0.1l0.1,0.1
					c0.1,0,0.2,0,0.3,0.1c0.1,0,0.3,0.1,0.4,0.2c0.3,0.2,187.6,0.2,187.8,0c0.1-0.1,0.3-0.1,0.5-0.1s0.4,0,0.4-0.1
					c0,0,0.1-0.1,0.3-0.1c0.1,0,0.3,0,0.3-0.1c0,0,0.1-0.1,0.2-0.1c0.1,0,0.2,0,0.2-0.1c0,0,0.1-0.1,0.3-0.1c0.1,0,0.2,0,0.2-0.1
					c0,0,0.1-0.1,0.2-0.1c0.1,0,0.2,0,0.2-0.1c0,0,0-0.1,0.1-0.1s0.2-0.1,0.3-0.2c0.1-0.1,0.2-0.2,0.3-0.2c0,0,0.2-0.1,0.4-0.3
					s0.4-0.4,0.5-0.4c0.1,0,0.2-0.2,0.2-0.2c0-0.1,0.2-0.3,0.4-0.5s0.3-0.4,0.4-0.5c0.1-0.1,0.1-0.2,0.2-0.2c0,0,0.1-0.1,0.1-0.2
					s0-0.2,0.1-0.2s0.6-1.1,0.6-1.2c0-0.1,0-0.1,0.1-0.1s0.1-5.1,0.1-24.7c0-19.7,0-24.7-0.1-24.7s-0.1-0.1-0.1-0.3
					c0-0.2,0-0.2-0.1-0.2c0,0-0.1-0.1-0.1-0.2c0-0.1,0-0.2-0.1-0.2c-0.1,0-0.1,0.1-0.1,0s-0.1-0.2-0.2-0.3c-0.1-0.1-0.2-0.2-0.2-0.3
					c0,0-0.1-0.2-0.3-0.3c-0.1-0.1-0.3-0.3-0.3-0.3c0-0.1-0.9-1-1-1c0,0-0.2-0.1-0.3-0.3s-0.3-0.3-0.4-0.3c-0.1,0-0.1,0-0.1-0.1
					s-0.4-0.3-0.6-0.3c-0.1,0-0.1,0-0.1-0.1s-0.4-0.3-0.6-0.3c-0.1,0-0.1,0-0.1-0.1c0,0-0.1-0.1-0.2-0.1c-0.1,0-0.2,0-0.3-0.1
					C194.7,0.1,6.8,0.1,5.9,0.2 M194,1.5c1.9,0.6,3.3,1.9,3.9,3.7l0.3,0.7V29c0,12.7,0,23.4,0,23.7c-0.3,2.4-1.9,4.3-4.2,5
					c-0.6,0-186.6,0-187.5-0.2c-1.9-0.4-3.4-1.9-4.1-3.8L2.2,53V29.4V6.1l0.2-0.7c0.7-2,2.3-3.5,4.3-4C7.6,1.2,193.4,1.3,194,1.5
					 M41.5,9.4c-0.1,0-0.4,0.1-0.5,0.2c-0.3,0.1-0.4,0.1-1,0.4c-0.2,0.1-0.4,0.2-0.4,0.2c-0.2,0-1.7,1.1-2.1,1.5
					c-1.5,1.5-2.6,4.1-2.5,5.8v0.4h0.5c1.9,0.1,4.4-1.5,5.7-3.5c0.2-0.2,0.3-0.6,0.4-0.7c0.1-0.2,0.2-0.5,0.3-0.7
					c0.4-1,0.8-2.7,0.7-3.4C42.4,9.2,42.2,9.2,41.5,9.4 M42.4,9.6c0.2,0.9-0.4,3.2-1.2,4.6c-1.2,2.1-3.9,3.8-5.8,3.7H35v-0.7
					c0-1.8,1-4.1,2.4-5.4c0.9-0.9,2.4-1.7,3.5-2.1C42.2,9.3,42.3,9.3,42.4,9.6 M104,9.8c0,0.1,0,2.3,0,5.1v5h0.8h0.8v-5v-5h-0.7
					C104.2,9.7,104,9.7,104,9.8 M129.3,11.6c0,2,0,2.1-0.4,1.7c-0.5-0.6-2-0.7-3-0.3c-1.9,0.9-2.4,4.4-0.8,6.1
					c1,1.1,3.2,1.1,3.9,0.1c0.3-0.5,0.4-0.4,0.5,0.2v0.5h0.6c0.4,0,0.6,0,0.6-0.1c0,0,0-2.3,0-5.1v-5h-0.8h-0.8v1.9 M164.9,9.8
					c0,0.1,0,2.3,0,5.1v5h0.7h0.7v-2.4v-2.4l0.3-0.4c0.7-1,1.9-0.9,2.5,0c0.2,0.3,0.2,0.5,0.2,2.7v2.4h0.7h0.7v-2.6
					c0-3-0.1-3.1-0.7-3.8c-0.9-0.9-2.5-0.9-3.3,0c-0.4,0.5-0.4,0.4-0.4-1.8v-2h-0.7C165.1,9.7,164.9,9.7,164.9,9.8 M105.4,14.7v5
					h-0.6c-0.4,0-0.6,0-0.7-0.1c0-0.1-0.1-2.3-0.1-5V9.7h0.7h0.7V14.7 M130.7,14.8v5h-0.6h-0.6v-0.4c0-0.2,0-0.5-0.1-0.5
					c-0.1-0.1-0.3-0.1-0.3,0.1c0,0.8-2.3,1.3-3.3,0.7c-1.1-0.6-1.6-2-1.5-3.6c0-0.7,0.1-0.9,0.4-1.6c0.8-1.6,3.1-2.2,4.2-1
					c0.4,0.4,0.4,0.3,0.4-1.8V9.8h0.7h0.7L130.7,14.8 M166.3,11.8c0,2.3,0,2.3,0.6,1.7c1-1.2,2.9-0.9,3.7,0.6l0.2,0.5v2.6v2.6h-0.7
					h-0.7v-2.4c0-2.3,0-2.4-0.2-2.8c-0.5-1.1-1.9-1-2.7,0.1l-0.2,0.3v2.4v2.4h-0.7h-0.7v-5v-5h0.7h0.7L166.3,11.8 M66.1,10.1
					c-0.2,0-0.5,0.1-0.6,0.1h-0.3V15v4.8H67c2.1,0,2.5-0.1,3.5-0.6c1.7-0.8,2.5-2.2,2.5-4.5c0-2.5-1-3.8-3.2-4.5
					C69.4,10.2,66.9,10.1,66.1,10.1 M69.1,10.2c2.5,0.3,3.9,1.9,3.9,4.5c0,3.5-1.8,5-5.9,5h-1.8V15v-4.7h0.3
					C66.3,10.2,68.3,10.1,69.1,10.2 M67.1,11.2c-0.2,0-0.4,0.1-0.4,0.1c-0.1,0.1-0.1,7.2,0,7.4c0.1,0.1,1.7,0.1,2.2,0
					c1.9-0.5,2.9-2,2.7-4.3C71.4,12.1,69.7,10.9,67.1,11.2 M160.1,11.3c-0.7,0.2-0.7,0.3-0.7,0.9v0.6h-0.5h-0.5v0.5v0.5h0.5h0.5v2.1
					c0,3.6,0.5,4.3,2.6,4l0.5-0.1v-0.5v-0.5H162c-1-0.1-1.1-0.3-1.1-2.9v-1.8h0.8h0.8v-0.5v-0.7h-0.8h-0.8v-0.8
					C160.9,11,160.9,11.1,160.1,11.3 M68.7,11.3c1.6,0.2,2.6,1.3,2.7,3c0.2,2.8-1.1,4.4-3.8,4.4h-0.9V15v-3.7h0.4
					C67.9,11.3,68.2,11.3,68.7,11.3 M160.9,12.1v0.8h0.9h0.9v0.5v0.5h-0.9h-0.9v1.9c0,2.6,0.1,2.9,1.2,2.9h0.5v0.5v0.5l-0.5,0.1
					c-2,0.2-2.4-0.3-2.4-3.7l-0.1-2.1h-0.5h-0.5v-0.5v-0.6h0.5h0.5v-0.5c0-0.7,0.1-0.8,0.5-0.9c0.2-0.1,0.4-0.1,0.5-0.2
					C160.8,11.2,160.8,11.2,160.9,12.1 M77.9,12.8c-3.3,0.5-4,5.5-1,6.9c0.6,0.3,2.3,0.3,2.9,0c2.4-1.1,2.7-4.9,0.5-6.4
					c-0.4-0.3-1.7-0.6-2-0.6C78.3,12.7,78.1,12.7,77.9,12.8 M98.3,12.8c-0.6,0.2-1,0.4-1.3,0.7c-0.3,0.4-0.4,0.4-0.4,0
					c0-0.6-0.1-0.7-0.7-0.7h-0.6v3.5v3.5h0.8h0.8v-2.3c0-2.9,0.2-3.4,1.3-3.6c1.3-0.3,1.7,0.5,1.7,3.7v2.2h0.7h0.7v-2.4
					c0-2.6,0-2.9-0.4-3.5C100.4,13,99.4,12.5,98.3,12.8 M110.7,12.8c-0.9,0.1-1.4,0.4-1.9,0.9c-1,1-1.3,2.9-0.7,4.3
					c0.6,1.3,1.4,1.9,3,1.9c1.7,0,2.6-0.6,3.1-2C115.4,15,113.5,12.3,110.7,12.8 M118.7,12.8c-1.5,0.2-1.8,0.4-1.6,1
					c0.2,0.5,0.2,0.5,0.4,0.4c0.5-0.3,1.9-0.4,2.4-0.2c0.3,0.2,0.5,0.5,0.5,1v0.4h-0.7c-3.1,0.2-4.5,2.6-2.4,4.3
					c0.6,0.5,2.3,0.3,2.9-0.3c0.3-0.4,0.4-0.3,0.5,0.1v0.4h0.7h0.7v-2.4c0-3.2-0.2-4-1.3-4.4c-0.3-0.1-1.5-0.4-1.6-0.3
					C119.2,12.7,118.9,12.7,118.7,12.8 M139.9,12.8c-2.3,0.5-3.5,3.1-2.3,5.4c0.9,1.9,3.8,2.3,5.3,0.8
					C145.5,16.4,143.4,12.1,139.9,12.8 M149.4,12.8c-0.2,0-0.5,0.1-0.5,0.2c0,0-0.1,0.1-0.2,0.1c-0.2,0-0.8,0.6-0.8,0.8
					c0,0.3-0.2-0.1-0.3-0.4V13H147h-0.6v3.5V20h0.8h0.8v-2.4v-2.4l0.2-0.4c0.8-1.2,2.3-0.9,2.6,0.5c0.1,0.3,0.1,1.3,0.1,2.5v2.1h0.7
					h0.7v-2.2c0-3.1-0.2-4-1.2-4.6c-0.3-0.2-1.3-0.4-1.3-0.4C149.8,12.7,149.6,12.7,149.4,12.8 M175.6,12.8c-1.1,0.3-1.8,1-2.3,2.3
					c-0.2,0.6-0.1,2.4,0.2,3c0.3,0.6,0.9,1.3,1.6,1.6c0.7,0.4,3.6,0.2,3.8-0.2c0.1-0.2-0.2-1-0.4-1c-2.4,0.6-3.8,0-3.8-1.6v-0.2h2.3
					h2.3l0.1-0.3C179.6,14.1,177.8,12.2,175.6,12.8 M79.4,12.9c0.2,0,0.4,0.1,0.5,0.1c1.2,0.3,2.1,2.6,1.6,4.3
					c-0.4,1.7-1.4,2.4-3.2,2.4c-2.2,0-3.4-1.4-3.2-3.8c0.1-1.3,1-2.8,1.8-3C78.1,12.8,78.6,12.7,79.4,12.9 M99.8,13
					c0.3,0.1,0.5,0.2,0.7,0.4c0.7,0.8,0.8,1,0.8,4v2.4h-0.7h-0.7v-2.2c0-2.5,0-2.7-0.5-3.2c-0.8-0.8-2-0.5-2.5,0.7
					c-0.1,0.3-0.2,0.6-0.2,2.6v2.2H96h-0.7v-3.4v-3.6h0.5c0.6,0,0.6,0.1,0.6,0.8c0,0.3,0.2,0.3,0.5-0.1C97.6,12.9,98.7,12.6,99.8,13
					 M111.9,12.9c1.7,0.3,2.6,1.5,2.6,3.4c0,2.3-1.2,3.5-3.3,3.5c-1.3,0-1.5-0.1-2.2-0.8c-1.1-1.1-1.3-3-0.6-4.6
					c0.4-0.9,2-1.7,3-1.6C111.5,12.8,111.7,12.8,111.9,12.9 M120.3,13c1.3,0.3,1.6,1.1,1.6,4.5v2.3h-0.6h-0.6v-0.4
					c0-0.4-0.3-0.5-0.5-0.2c-0.4,0.7-2.3,0.9-3.1,0.3c-1.8-1.6-0.2-4,2.7-4c0.7,0,0.8-0.3,0.5-1c-0.4-0.8-1.8-1-2.9-0.4
					c-0.2,0.1-0.2,0.1-0.3-0.1c-0.2-0.5-0.2-0.7,0-0.8C118.4,12.8,119.3,12.7,120.3,13 M141.3,12.9c2.6,0.4,3.5,3.9,1.7,6
					c-1,1.2-3.5,1.3-4.7,0.1c-2.3-2.2-0.5-6.6,2.5-6.2C140.9,12.8,141.1,12.8,141.3,12.9 M150.4,12.9c1.5,0.3,1.9,1.2,1.8,4.7v2.1
					h-0.6H151v-2.1c0-3.3-0.4-4.1-1.9-3.7c-1.1,0.3-1.2,0.8-1.2,3.6v2.3h-0.7c-0.8,0-0.8,0.3-0.8-3.6v-3.3h0.6h0.6v0.5
					c0,0.7,0.1,0.7,0.6,0.1c0.2-0.2,0.5-0.5,0.6-0.5c0.7-0.2,1.2-0.3,1.3-0.3C150.1,12.8,150.3,12.8,150.4,12.9 M177.5,13
					c1.1,0.3,2,2.1,1.7,3.4l-0.1,0.3h-2.2c-2.6,0-2.5,0-2.3,0.7c0.4,1.5,1.8,1.9,3.8,1.3c0.2-0.1,0.4,0.7,0.3,0.8
					c-0.3,0.4-2.9,0.4-3.7,0.1c-1.2-0.6-1.8-1.5-1.8-3.2v-1.1l0.4-0.7C174.4,13,175.8,12.4,177.5,13 M83.3,13.1c0,0.1,0,0.3,0.1,0.4
					c0,0.1,0.2,0.6,0.3,1.1c0.1,0.5,0.3,1.1,0.4,1.4c0.1,0.3,0.2,0.5,0.2,0.6c0,0.1,0.1,0.3,0.2,0.6c0.1,0.3,0.3,0.9,0.4,1.3
					c0.4,1.5,0.3,1.3,1.1,1.3h0.7l0.3-1c0.2-0.6,0.4-1.4,0.6-1.8c0.1-0.5,0.3-0.9,0.3-1c0-0.1,0.1-0.4,0.2-0.6s0.1-0.4,0.2-0.4
					c0,0,0.1,0.2,0.2,0.4c0.1,0.2,0.1,0.5,0.2,0.6c0,0.1,0.2,0.5,0.3,0.8c0.1,0.3,0.3,0.8,0.3,1.1c0.1,0.3,0.2,0.5,0.2,0.6
					s0.1,0.4,0.2,0.7l0.2,0.6h0.7h0.7l0.1-0.4c0.1-0.2,0.3-1.1,0.6-1.9c1-3.1,1.3-4.2,1.4-4.4l0.1-0.3h-0.7c-0.7,0-0.7,0-0.8,0.2
					c-0.2,0.4-0.4,1.5-0.4,1.7c0,0.1,0,0.3-0.1,0.4c-0.1,0.2-0.4,1.4-0.5,2c-0.2,1-0.4,1.5-0.4,0.9c0-0.2-0.3-1.6-0.5-2.1
					c-0.1-0.4-0.4-1.4-0.6-2c0-0.2-0.1-0.5-0.2-0.7l-0.4-0.3h-0.6h-0.6l-0.2,0.6c-0.1,0.3-0.2,0.8-0.3,0.9c-0.1,0.2-0.1,0.4-0.2,0.5
					c0,0.1-0.2,0.6-0.3,1.1c-0.1,0.5-0.3,1-0.3,1.1s-0.1,0.3-0.1,0.4c0,0.3-0.1,0.7-0.2,0.7c0,0-0.1-0.1-0.1-0.2s0-0.3-0.1-0.5
					c0-0.2-0.2-0.8-0.3-1.3c-0.9-3.8-0.7-3.3-1.6-3.3h-0.7L83.3,13.1 M84.8,13.2c0,0.2,0.2,0.7,0.3,1.1c0.3,1.2,0.5,2.2,0.6,2.5
					c0,0.2,0.1,0.5,0.2,0.8c0.1,0.7,0.2,0.8,0.3,0.8c0.1,0,0.3-0.5,0.3-0.8c0-0.1,0.3-1.1,0.4-1.6c0.1-0.2,0.5-1.8,0.7-2.3
					c0.1-0.8,0.1-0.8,0.7-0.8h0.6l0.2,0.7c0.1,0.4,0.3,1.2,0.5,1.7c0.4,1.2,0.4,1.4,0.6,2.2c0.1,0.4,0.2,0.7,0.2,0.7
					c0.1,0.1,0.3-0.1,0.3-0.5c0.1-0.4,0.2-1,0.6-2.4c0-0.2,0.1-0.5,0.2-0.7c0-0.2,0.1-0.5,0.2-0.7c0-0.2,0.1-0.5,0.2-0.7l0.1-0.4
					h0.6c0.7,0,0.7-0.1,0.4,0.8c-0.1,0.3-0.4,1.1-0.5,1.7c-0.2,0.6-0.5,1.7-0.7,2.4s-0.4,1.4-0.5,1.6l-0.1,0.4h-0.7
					c-0.5,0-0.7,0-0.7-0.1s-0.1-0.4-0.2-0.7c-0.1-0.3-0.2-0.8-0.3-1.2c-0.1-0.3-0.2-0.8-0.3-1.1c-0.1-0.3-0.2-0.8-0.3-1.3
					c-0.3-1.2-0.3-1.2-0.6-0.2c-0.2,0.9-0.3,1-0.6,2.1c-0.2,0.5-0.4,1.2-0.5,1.6l-0.2,0.7h-0.6c-0.7,0-0.6,0.1-1-1
					c-0.1-0.3-0.3-1-0.4-1.4c-0.1-0.4-0.2-0.8-0.2-0.9s-0.3,0-0.4-0.3c-0.1-0.3-0.2-0.7-0.3-1.1c-0.1-0.3-0.3-0.8-0.3-1.1
					c-0.3-0.8-0.3-0.8,0.4-0.8h0.7L84.8,13.2 M175.7,13.8c-0.7,0.2-1.5,1.9-1,1.9c1.3,0.1,3.2,0,3.2-0.1c0.2-0.3-0.3-1.3-0.7-1.6
					C176.8,13.7,176.2,13.6,175.7,13.8 M77.7,13.9c-0.8,0.3-1.2,1.3-1.2,2.5c0,2.7,2.5,3.6,3.5,1.4C81,15.6,79.4,13.1,77.7,13.9
					 M110.5,13.9c-0.4,0.2-0.9,0.9-1,1.4c-0.7,2.5,1.4,4.7,3,3C114.1,16.4,112.6,12.9,110.5,13.9 M139.9,13.9
					c-2,0.9-1.5,5.1,0.6,5.1c2.5,0,2.6-5,0.1-5.1C140.4,13.8,140,13.8,139.9,13.9 M177.3,14.1c0.4,0.3,0.8,1.3,0.6,1.5
					c-0.1,0-2,0.1-3.1,0.1c-0.1,0-0.1-0.1,0-0.7C175.2,13.9,176.4,13.4,177.3,14.1 M79.1,14c0.8,0.4,1.3,1.8,1.1,2.9
					c-0.6,2.9-3.6,2.5-3.6-0.5c0-1.5,0.7-2.5,1.8-2.5C78.6,13.8,78.9,13.9,79.1,14 M111.9,14c1.3,0.5,1.6,3.1,0.5,4.3
					c-1.2,1.3-3,0.2-3-1.9C109.4,14.5,110.5,13.4,111.9,14 M126.8,14c-2,1.1-1.2,5.2,1,4.8c1.7-0.3,2.2-3.5,0.8-4.7
					C128.2,13.8,127.3,13.7,126.8,14 M141.2,14c0.5,0.2,0.7,0.5,1.1,1.4c0.4,1.1-0.1,2.9-1,3.4c-1.3,0.7-2.5-0.4-2.5-2.4
					S139.9,13.4,141.2,14 M128.3,14.1c1.3,0.7,1.4,3.6,0.1,4.4c-1.6,1.1-3.3-1.2-2.5-3.3C126.3,14.1,127.4,13.6,128.3,14.1
					 M119.2,16.3c-0.1,0-0.4,0.1-0.5,0.2c-1.2,0.5-1,2.4,0.3,2.4c1,0,1.6-0.7,1.6-1.9v-0.7H120C119.7,16.3,119.3,16.3,119.2,16.3
					 M120.4,17c0,1.8-2.3,2.6-2.5,1c-0.2-1,0.6-1.6,2-1.7h0.5V17 M41,18.3c-0.9,0.2-2.6,0.7-3.5,1c-1.8,0.8-2.6,0.8-4,0.2
					c-0.1,0-0.3-0.1-0.4-0.2c-0.1,0-0.3-0.1-0.5-0.2s-0.6-0.2-1-0.3c-0.4-0.1-0.8-0.3-0.9-0.3c-0.9-0.3-3.1-0.3-4.2,0.2
					c-0.1,0-0.3,0.1-0.5,0.2c-1.4,0.4-3.5,2-4.4,3.5c-0.5,0.8-1.1,1.9-1.1,2.1c0,0.1,0,0.2-0.1,0.2c-0.8,0.9-1,5.7-0.5,8.4
					c0.3,1.5,0.7,3,1,3.6c0.2,0.6,0.6,1.5,0.7,1.7c0.4,1,1.7,3.2,2.5,4.3c0.1,0.2,0.4,0.5,0.6,0.8c0.9,1.2,2.5,2.6,3.2,2.9
					c1.3,0.5,2.6,0.4,4.5-0.5c1.1-0.5,2.1-0.7,3.3-0.7c0.9,0,1.2,0,2.2,0.3c0.3,0.1,1,0.3,1.5,0.6c0.9,0.4,1.1,0.4,2.4,0.5H43
					l0.6-0.3c1.6-0.7,3.6-3.1,5.1-5.9c0.2-0.4,0.4-0.8,0.5-0.9c0.1-0.1,0.2-0.4,0.3-0.6c0.1-0.2,0.2-0.5,0.3-0.7
					c0.3-0.6,0.5-1.3,0.5-1.4c0,0-0.2-0.2-0.4-0.3c-4.9-2.5-6.2-8.7-2.7-12.7c0.3-0.4,0.8-0.8,0.9-1c0.2-0.1,0.4-0.3,0.5-0.4
					s0.3-0.2,0.4-0.3c0.3-0.2,0.3-0.2-0.1-0.7c-1.3-1.6-2.9-2.6-5.1-3.1C43.3,18.3,41.4,18.2,41,18.3 M43.7,18.5
					c1.3,0.3,2.3,0.7,3,1.2c0.2,0.1,0.4,0.2,0.4,0.2c0.1,0,1.7,1.5,1.9,1.8l0.1,0.2l-0.6,0.6c-1.9,1.5-3,3.3-3.3,5.7
					c-0.5,3.6,1.1,6.3,4.7,8.6c0.3,0.2,0.3,0.2-0.3,1.5c-0.5,1.4-1.3,2.8-1.9,3.6c-0.2,0.1-0.3,0.4-0.3,0.4c0,0.1-0.2,0.3-1.1,1.6
					c-1.5,2-2.7,2.7-4.6,2.7c-1.2,0-1.5,0-2.4-0.4s-1.2-0.5-1.5-0.6c-0.2,0-0.5-0.1-0.8-0.2c-1.2-0.3-3.3-0.1-4.7,0.5
					c-1.1,0.5-1.3,0.6-2.1,0.7c-0.9,0.2-1.7,0.1-2.5-0.2c-0.7-0.3-1.9-1.4-2.9-2.6c-0.9-1.1-2.4-3.3-2.4-3.5c0,0-0.1-0.3-0.2-0.5
					c-0.3-0.5-0.8-1.5-0.8-1.6c0,0-0.1-0.2-0.2-0.4c-0.3-0.6-0.6-1.4-0.7-1.9c-0.1-0.3-0.2-0.6-0.2-0.8c-0.2-0.8-0.5-2.1-0.7-3.2
					c-0.1-0.9-0.1-3.8,0-4.7c0.2-1.2,0.3-1.4,0.6-2.3c1.6-4.6,6.1-7.4,10.2-6.2c0.6,0.2,1.4,0.4,1.7,0.6c0.1,0.1,0.4,0.2,0.6,0.2
					c1.4,0.6,2.5,0.7,3.4,0.3c0.1,0,0.3-0.1,0.4-0.2c0.1,0,0.4-0.2,0.6-0.2C39.7,18.5,42.1,18.1,43.7,18.5 M124.1,26.6
					c-1.2,0.1-3.2,0.8-3.2,1.1l-0.1,0.1c-0.3,0-1.7,1.7-1.7,2c0,0.1,0,0.1-0.1,0.2s-0.3,1.2-0.4,1.8c-0.2,2.1,1.4,4.3,3.8,5.3
					c0.1,0,0.4,0.2,0.6,0.3c0.2,0.1,0.5,0.2,0.7,0.3c0.3,0.1,0.9,0.4,1.8,0.8c0.6,0.3,1.5,1.3,1.6,1.7c0.4,1.7-0.2,3.2-1.3,3.6
					c-0.1,0.1-0.3,0.1-0.4,0.2c-1.5,0.6-4.6,0.2-6.1-0.8c-0.3-0.2-0.3-0.3-0.9,1.9c-0.2,0.6-0.2,0.6,0.4,0.9c2.6,1.2,6.2,1.2,8.6,0
					c2.5-1.3,3.6-4,2.7-6.9c-0.4-1.1-1.6-2.4-3.2-3.2c-1-0.5-1.9-0.9-2.5-1.1c-0.2-0.1-0.4-0.2-0.5-0.3c-0.1-0.1-0.2-0.2-0.3-0.2
					c-0.1,0-1-0.7-1.3-0.9c-0.6-0.6-0.8-1.7-0.4-2.5c0.2-0.4,0.6-1.1,0.8-1.1c0,0,0.2-0.1,0.3-0.2c1-0.7,3.4-0.7,5.3,0.1
					c0.6,0.2,0.6,0.2,0.7-0.2c0-0.1,0.2-0.6,0.3-1.1c0.2-0.7,0.3-0.9,0.2-1c-0.2-0.2-1.1-0.5-2.1-0.7
					C127,26.7,124.6,26.6,124.1,26.6 M127.6,26.9c0.7,0.1,1.5,0.4,1.8,0.6l0.2,0.1l-0.2,0.5c-0.1,0.3-0.2,0.7-0.3,0.9
					c-0.1,0.2-0.1,0.4-0.1,0.5c0,0.1,0,0.2-0.1,0.3l-0.1,0.2l-0.6-0.2c-1.8-0.8-3.8-0.8-5.1-0.2c-1.6,0.8-2,2.7-0.8,4
					c0.3,0.4,2,1.4,2.3,1.4c0,0,0.3,0.1,0.5,0.2c0.2,0.1,0.5,0.2,0.7,0.3c4,1.8,5.3,4.1,4.2,7.7c-0.5,1.5-2.1,2.8-4.1,3.3
					c-1.2,0.3-4.2,0.3-5.4,0c-0.9-0.2-2.2-0.8-2.1-1c0,0,0.1-0.3,0.2-0.6c0.1-0.3,0.2-0.7,0.3-1c0.1-0.3,0.2-0.6,0.2-0.6
					c0-0.1,0.1-0.1,0.6,0.2c0.3,0.2,0.8,0.4,1,0.4c0.2,0.1,0.5,0.1,0.6,0.2c2.7,0.8,5.5,0,6.1-1.8c0.6-1.9-0.6-3.5-3.4-4.6
					c-4.3-1.6-6-4.2-4.8-7.5c0.7-1.9,2.5-3.2,5.1-3.5C124.8,26.7,126.9,26.8,127.6,26.9 M69.6,27.1c0,0.1-0.1,0.3-0.1,0.4
					s-0.3,0.9-0.5,1.7c-0.5,1.5-1.2,3.6-2,6.3c-0.6,1.7-1.2,3.8-2,6.2c-0.3,0.9-0.7,2.3-1,3.1c-0.7,2-0.8,1.8,1.1,1.8h1.6l0.2-0.6
					c0.2-0.7,0.6-1.9,0.8-2.8c0.1-0.3,0.3-1,0.4-1.4c0.1-0.4,0.2-0.8,0.2-0.8c0-0.2,0.2-0.2,3.4-0.2h3.1l0.3,1
					c0.3,1.1,1.3,4.1,1.4,4.5l0.1,0.2h1.6c2,0,1.8,0.1,1.5-0.7c-0.1-0.4-0.5-1.5-0.8-2.6c-0.3-1-0.8-2.4-1-3.1
					c-0.2-0.7-0.7-2.1-1-3.1c-0.3-1-0.8-2.4-1-3.1c-0.2-0.7-0.6-1.9-0.9-2.8c-0.3-0.9-0.7-2.2-1-2.9l-0.5-1.3h-1.9h-1.9L69.6,27.1
					 M73.9,28.3c0.2,0.7,0.6,1.9,0.8,2.6c0.4,1.1,0.9,2.8,2.1,6.5c0.3,0.8,0.7,2,0.9,2.7c0.2,0.6,0.4,1.4,0.5,1.7
					c0.1,0.3,0.4,1.2,0.6,2c0.8,2.4,0.9,2.7,0.9,2.7s-0.7,0.1-1.6,0.1h-1.6v-0.2c0-0.1-0.3-0.9-0.5-1.8c-0.3-0.8-0.6-2-0.8-2.5
					c-0.2-0.5-0.3-1-0.4-1.1c-0.1-0.2-6.4-0.2-6.6,0c0,0.1-0.2,0.4-0.3,0.7c-0.1,0.3-0.3,0.9-0.4,1.2c-0.1,0.3-0.3,0.8-0.3,1.1
					c-0.1,0.3-0.2,0.8-0.3,1c-0.1,0.2-0.2,0.6-0.3,0.8c0,0.2-0.1,0.4-0.2,0.5l-0.1,0.2h-1.5c-1.3,0-1.5,0-1.5-0.1
					c0-0.1,0.2-0.8,0.5-1.6c0.3-0.8,0.7-2.2,1-3.1c0.3-0.9,0.7-2.3,1-3.1c0.3-0.8,0.7-2.2,1-3.1c0.8-2.5,1.5-4.5,2-6.3
					c0.3-0.9,0.6-1.7,0.6-1.9l0.1-0.3h1.9h1.9L73.9,28.3 M137,28.9c-0.1,0.1-2,0.7-2.5,0.8c-0.1,0-0.1,0.4-0.1,1.3v1.3h-1h-1v1.2
					v1.2h1c1.2,0,1.1-0.6,1.1,4.6c0,4.7,0,4.6,0.6,5.8c0.7,1.4,2.1,1.9,4.4,1.7c1.4-0.2,1.4-0.1,1.3-1.3c-0.1-1.3-0.1-1.4-0.3-1.3
					c-1,0.3-2.4-0.1-2.7-0.8c-0.3-0.6-0.3-0.9-0.3-4.8v-3.8h1.7h1.7v-1.1v-1.1h-1.7h-1.7v-1.7C137.4,28.8,137.4,28.7,137,28.9
					 M137.4,30.6v1.7h1.7h1.7v1.1v1.1h-1.6c-0.9,0-1.7,0-1.8,0.1c-0.2,0.1-0.2,7.7,0,8.3c0.4,1.1,1.1,1.5,2.5,1.4l0.6-0.1v0.4
					c0,0.2,0.1,0.7,0.1,1.1v0.7l-0.3,0.1c-2.3,0.7-4.6,0-5.4-1.5c-0.5-1.1-0.5-1-0.6-5.8c0-2.9-0.1-4.4-0.1-4.5
					c-0.1-0.1-0.4-0.1-1-0.1h-0.9v-1.1v-1.1h1h1v-1.3c0-1.1,0-1.3,0.2-1.3c0.1,0,0.6-0.1,1.9-0.6c0.4-0.1,0.7-0.2,0.8-0.2
					C137.3,29,137.3,29.5,137.4,30.6 M71.3,29.5c0,0-0.1,0.3-0.1,0.5s-0.1,0.5-0.1,0.7c-0.1,0.2-0.2,0.7-0.6,2.1
					c-0.2,0.6-0.6,2.1-1.4,4.6c-0.1,0.4-0.2,0.8-0.2,0.9c0.1,0.1,5.3,0.2,5.3,0c0-0.1-0.1-0.7-1.2-3.8c-0.3-0.8-0.5-1.5-0.5-1.7
					s-0.1-0.6-0.2-0.9s-0.3-1-0.4-1.5C71.6,29.5,71.4,29.2,71.3,29.5 M71.7,30.3c0.1,0.4,0.2,0.9,0.3,1.1c0.1,0.3,0.2,0.7,0.3,1
					c0.1,0.3,0.4,1.2,0.6,2c1.1,3.2,1.2,3.6,1.2,3.7c-0.1,0.1-5.2,0.1-5.2,0c0,0,0.1-0.4,0.2-0.8c0.4-1.1,1.2-3.9,1.3-4.1
					c0.1-0.6,0.4-1.4,0.5-2c0.1-0.3,0.2-0.8,0.3-1c0-0.2,0.1-0.5,0.1-0.6C71.4,29.4,71.5,29.5,71.7,30.3 M89.3,32
					c-1.5,0.2-2.9,1.1-3.6,2.1c-0.3,0.5-0.4,0.4-0.4-0.7c-0.1-1.3,0.1-1.2-1.5-1.2h-1.3V42c0,5.4,0,9.8,0.1,9.9c0.1,0.2,3,0.1,3.1,0
					c0-0.1,0-1.7,0-3.7c0-3.8,0-3.8,0.4-3.2c0.9,1.2,2.8,1.8,4.8,1.4c4-0.7,6.2-5.5,4.7-10.3c-0.1-0.2-0.2-0.5-0.5-1.1
					c-0.3-0.7-1.4-1.9-2.2-2.4C91.8,32,90.6,31.8,89.3,32 M105.5,32c-1.5,0.2-2.8,1-3.5,2c-0.3,0.5-0.4,0.4-0.5-0.6
					c-0.1-1.3,0.1-1.2-1.5-1.2h-1.3V42c0,5.4,0,9.8,0.1,9.9c0.1,0.2,3,0.1,3.1,0c0-0.1,0-1.7,0-3.7c0-3.6,0-3.9,0.3-3.3
					s1.5,1.3,2.6,1.6c3.2,0.6,5.9-1.1,7-4.3c0.7-2.2,0.5-5.3-0.5-7.2C110.2,32.8,108,31.6,105.5,32 M148.7,32
					c-0.9,0.1-2.1,0.5-2.3,0.7c0,0-0.1,0.1-0.2,0.1c-0.1,0-0.2,0.1-0.8,0.5c-3,2.2-3.7,7.4-1.5,10.6c0.3,0.5,1.4,1.5,1.7,1.7
					c0.1,0.1,0.4,0.2,0.5,0.3c1.7,1.1,5.1,1,7.1-0.2c1.2-0.7,2.5-2.4,2.8-3.5c0-0.2,0.1-0.5,0.2-0.8c0.9-3.3-0.6-7.5-3.1-8.6
					c-0.7-0.3-0.9-0.4-1.4-0.5c-0.5-0.2-1.8-0.4-2.3-0.3C149.4,31.9,149.1,32,148.7,32 M165.4,32c-1.4,0.2-2.6,1.2-3.2,2.4
					c-0.3,0.7-0.4,0.6-0.4-0.8c0-1.5,0.1-1.3-1.4-1.3h-1.3v7.1v7.1h1.5h1.5v-4c0-4.4,0-4.7,0.6-5.8c0.6-1.2,1.7-1.8,3.1-1.8h0.7
					v-1.5v-1.5l-0.3-0.1C166,31.9,165.8,31.9,165.4,32 M173.6,32c-1.9,0.4-3.8,1.8-4.5,3.4c-0.1,0.1-0.2,0.4-0.2,0.6
					c-0.9,1.9-0.9,4.9-0.1,6.6c0,0.1,0.2,0.4,0.3,0.6c0.6,1.3,2,2.5,3.6,3.1c1.5,0.5,4.7,0.4,6.6-0.2c0.8-0.3,0.8-0.2,0.6-1
					c-0.1-0.3-0.2-0.8-0.2-1c-0.1-0.6-0.2-0.6-0.7-0.3c-0.7,0.3-2.6,0.5-3.7,0.5c-1.6-0.1-3-0.9-3.5-2.1c-0.4-0.8-0.4-0.9-0.5-1.6
					l-0.1-0.6h4.7c3.5,0,4.7,0,4.8-0.1c0.1-0.2,0.1-1.8,0-2.5c-0.5-3.5-2.7-5.6-5.9-5.6C174.4,31.9,173.9,32,173.6,32 M90.9,32.1
					c2.9,0.4,4.7,2.7,5.1,6.2c0.2,2-0.3,4.3-1.2,5.7c-1.1,1.5-2.1,2.3-3.8,2.6c-2,0.3-3.8-0.2-4.7-1.3c-0.4-0.5-0.4-0.6-0.5-0.5
					c-0.1,0.1-0.1,1.3-0.1,3.6c0,1.9,0,3.6,0,3.7c0,0.1-0.2,0.1-1.5,0.1h-1.5v-8.4c0-4.6,0-9.1-0.1-9.8l-0.1-1.5h1.3h1.3l0.1,0.7
					c0,0.4,0.1,0.9,0.1,1.1c0,0.5,0.3,0.6,0.5,0.1c0.5-1,2-1.8,3.5-2.1C90.2,32,90.1,32,90.9,32.1 M107.1,32.1
					c2.3,0.3,4,1.8,4.8,4.2c0.5,1.5,0.5,4.5-0.1,6c-0.4,1.1-1.8,3.2-2.1,3.2c0,0-0.3,0.1-0.6,0.3c-2.1,1.4-5.8,1-6.7-0.8
					c-0.2-0.3-0.3-0.4-0.4-0.3c0,0,0,1.7,0,3.6c0,1.9,0,3.6,0,3.7c-0.1,0.1-0.2,0.1-1.5,0.1H99v-8.3c0-4.6,0-9.1-0.1-9.8l-0.1-1.5
					h1.3c1.5,0,1.3-0.1,1.4,1.3c0.1,1,0.2,1.2,0.6,0.6c0.6-1.2,2.3-2,4.4-2.2C106.4,32,106.7,32,107.1,32.1 M150.6,32.1
					c2.6,0.3,4.8,2.1,5.3,4.3c0,0.1,0.1,0.5,0.2,0.7c0.3,1.3,0.3,3,0,4.3c-0.1,0.3-0.2,0.6-0.2,0.7c-0.3,1-2,3.4-2.5,3.4
					c0,0-0.2,0.1-0.4,0.2c-1.6,1.1-5,1.2-6.7,0.3c-1.1-0.6-2-1.4-2.4-2.1s-0.8-1.5-0.9-1.8c0-0.2-0.1-0.5-0.2-0.8
					c-0.2-0.8-0.2-3,0-3.8c0.1-0.3,0.2-0.7,0.2-0.8c0.1-0.4,0.9-1.9,1.3-2.3c1.2-1.4,2.4-2,4.3-2.3C149.6,32,149.6,32,150.6,32.1
					 M166.2,32l0.3,0.1v1.4v1.4h-0.7c-1.4-0.1-2.5,0.6-3.1,1.9c-0.5,1-0.5,1.2-0.5,5.6v4h-1.5h-1.5v-7v-7h1.2h1.2l0.1,0.3
					c0,0.1,0.1,0.7,0.1,1.3c0,1.3,0.1,1.4,0.6,0.5c0.5-1.2,1.6-2,2.9-2.3C165.8,32,165.8,32,166.2,32 M176,32.1
					c2.6,0.5,4.1,2.2,4.6,5.2c0.1,0.7,0.1,1.9,0.1,2.4l-0.1,0.3h-4.7h-4.7v0.6c0.1,3.1,3.4,4.5,7.5,3.4c0.7-0.2,0.8-0.2,0.8,0
					c0,0.1,0.1,0.5,0.2,0.9c0.1,0.4,0.2,0.7,0.2,0.8c0,0.1-0.8,0.4-1.8,0.6c-0.7,0.2-1,0.2-2.7,0.2h-1.9l-0.8-0.3
					c-3.2-1.1-4.9-4-4.5-7.6C168.8,34.1,172,31.4,176,32.1 M173.7,34.2c-1,0.4-1.9,1.2-2.3,2.4c-0.2,0.6-0.3,1.3-0.2,1.3
					c1.4,0,6.5,0,6.6,0c0.2-0.1,0.1-1.1-0.2-1.8C177,34.5,175.2,33.6,173.7,34.2 M175.6,34.2c1.1,0.3,2.2,1.9,2.2,3.2
					c0,0.4,0.2,0.4-3.3,0.4c-3.6,0-3.3,0.1-3.2-0.6C171.7,35,173.7,33.7,175.6,34.2 M148.6,34.3c-3.7,1.2-4,8.5-0.4,9.9
					c3,1.3,5.7-2.3,4.9-6.6C152.7,35.2,150.6,33.7,148.6,34.3 M150.4,34.4c2.7,0.8,3.8,5.4,1.9,8.4c-1.5,2.5-4.7,2.3-5.9-0.4
					c-1-2.1-0.7-5.2,0.6-6.9C147.7,34.5,149.2,34,150.4,34.4 M88.8,34.4c-1.6,0.3-2.4,1-3,2.5c-0.4,1.1-0.3,4.6,0.2,5.6
					c1.1,2.2,4.3,2.5,5.8,0.7c0.4-0.5,0.4-0.6,0.7-1.2c1.1-2.4,0.4-5.9-1.4-7.1C90.5,34.5,89.4,34.3,88.8,34.4 M104.8,34.4
					c-2.1,0.5-2.9,1.9-2.9,5c0,2.2,0.1,2.7,0.8,3.6c1.2,1.5,3,1.7,4.7,0.8c0.9-0.5,1.7-2,1.8-3.5c0.1-1,0.1-1.2,0-1.9
					c-0.2-1.2-0.2-1.3-0.8-2.4c-0.2-0.3-1.2-1.2-1.5-1.3C105.5,34.3,105.5,34.3,104.8,34.4 M90.5,34.7c1.5,0.6,2.4,2.2,2.4,4.7
					c0,1.4,0,1.5-0.4,2.6c-0.9,2.4-3.9,3.1-5.7,1.3c-0.4-0.4-0.5-0.6-0.9-1.4c-0.1-0.3-0.2-3.8-0.1-4.4c0.3-1.3,1.2-2.5,2.3-2.8
					c0.2-0.1,0.4-0.1,0.5-0.1C88.8,34.5,90.2,34.6,90.5,34.7 M106.7,34.7c2.3,0.8,3.2,4.8,1.7,7.7c-1.4,2.8-5.6,2.4-6.4-0.7
					c-0.2-0.8-0.1-4.1,0.1-4.7C102.8,35.1,104.9,34,106.7,34.7"/>
				<path id="path3_1_" class="st3" d="M53.7,1.4c25.7,0,67.6,0,93.1,0s4.7,0-46.6,0S28,1.4,53.7,1.4 M6.5,1.5
					C6.4,1.6,6.3,1.6,6.5,1.5c0,0.1,0.2,0,0.3,0c0.1,0,0.1-0.1,0-0.1C6.7,1.4,6.6,1.5,6.5,1.5 M193.7,1.5c0.3,0.1,0.5,0.1,0.3,0
					C193.9,1.5,193.7,1.4,193.7,1.5C193.5,1.4,193.5,1.5,193.7,1.5 M5.3,1.9C5.1,2,5,2.1,5.1,2.1c0,0,0.2-0.1,0.4-0.2
					c0.2-0.1,0.3-0.1,0.2-0.1C5.7,1.8,5.5,1.8,5.3,1.9 M4.7,2.3L4.5,2.5L4.7,2.3C5,2.2,5.1,2.1,4.9,2.1C4.9,2.1,4.8,2.2,4.7,2.3
					 M196.5,3.1c0.2,0.3,0.5,0.5,0.5,0.5S196.8,3.3,196.5,3.1c-0.2-0.3-0.4-0.5-0.4-0.5S196.3,2.8,196.5,3.1 M3.7,3.2
					c-0.4,0.5-1,1.3-1,1.5c0,0.1,0.1-0.1,0.2-0.3c0.2-0.4,0.6-0.9,1-1.3C4,3,4.1,2.8,4.1,2.8C4,2.8,3.9,2.9,3.7,3.2 M197.2,4
					c0.1,0.1,0.2,0.2,0.2,0.2S197.4,4.1,197.2,4l-0.1-0.2L197.2,4 M197.6,4.7c0.1,0.2,0.1,0.3,0.2,0.3c0-0.1-0.2-0.6-0.3-0.6
					C197.4,4.3,197.5,4.5,197.6,4.7 M197.7,5.2c0,0.1,0,0.2,0.1,0.3c0.1,0.1,0.1,0.1,0.1,0C197.9,5.4,197.9,5.3,197.7,5.2
					C197.8,5.1,197.7,5.1,197.7,5.2 M198,6c0,0.2,0.1,0.3,0.1,0.4C198.2,6.5,198.1,6,198,6C197.9,5.7,197.9,5.7,198,6 M2.3,6.1
					c0,0.1,0,0.4,0,0.5c0,0.2,0,0.1,0.1-0.2C2.4,5.9,2.4,5.7,2.3,6.1 M42.5,9.9c0,0.3,0,0.4,0,0.3c0-0.2,0-0.4,0-0.6
					C42.5,9.5,42.5,9.7,42.5,9.9 M103.9,9.7c0,0.1,0,2.4,0,5.1v5v-5.1V9.7h0.9h0.8h-0.8C104.2,9.7,103.9,9.7,103.9,9.7 M129.2,9.7
					c0,0-0.1,0.9-0.1,1.9c0,1.4,0,1.8-0.1,1.8c-0.1,0-0.1,0,0,0c0.2,0.3,0.2,0,0.2-1.8L129.2,9.7h0.8h0.8V14v4.3V14V9.7H130
					C129.6,9.7,129.2,9.7,129.2,9.7 M164.8,9.7c0,0,0.2,0.1,0.6,0c1,0,1.1-0.1,0.3-0.1C165.2,9.7,164.8,9.7,164.8,9.7 M105.6,14.8
					c0,2.8,0,3.9,0,2.5s0-3.7,0-5C105.6,10.8,105.6,12,105.6,14.8 M39.4,10C39.1,10.1,39.1,10.2,39.4,10c0.4-0.1,0.4-0.1,0.3-0.1
					C39.7,9.8,39.5,9.9,39.4,10 M66.2,10.1c0.1,0,0.3,0,0.4,0c0.1,0,0,0-0.2,0C66.2,10,66.1,10,66.2,10.1 M68.7,10.1
					c0.1,0,0.2,0,0.3,0c0.1,0,0,0-0.1,0C68.8,10.1,68.7,10,68.7,10.1 M65.6,10.1c0.1,0,0.2,0,0.3,0c0.1,0,0,0-0.1,0
					C65.6,10.1,65.5,10.1,65.6,10.1 M38.7,10.4c-0.2,0.1-0.3,0.2-0.3,0.3C38.4,10.7,38.6,10.6,38.7,10.4c0.3-0.1,0.4-0.2,0.3-0.2
					C39,10.2,38.9,10.3,38.7,10.4 M65.1,10.3c-0.1,0.3-0.1,9.4,0,9.5c0.1,0.1,0.3,0.1,0.4,0.1c0.3,0,0.3,0,0-0.1l-0.3-0.1v-4.8
					c0-2.6,0-4.8,0-4.8C65.2,10.2,65.1,10.2,65.1,10.3 M69.9,10.3c0.1,0,0.2,0.1,0.3,0.1c0.1,0,0.1,0,0-0.1
					C70,10.2,69.9,10.2,69.9,10.3C69.7,10.2,69.7,10.2,69.9,10.3 M71.2,10.8c0.1,0.1,0.5,0.4,0.7,0.7s0.5,0.4,0.4,0.3
					C72.1,11.5,71.5,10.9,71.2,10.8C71,10.7,71,10.7,71.2,10.8 M37.5,11.3c-0.3,0.3-0.6,0.6-0.7,0.8c-0.1,0.1,0,0.1,0.2-0.2
					c0.2-0.2,0.6-0.6,0.8-0.8c0.2-0.2,0.4-0.3,0.3-0.3S37.8,11.1,37.5,11.3 M42.4,11.2c0,0.2,0,0.3,0,0.3
					C42.4,11.6,42.4,11.5,42.4,11.2c0.1-0.1,0.1-0.2,0.1-0.3C42.4,10.9,42.4,11,42.4,11.2 M160.6,11.1
					C160.5,11.2,160.5,11.2,160.6,11.1c0.3,0,0.4,0.1,0.4,1v0.7h0.8c0.5,0,0.8,0,0.8,0s-0.4-0.1-0.8-0.1H161V12
					C161.1,11.1,161,10.9,160.6,11.1 M67,11.4c0.1,0,0.3,0,0.3,0C67.4,11.4,67.3,11.4,67,11.4C67,11.4,66.9,11.4,67,11.4 M68.4,11.4
					c0.1,0,0.2,0,0.3,0c0.1,0,0,0-0.1,0C68.4,11.4,68.3,11.4,68.4,11.4 M159.6,11.4C159.3,11.5,159.4,11.6,159.6,11.4
					c0.2,0,0.3,0,0.3-0.1C159.9,11.3,159.8,11.3,159.6,11.4 M66.8,15c0,2,0,2.8,0,1.8s0-2.6,0-3.6S66.8,13,66.8,15 M69.8,11.8
					c0.3,0.2,0.5,0.3,0.3,0.1C69.9,11.7,69.8,11.7,69.8,11.8C69.7,11.7,69.7,11.7,69.8,11.8 M159.4,12.2v0.6h-0.5h-0.5v0.6V14h0.5
					h0.5v2v2v-2v-2h-0.5h-0.5v-0.6v-0.6h0.5C159.4,12.8,159.4,12.8,159.4,12.2v-0.6V12.2 M176.2,12.6c0.1,0,0.3,0,0.5,0
					c0.1,0,0,0-0.2,0S176.1,12.6,176.2,12.6 M77.4,12.8C77.3,12.8,77.2,12.8,77.4,12.8c0,0.1,0.2,0,0.3,0c0.1,0,0.1-0.1,0-0.1
					C77.6,12.7,77.4,12.7,77.4,12.8 M79.2,12.8c0.1,0,0.2,0.1,0.3,0.1c0.1,0,0.1,0,0-0.1C79.3,12.7,79.2,12.7,79.2,12.8
					C79.1,12.7,79.1,12.7,79.2,12.8 M99.5,12.8c0.1,0,0.2,0.1,0.3,0.1c0.1,0,0.1,0,0-0.1C99.7,12.7,99.5,12.7,99.5,12.8
					C99.4,12.7,99.4,12.7,99.5,12.8 M112.1,12.8c0.1,0,0.2,0.1,0.3,0.1s0.1,0,0-0.1C112.2,12.7,112.1,12.7,112.1,12.8
					C112,12.7,112,12.7,112.1,12.8 M118.1,12.8c-0.2,0.1,0,0.1,0.3,0c0.2-0.1,0.2-0.1,0-0.1C118.3,12.7,118.2,12.7,118.1,12.8
					 M120,12.8c0.1,0,0.2,0.1,0.3,0.1c0.1,0,0.1,0,0-0.1C120.1,12.7,120,12.7,120,12.8C119.9,12.7,119.9,12.7,120,12.8 M126.3,12.8
					C126.2,12.8,126.2,12.8,126.3,12.8c0,0.1,0.2,0,0.3,0c0.1,0,0.1-0.1,0-0.1C126.5,12.7,126.4,12.7,126.3,12.8 M175.4,12.8
					C175.3,12.8,175.3,12.8,175.4,12.8c0,0.1,0.2,0,0.3,0s0.1-0.1,0-0.1S175.5,12.7,175.4,12.8 M177.2,12.8c0.1,0,0.2,0.1,0.3,0.1
					s0.1,0,0-0.1S177.3,12.7,177.2,12.8C177.1,12.7,177.1,12.7,177.2,12.8 M83.2,12.9c0,0.1,0,0.2,0,0.4c0.1,0.2,0.1,0.2,0-0.1V12.9
					H84c0.7,0,0.8,0,0.8,0.2c0,0.1,0.1,0.2,0.1,0.1c0,0,0-0.1-0.1-0.2C84.8,12.7,83.2,12.7,83.2,12.9 M87.6,12.9
					c-0.1,0.1-0.1,0.1-0.1,0.2S87.5,13.1,87.6,12.9c0.1,0,0.3,0,0.7-0.1h0.6h-0.6C87.9,12.8,87.6,12.8,87.6,12.9 M91.7,12.8
					C91.6,12.8,91.6,12.9,91.7,12.8C91.6,13,91.6,13,91.7,12.8c0.1,0.1,0.4,0,0.9,0h0.7h-0.8C92.2,12.8,91.8,12.8,91.7,12.8
					 M95.5,12.8c0.5,0.1,1.1,0.1,1.1,0c0,0-0.3-0.1-0.7-0.1C95.6,12.8,95.4,12.8,95.5,12.8 M146.9,12.8c0.4,0,0.7,0.1,0.7,0.1
					c0.1,0.1,0.1,0.1,0,0C147.6,12.8,147.5,12.8,146.9,12.8h-0.7H146.9 M95.2,13.3c0,0.3,0,0.4,0,0.3c0-0.1,0-0.4,0-0.5
					C95.2,12.9,95.2,13,95.2,13.3 M97.3,13.1c-0.2,0.1-0.4,0.3-0.4,0.3s0,0,0.1,0C97.1,13.4,97.3,13.2,97.3,13.1
					c0.3-0.1,0.4-0.2,0.3-0.2C97.7,12.8,97.5,13,97.3,13.1 M109.6,13c-0.1,0.1-0.3,0.2-0.4,0.3c-0.1,0.1-0.1,0.1,0,0
					C109.3,13.2,109.5,13.1,109.6,13c0.3-0.1,0.4-0.1,0.3-0.1C109.9,12.8,109.7,12.9,109.6,13 M117.4,12.9
					C117.3,13,117.3,13,117.4,12.9c0,0.1,0.2,0,0.3,0s0.1-0.1,0-0.1C117.6,12.8,117.5,12.9,117.4,12.9 M138.9,13.1
					c-0.2,0.1-0.5,0.4-0.7,0.6l-0.3,0.3l0.4-0.3c0.2-0.2,0.6-0.4,0.8-0.6c0.2-0.1,0.4-0.2,0.3-0.2C139.2,12.8,139.1,12.9,138.9,13.1
					 M148.5,13c-0.1,0.1-0.3,0.2-0.3,0.3s0,0.1,0.1,0s0.3-0.2,0.4-0.3c0.1-0.1,0.2-0.1,0.2-0.1C148.8,12.8,148.6,12.9,148.5,13
					 M166.8,13.2c-0.2,0.2-0.4,0.4-0.4,0.4s0.1-0.1,0.3-0.2c0.1-0.2,0.3-0.3,0.5-0.4c0.1-0.1,0.2-0.2,0.1-0.2
					C167.3,12.8,167.1,13,166.8,13.2 M169.7,13c0.1,0.1,0.4,0.3,0.5,0.5c0.2,0.2,0.2,0.2,0.2,0.1c-0.1-0.2-0.7-0.8-0.9-0.8
					C169.5,12.8,169.6,12.9,169.7,13 M177.7,12.9c0,0,0.1,0.1,0.3,0.2l0.3,0.1l-0.2-0.2C177.8,12.9,177.8,12.8,177.7,12.9
					C177.7,12.8,177.7,12.8,177.7,12.9 M41.8,13.1C41.7,13.4,41.7,13.5,41.8,13.1c0.1,0,0.2-0.2,0.1-0.2C42,12.9,41.9,13,41.8,13.1
					 M72.9,13c0,0.1,0,0.2,0.1,0.3c0,0.1,0.1,0.1,0.1,0C73.1,13.3,73,13.1,72.9,13C72.9,12.9,72.9,12.9,72.9,13 M125.6,13.1
					l-0.3,0.2L125.6,13.1c0.4-0.2,0.4-0.2,0.3-0.2C125.9,12.9,125.7,13,125.6,13.1 M113.2,13.1c0.3,0.3,0.9,0.8,0.7,0.5
					c-0.1-0.2-0.4-0.4-0.5-0.4C113.2,13.1,113.1,13.1,113.2,13.1 M174.3,13.4l-0.4,0.3L174.3,13.4c0.2-0.1,0.4-0.3,0.4-0.3
					C174.7,13,174.6,13.1,174.3,13.4 M75.8,13.7c-0.3,0.3-0.5,0.6-0.5,0.6s0.1,0,0.1-0.1c0.1-0.1,0.3-0.4,0.6-0.6
					c0.2-0.2,0.4-0.4,0.4-0.4S76.1,13.4,75.8,13.7 M80.8,13.6c0.2,0.2,0.4,0.4,0.5,0.4C81.1,14,81,13.8,80.8,13.6
					c-0.1-0.2-0.3-0.4-0.4-0.4C80.4,13.2,80.5,13.4,80.8,13.6 M91.5,13.4c0,0.1,0,0.2,0,0.3C91.5,13.7,91.6,13.6,91.5,13.4
					c0.1-0.1,0.1-0.2,0.1-0.2S91.5,13.3,91.5,13.4 M96.7,13.4c0,0.3,0.1,0.4,0.2,0.2c0.1-0.1,0.1-0.1,0,0
					C96.7,13.7,96.7,13.6,96.7,13.4v-0.3V13.4 M85,13.5c0,0.1,0,0.2,0.1,0.3c0,0.1,0.1,0.1,0.1,0C85.1,13.8,85.1,13.6,85,13.5
					C85,13.4,85,13.4,85,13.5 M124.9,13.8c-0.1,0.1-0.2,0.3-0.1,0.3C124.8,14.1,124.8,14,124.9,13.8c0.2-0.1,0.2-0.3,0.2-0.3
					C125.1,13.6,125,13.7,124.9,13.8 M143,13.6c0,0,0.1,0.1,0.3,0.3l0.3,0.2l-0.2-0.3C143.1,13.6,143,13.5,143,13.6 M178.7,13.9
					c0.1,0.2,0.2,0.4,0.2,0.4s0,0.1,0,0c0.1-0.1-0.2-0.5-0.3-0.7C178.5,13.6,178.6,13.7,178.7,13.9 M71.3,14
					C71.3,14.2,71.3,14.2,71.3,14c0,0,0-0.1,0-0.2C71.3,13.8,71.3,13.8,71.3,14 M87.2,14C87.1,14.4,87.2,14.4,87.2,14
					c0.1-0.1,0.1-0.2,0.1-0.2S87.2,13.9,87.2,14 M78.4,13.9c0.4,0.1,0.7,0.1,0.4,0C78.6,13.9,78.4,13.9,78.4,13.9
					C78.1,13.9,78.1,13.9,78.4,13.9 M101,14.2c0.1,0.2,0.1,0.3,0.2,0.3c0,0-0.2-0.6-0.3-0.6C100.9,13.8,100.9,14,101,14.2 M111,13.9
					c0,0,0.2,0.1,0.4,0.1s0.3,0,0.2,0C111.4,13.9,111,13.8,111,13.9 M118.3,13.9c-0.1,0,0.1,0,0.5,0c0.4,0,0.7-0.1,0.7-0.1
					C119.5,13.8,118.5,13.9,118.3,13.9 M140.2,13.9c-0.1,0,0.1,0.1,0.4,0.1c0.3,0,0.4,0,0.4-0.1c-0.1,0-0.2-0.1-0.4-0.1
					C140.5,13.8,140.3,13.9,140.2,13.9 M161.9,14h-0.8v1.9v1.9v-1.9V14H161.9c0.4,0.1,0.8,0.1,0.8,0v-0.1
					C162.7,13.9,162.3,14,161.9,14 M77.3,14.3c-0.1,0.1-0.3,0.3-0.4,0.4c-0.1,0.1-0.1,0.2-0.1,0.1C77.6,14.1,77.9,13.7,77.3,14.3
					 M89.3,14.1c0,0.1,0,0.2,0.1,0.3c0.1,0.1,0.1,0.1,0-0.1C89.3,14,89.3,13.9,89.3,14.1 M110.2,14.3c-0.1,0.1-0.3,0.4-0.4,0.5
					c-0.1,0.2-0.1,0.2,0,0C109.9,14.7,110.1,14.5,110.2,14.3c0.2-0.1,0.3-0.3,0.3-0.3C110.4,14,110.3,14.1,110.2,14.3 M111.9,14
					c0,0,0.1,0.1,0.3,0.2l0.3,0.2l-0.2-0.2C112.1,14.1,112,14,111.9,14L111.9,14 M128.2,14.1c0.3,0.2,0.6,0.4,0.7,0.7
					C129,14.9,129,15,129,15c0.1-0.1-0.7-1.1-1-1.1C128,14,128.1,14.1,128.2,14.1 M139.5,14.3c-0.3,0.3-0.5,0.7-0.5,0.7
					s0.1-0.1,0.1-0.2C139.2,14.7,139.4,14.4,139.5,14.3c0.2-0.2,0.3-0.3,0.3-0.3S139.7,14.1,139.5,14.3 M148.8,14.1
					c-0.1,0.1-0.2,0.1-0.2,0.2C148.6,14.4,148.6,14.3,148.8,14.1c0.1,0,0.3,0,0.4-0.1c0.1,0,0.1,0,0,0C149,14,148.9,14.1,148.8,14.1
					 M167.3,14.1C167.2,14.2,167.2,14.2,167.3,14.1c0.4-0.1,0.5-0.1,0.3-0.1C167.5,14,167.4,14,167.3,14.1 M175.3,14.2l-0.2,0.2
					L175.3,14.2c0.2-0.1,0.3-0.2,0.3-0.2l0,0C175.5,14,175.4,14.1,175.3,14.2 M73.2,14.8c0,0.4,0,0.5,0,0.4c0-0.2,0-0.5,0-0.7
					C73.2,14.2,73.2,14.4,73.2,14.8 M85.1,14.2c0,0.1,0,0.2,0.1,0.3c0,0.1,0.1,0.1,0.1,0S85.3,14.3,85.1,14.2
					C85.2,14.1,85.1,14.1,85.1,14.2 M121.8,14.3c0,0.1,0,0.2,0.1,0.3c0,0.1,0.1,0.1,0.1,0C121.9,14.5,121.9,14.4,121.8,14.3
					C121.8,14.2,121.8,14.2,121.8,14.3 M141.7,14.4c0.1,0.1,0.2,0.3,0.2,0.3C142,14.7,141.8,14.4,141.7,14.4
					C141.5,14.2,141.6,14.2,141.7,14.4 M137.6,14.5c-0.1,0.1-0.1,0.3-0.1,0.3C137.5,14.8,137.6,14.7,137.6,14.5
					C137.8,14.2,137.8,14.2,137.6,14.5 M146.2,17c0,1.6,0,2.2,0,1.4c0-0.8,0-2.1,0-2.8C146.2,14.8,146.2,15.5,146.2,17 M152.2,14.4
					c0,0.1,0,0.2,0.1,0.3c0,0.1,0.1,0.1,0.1,0C152.3,14.7,152.3,14.6,152.2,14.4C152.2,14.4,152.2,14.3,152.2,14.4 M177.6,14.6
					c0.1,0.2,0.2,0.3,0.2,0.3s-0.2-0.5-0.3-0.5C177.5,14.3,177.5,14.5,177.6,14.6 M166.6,14.9c-0.1,0.1-0.1,0.3-0.1,0.4
					c0,0.1,0,0.1,0.1-0.1c0-0.1,0.1-0.3,0.2-0.4c0.1-0.1,0.1-0.2,0.1-0.2C166.7,14.7,166.6,14.8,166.6,14.9 M85.3,14.9
					c0,0.1,0,0.3,0.1,0.4c0.1,0.1,0.1,0.1,0-0.2C85.4,14.7,85.3,14.6,85.3,14.9 M101.2,17.3v2.6h-0.8h-0.8v-2.3v-2.3v2.3
					c0,2.7-0.1,2.5,0.9,2.5C101.4,19.9,101.3,20.2,101.2,17.3v-2.6V17.3 M86.8,15.1c0,0.1,0,0.2,0,0.3
					C86.8,15.4,86.9,15.3,86.8,15.1c0.1-0.1,0.1-0.2,0.1-0.2S86.9,15,86.8,15.1 M122,16.9c0,1.1,0,1.5,0,1c0-0.6,0-1.5,0-2
					C122,15.3,122,15.8,122,16.9 M179.2,15.7c0.1,1.1,0.2,1-2.3,1.1h-2.1h2.1c2.5,0,2.4,0.1,2.4-0.9c0-0.4,0-0.7-0.1-0.8
					C179.2,15,179.2,15.3,179.2,15.7 M177.8,15.3v0.2h-1.4c-1,0-1.5,0-1.5-0.1c-0.1-0.1-0.1-0.1,0,0s0.2,0.1,1.6,0.1
					C177.8,15.6,177.8,15.6,177.8,15.3C177.8,15.1,177.8,15.1,177.8,15.3 M91,15.4c0,0.1,0,0.2,0,0.3C91,15.7,91.1,15.6,91,15.4
					c0.1-0.1,0.1-0.2,0.1-0.2S91,15.3,91,15.4 M152.4,17.5c0,1.3,0,1.8,0,1.1s0-1.7,0-2.3C152.4,15.6,152.4,16.2,152.4,17.5
					 M173.1,15.4c0,0.1,0,0.3,0,0.3S173.2,15.6,173.1,15.4C173.3,15.1,173.2,15.1,173.1,15.4 M96.9,17.5v2.3h-0.7
					c-0.5,0-0.8,0-0.8-0.1c-0.1-0.1-0.1-0.1,0,0c0,0.2,1.5,0.2,1.6,0.1C96.9,19.7,97,19.1,96.9,17.5v-2.3V17.5 M119.4,15.3
					c0.1,0,0.3,0,0.4,0s0,0-0.2,0C119.3,15.3,119.3,15.3,119.4,15.3 M139,15.4c0,0.1,0,0.2,0,0.3s0,0,0.1-0.1
					C139.1,15.3,139.1,15.2,139,15.4 M40.2,15.6c-0.1,0.1-0.5,0.4-0.7,0.7c-0.3,0.2-0.3,0.3-0.2,0.2c0.4-0.3,1.3-1.1,1.2-1.1
					C40.5,15.4,40.3,15.5,40.2,15.6 M71.3,15.6C71.3,15.8,71.3,15.8,71.3,15.6v-0.2C71.3,15.4,71.3,15.4,71.3,15.6 M76.6,15.5
					c0,0.1,0,0.3,0,0.4c0,0.1,0,0,0.1-0.2C76.7,15.4,76.7,15.2,76.6,15.5 M88,15.6c0,0.1,0,0.2,0,0.3C88,15.8,88.1,15.7,88,15.6
					c0.1-0.1,0.1-0.2,0.1-0.2C88.1,15.3,88,15.4,88,15.6 M88.3,15.4c0,0.1,0,0.2,0.1,0.3c0,0.1,0.1,0.1,0.1,0
					C88.5,15.7,88.4,15.6,88.3,15.4C88.3,15.4,88.3,15.3,88.3,15.4 M107.8,15.6c-0.1,0.4-0.1,1.2,0,1.6c0,0.1,0.1-0.2,0.1-0.8
					C107.8,15.2,107.8,15.2,107.8,15.6 M118.6,15.4C118.5,15.5,118.5,15.5,118.6,15.4c0,0.1,0.2,0,0.3,0c0.1,0,0.1-0.1,0-0.1
					C118.8,15.3,118.7,15.4,118.6,15.4 M129.1,16.3c0,0.5,0,0.7,0,0.5c0-0.3,0-0.7,0-1C129.2,15.5,129.1,15.7,129.1,16.3
					 M150.7,17.6c0,2.6-0.1,2.4,0.9,2.3h0.7h-0.8h-0.8L150.7,17.6v-2.3V17.6 M147.9,17.6v2.2h-0.8h-0.8h0.8
					C148,19.9,147.9,20.2,147.9,17.6v-2.2V17.6 M114.6,15.8C114.6,16,114.6,16,114.6,15.8c0,0,0-0.1,0-0.2
					C114.7,15.5,114.6,15.6,114.6,15.8 M85.5,15.7c0,0.1,0,0.2,0.1,0.3c0,0.1,0.1,0.1,0.1,0C85.6,15.9,85.6,15.8,85.5,15.7
					C85.5,15.6,85.5,15.6,85.5,15.7 M137.2,15.9c0,0.2,0,0.3,0,0.2c0-0.1,0-0.3,0-0.4C137.2,15.6,137.2,15.7,137.2,15.9 M142.3,15.9
					C142.3,16.1,142.3,16.1,142.3,15.9c0,0,0-0.1,0-0.2C142.3,15.7,142.3,15.8,142.3,15.9 M144,16.3c0,0.3,0,0.5,0,0.3
					c0-0.2,0-0.5,0-0.6C144.1,15.8,144,15.9,144,16.3 M125.8,16.3c0,0.3,0,0.7,0.1,0.8c0,0.1,0-0.2,0-0.5
					C125.8,15.7,125.8,15.5,125.8,16.3 M80.1,16.3c0,0.3,0,0.4,0,0.3c0-0.1,0-0.4,0-0.5C80.1,15.9,80.1,16,80.1,16.3 M81.7,16.3
					c0,0.2,0,0.3,0,0.2s0-0.3,0-0.4C81.8,16,81.7,16.1,81.7,16.3 M109.4,16.3c0,0.3,0,0.4,0,0.2c0-0.1,0-0.3,0-0.5
					C109.4,16,109.4,16.1,109.4,16.3 M113,16.3c0,0.2,0,0.3,0,0.2s0-0.3,0-0.4S113,16.1,113,16.3 M117,16.3l-0.3,0.4L117,16.3
					c0.2-0.2,0.4-0.3,0.4-0.3C117.4,15.9,117.3,15.9,117,16.3 M72.9,16.4c0,0.1,0,0.2,0,0.3C72.9,16.7,73,16.6,72.9,16.4
					c0.1-0.1,0.1-0.2,0.1-0.2S73,16.3,72.9,16.4 M84.1,16.3c0,0.2,0.1,0.6,0.1,0.4C84.3,16.6,84.3,16.5,84.1,16.3
					C84.2,16.3,84.1,16.3,84.1,16.3 M85.6,16.3c0,0.1,0,0.2,0.1,0.3c0,0.1,0.1,0.1,0.1,0C85.8,16.6,85.8,16.5,85.6,16.3
					C85.7,16.3,85.6,16.3,85.6,16.3 M120,16.4h0.3v0.7v0.7V17v-0.8L120,16.4h-0.3H120 M71,16.7c-0.1,0.2-0.1,0.3-0.1,0.3
					c0.1,0,0.3-0.5,0.3-0.5C71.2,16.4,71.1,16.6,71,16.7 M142.3,16.6c0,0.1,0,0.3-0.1,0.5v0.2l0.1-0.2
					C142.3,17,142.3,16.8,142.3,16.6v-0.3V16.6 M137.2,16.8C137.2,17,137.2,17,137.2,16.8v-0.2C137.2,16.5,137.2,16.6,137.2,16.8
					 M34.9,17.2c0,0.3,0,0.5,0,0.3c0-0.2,0-0.5,0-0.6C34.9,16.7,34.9,16.8,34.9,17.2 M76.6,16.9c0,0.1,0,0.2,0.1,0.3
					C76.7,17.4,76.7,17.2,76.6,16.9C76.6,16.8,76.6,16.7,76.6,16.9 M90.1,17c0,0.1,0,0.2,0.1,0.3c0,0.1,0.1,0.1,0.1,0
					C90.3,17.3,90.3,17.1,90.1,17C90.2,16.9,90.1,16.9,90.1,17 M124.1,17.1c0,0.1,0,0.3,0.1,0.4c0.1,0.1,0.1,0.1,0-0.2
					C124.2,16.9,124.1,16.8,124.1,17.1 M139,17.1c0,0.1,0,0.2,0.1,0.3s0.1,0.1,0-0.1C139,16.9,139,16.8,139,17.1 M86.2,17.5
					c-0.1,0.3-0.1,0.4-0.1,0.3c-0.1-0.2-0.1-0.2-0.1,0c0,0.1,0,0.2,0.1,0.2c0.1,0.1,0.3-0.6,0.2-0.8C86.3,17.2,86.2,17.3,86.2,17.5
					 M137.3,17.4c0,0.1,0,0.2,0.1,0.3c0,0.1,0.1,0.1,0.1,0C137.4,17.7,137.4,17.6,137.3,17.4C137.3,17.4,137.3,17.3,137.3,17.4
					 M129,17.7c-0.1,0.2-0.2,0.4-0.4,0.5s-0.3,0.3-0.2,0.3C128.5,18.5,129.1,17.9,129,17.7C129.2,17.4,129.1,17.4,129,17.7
					 M116.3,17.9C116.3,18.1,116.3,18.1,116.3,17.9v-0.2C116.3,17.6,116.3,17.7,116.3,17.9 M90.3,17.8c0,0.1,0,0.2,0.1,0.2
					C90.5,18.1,90.5,18,90.3,17.8C90.3,17.6,90.3,17.6,90.3,17.8 M112.4,18c-0.1,0.2-0.2,0.3-0.2,0.3c0.1,0,0.5-0.6,0.5-0.6
					S112.6,17.8,112.4,18 M175.1,17.9c0.1,0.2,0.6,0.6,0.7,0.6c0,0-0.1-0.1-0.2-0.2C175.4,18.2,175.2,18,175.1,17.9l-0.1-0.2
					L175.1,17.9 M35,17.9c0.1,0,0.2,0.1,0.4,0.1c0.3,0,0.3,0-0.2-0.1C35,17.9,34.9,17.9,35,17.9 M35.9,17.9c0.1,0,0.2,0,0.3,0
					c0.1,0,0,0-0.1,0C35.8,17.9,35.8,17.9,35.9,17.9 M69.9,18c-0.1,0.1-0.2,0.2-0.2,0.2c0.1,0,0.5-0.3,0.5-0.3
					C70.2,17.8,70.1,17.9,69.9,18 M79.4,18.3c-0.2,0.2-0.2,0.3-0.1,0.2c0.2-0.1,0.5-0.6,0.5-0.6C79.7,17.9,79.5,18.1,79.4,18.3
					 M71.7,18.6c-0.3,0.2-0.4,0.4-0.3,0.3c0.2-0.1,0.9-0.9,0.9-0.8C72.2,18.1,72,18.3,71.7,18.6 M77.3,18.4c0.2,0.2,0.3,0.3,0.3,0.3
					C77.7,18.6,77.5,18.5,77.3,18.4L77,18.1L77.3,18.4 M139.4,18.3c0.1,0.1,0.3,0.3,0.4,0.3C140,18.7,140,18.7,139.4,18.3l-0.2-0.2
					L139.4,18.3 M141.5,18.4c-0.2,0.2-0.3,0.3-0.2,0.3C141.3,18.7,141.5,18.6,141.5,18.4C142,18,141.9,18,141.5,18.4 M42.5,18.2
					c0.1,0,0.3,0,0.4,0c0.1,0,0,0-0.2,0C42.4,18.2,42.4,18.2,42.5,18.2 M143.4,18.5c-0.1,0.2-0.4,0.5-0.6,0.7
					c-0.2,0.2-0.3,0.3-0.1,0.2c0.3-0.2,1.1-1.2,1-1.2C143.6,18.2,143.5,18.3,143.4,18.5 M28.8,18.3c0.2,0,0.5,0,0.6,0
					c0.2,0,0,0-0.3,0C28.7,18.3,28.6,18.3,28.8,18.3 M137.7,18.5c0.1,0.1,0.2,0.3,0.3,0.4c0.1,0.1,0,0-0.1-0.2
					C137.6,18.2,137.6,18.2,137.7,18.5 M161.4,18.5c0.2,0.1,0.3,0.2,0.6,0.2h0.4l-0.4-0.1C161.7,18.6,161.5,18.5,161.4,18.5
					C161.3,18.4,161.3,18.4,161.4,18.5 M27.5,18.4c-0.3,0.1,0,0.1,0.4,0c0.2-0.1,0.2-0.1,0-0.1C27.8,18.4,27.6,18.4,27.5,18.4
					 M30.2,18.4c0.1,0,0.3,0.1,0.4,0.1s0.1,0,0-0.1C30.4,18.4,30.2,18.4,30.2,18.4C30,18.4,30,18.4,30.2,18.4 M39.9,18.4
					C39.7,18.5,39.7,18.5,39.9,18.4c0.1,0.1,0.2,0,0.3,0C40.4,18.3,40.2,18.3,39.9,18.4 M43.9,18.4c0.1,0,0.2,0.1,0.3,0.1
					c0.1,0,0.1,0,0-0.1C43.9,18.3,43.6,18.3,43.9,18.4 M159.4,18.4c0,0.1,0,0.2,0.1,0.3c0,0.1,0.1,0.1,0.1,0
					C159.6,18.7,159.5,18.6,159.4,18.4C159.5,18.4,159.4,18.3,159.4,18.4 M178.4,18.4C178.2,18.5,178.2,18.5,178.4,18.4
					c0.2,0,0.2,0.1,0.3,0.3c0.1,0.1,0.1,0.2,0.1,0.2c0-0.1-0.2-0.5-0.2-0.5C178.6,18.3,178.5,18.4,178.4,18.4 M116.4,18.5
					c0,0.1,0.2,0.6,0.3,0.6c0,0,0-0.1-0.1-0.2C116.5,18.7,116.5,18.6,116.4,18.5C116.4,18.4,116.4,18.4,116.4,18.5 M130.9,19.1v0.7
					h-0.7h-0.7v-0.5c0-0.5-0.1-0.6-0.3-0.4c-0.1,0.1-0.1,0.1,0,0.1s0.1,0,0.2,0.4v0.4h0.7C131,19.9,131,20,130.9,19.1v-0.7V19.1
					 M162.5,18.6c0.1,0.1,0.1,0.3,0.1,0.7c0,0.6,0,0.6-0.6,0.7c-0.2,0-0.2,0,0.1,0C162.7,20,163,18.9,162.5,18.6
					C162.4,18.5,162.4,18.5,162.5,18.6 M177.8,18.6C177.7,18.6,177.7,18.7,177.8,18.6c0.1,0.1,0.2,0,0.3,0
					C178.3,18.5,178,18.5,177.8,18.6 M67.2,18.6c0.2,0,0.6,0,0.8,0c0.2,0,0,0-0.4,0C67.2,18.6,67,18.6,67.2,18.6 M80.7,19.1
					l-0.5,0.5L80.7,19.1c0.3-0.2,0.5-0.4,0.5-0.5C81.1,18.5,81.1,18.6,80.7,19.1 M77.9,18.8c0.1,0.1,0.8,0.1,0.7,0
					c0,0-0.2-0.1-0.4-0.1C77.9,18.7,77.8,18.7,77.9,18.8 M108.7,19.1c0.2,0.2,0.4,0.4,0.5,0.4C109.2,19.5,109.1,19.3,108.7,19.1
					c-0.1-0.2-0.3-0.4-0.4-0.4C108.4,18.7,108.5,18.9,108.7,19.1 M111.2,18.8l-0.4,0.1L111.2,18.8c0.1,0.1,0.3,0,0.4,0
					c0.1,0,0.1-0.1,0-0.1C111.6,18.7,111.4,18.7,111.2,18.8 M118.6,18.8c0.1,0.1,0.7,0.1,0.7,0c0,0-0.2-0.1-0.4-0.1
					C118.6,18.7,118.6,18.7,118.6,18.8 M140.1,18.8c0.1,0,0.2,0.1,0.4,0.1s0.4,0,0.4-0.1c0.1,0-0.1-0.1-0.4-0.1
					C140.3,18.7,140.1,18.7,140.1,18.8 M176.7,18.7c0.2,0,0.4,0,0.5,0s0,0-0.3,0C176.6,18.7,176.5,18.7,176.7,18.7 M75.8,19
					c0.2,0.2,0.3,0.3,0.3,0.3C76.2,19.3,76.1,19.2,75.8,19c-0.1-0.2-0.2-0.3-0.2-0.3S75.7,18.9,75.8,19 M174,19
					c0.2,0.2,0.3,0.3,0.3,0.3C174.4,19.3,174.3,19.2,174,19c-0.1-0.2-0.2-0.3-0.2-0.3C173.8,18.8,173.9,18.9,174,19 M91.4,19
					c0,0.1,0,0.2,0,0.3c0,0.1,0,0,0.1-0.1C91.5,19,91.4,18.8,91.4,19 M122.1,19.3C122.1,19.5,122.1,19.5,122.1,19.3v-0.2
					C122.1,19,122.1,19.1,122.1,19.3 M124.9,19c0,0,0.1,0.1,0.3,0.3l0.3,0.2l-0.2-0.3C125,19,124.9,19,124.9,19 M85,19.2
					c0,0.1,0,0.2,0.1,0.3c0,0.1,0.1,0.1,0.1,0C85.1,19.4,85.1,19.3,85,19.2C85,19.1,85,19.1,85,19.2 M128.8,19.4l-0.2,0.3
					L128.8,19.4c0.3-0.2,0.3-0.3,0.3-0.3C129.1,19.2,129,19.3,128.8,19.4 M46.6,19.5c0.1,0.1,0.2,0.2,0.3,0.2l0.2,0.1l-0.2-0.1
					C46.9,19.6,46.7,19.5,46.6,19.5l-0.2-0.1L46.6,19.5 M142.2,19.6C141.9,19.8,141.9,19.9,142.2,19.6c0.2,0,0.3-0.1,0.3-0.1
					C142.4,19.5,142.4,19.5,142.2,19.6 M174.7,19.5c0,0.1,0.5,0.3,0.5,0.3s-0.1-0.1-0.3-0.2C174.8,19.6,174.7,19.5,174.7,19.5
					 M91.2,19.7c0,0.1-0.2,0.1-0.8,0.2h-0.7h0.7C91.1,19.9,91.5,19.8,91.2,19.7C91.3,19.6,91.2,19.6,91.2,19.7 M121.4,19.8l-0.7,0.1
					L121.4,19.8c0.4,0.1,0.7,0,0.7,0v-0.1C122.1,19.8,121.8,19.8,121.4,19.8 M126,19.8c0,0,0.2,0.1,0.4,0.1c0.2,0,0.3,0,0.2,0
					s-0.3-0.1-0.4-0.1C126,19.8,125.9,19.8,126,19.8 M164.8,19.9c0,0,0.4,0.1,0.8,0.1c0.4,0,0.8,0,0.8-0.1c0,0-0.3-0.1-0.8-0.1
					S164.8,19.8,164.8,19.9 M169.3,19.9c0,0,0.4,0.1,0.8,0h0.7H170C169.6,19.8,169.3,19.8,169.3,19.9 M23.8,20.1
					c-0.2,0.1-0.4,0.3-0.5,0.4c-0.1,0.1,0,0.1,0.2-0.1S23.9,20,24,20c0.1-0.1,0.2-0.1,0.2-0.1C24.1,19.8,24,19.9,23.8,20.1
					 M35.3,19.9C35.1,20,35.1,20,35.3,19.9c0.1,0.1,0.3,0,0.4,0C35.9,19.8,35.6,19.8,35.3,19.9 M77.2,19.9c0.2,0.1,0.7,0.1,0.6,0.1
					c0,0-0.2-0.1-0.4-0.1C77.1,19.9,77.1,19.9,77.2,19.9 M79.1,19.9C78.8,20,78.8,20,79.1,19.9c0.1,0.1,0.3,0,0.4,0
					C79.6,19.8,79.5,19.8,79.1,19.9 M85.6,19.9c0.2,0,0.5,0,0.7,0c0.2,0,0,0-0.4,0C85.5,19.9,85.4,19.9,85.6,19.9 M104.4,19.9
					c0.2,0,0.6,0,0.8,0c0.2,0,0,0-0.4,0C104.3,19.9,104.2,19.9,104.4,19.9 M127.8,19.9C127.6,20,127.6,20,127.8,19.9
					c0.1,0.1,0.2,0,0.3,0C128.3,19.8,128.2,19.8,127.8,19.9 M139.4,19.9c0.2,0.1,0.7,0.1,0.6,0.1c0,0-0.2-0.1-0.4-0.1
					C139.4,19.9,139.3,19.9,139.4,19.9 M160.6,19.9c0.1,0,0.2,0.1,0.3,0.1C161.2,20,161.1,20,160.6,19.9
					C160.6,19.9,160.5,19.9,160.6,19.9 M175.5,19.9c0.2,0.1,1.1,0.1,1.1,0.1s-0.3-0.1-0.7-0.1C175.6,19.9,175.4,19.9,175.5,19.9
					 M177.3,19.9l-0.6,0.1L177.3,19.9c0.3,0.1,0.6,0,0.8,0C178.2,19.8,178.1,19.8,177.3,19.9 M66.5,20c0.4,0,1,0,1.4,0s0.1,0-0.7,0
					C66.4,20,66.1,20,66.5,20 M141.1,20c0.1,0,0.2,0,0.3,0s0,0-0.1,0C141.2,20,141,20,141.1,20 M48.3,20.8c0.8,0.9,0.9,1,0.6,0.6
					c-0.1-0.2-0.5-0.5-0.7-0.8C47.8,20.2,47.8,20.2,48.3,20.8 M22.5,21.4c-0.5,0.5-0.8,0.9-0.4,0.5c0.4-0.4,0.9-1.1,0.9-1.1
					S22.8,21.1,22.5,21.4 M48.8,22.4c-0.3,0.2-0.5,0.4-0.5,0.4S48.5,22.7,48.8,22.4c0.1-0.1,0.4-0.2,0.4-0.3c0.1,0,0.1-0.1,0.1-0.1
					S49.1,22.2,48.8,22.4 M21.6,22.6c-0.3,0.4-0.4,0.7-0.4,0.7s0.2-0.2,0.3-0.5C21.9,22.2,21.9,22.1,21.6,22.6 M47.8,23.2
					c-0.2,0.2-0.3,0.4-0.3,0.4S47.7,23.4,47.8,23.2c0.3-0.2,0.4-0.4,0.4-0.4C48.2,22.8,48,23,47.8,23.2 M20.9,23.8
					c-0.1,0.2-0.2,0.4-0.2,0.5C20.7,24.2,20.8,24,20.9,23.8c0.2-0.2,0.3-0.4,0.3-0.4C21.1,23.3,21,23.5,20.9,23.8 M47,24.2
					c-0.2,0.3-0.3,0.4-0.3,0.4S46.8,24.5,47,24.2C47.2,24,47.2,23.9,47,24.2 M45.9,25.8c-0.1,0.1-0.1,0.3-0.1,0.3
					C45.9,26.2,45.9,26,45.9,25.8C46.2,25.5,46.1,25.5,45.9,25.8 M20.1,26.1c0,0.1,0,0.2,0,0.3C20.1,26.4,20.1,26.3,20.1,26.1
					c0.1-0.1,0.1-0.2,0.1-0.2C20.1,25.9,20.1,26,20.1,26.1 M124.2,26.6c0.1,0,0.3,0,0.3,0C124.6,26.6,124.5,26.6,124.2,26.6
					C124.1,26.5,124.1,26.5,124.2,26.6 M126.2,26.6c0.1,0,0.3,0,0.4,0s0,0-0.2,0C126.2,26.5,126.1,26.5,126.2,26.6 M19.9,26.9
					c0,0.2,0,0.3,0,0.3S19.9,27.1,19.9,26.9c0.1-0.1,0.1-0.2,0.1-0.3C20,26.6,19.9,26.7,19.9,26.9 M122.9,26.8
					C122.7,26.8,122.7,26.8,122.9,26.8c0.1,0.1,0.2,0,0.3,0C123.4,26.7,123.3,26.7,122.9,26.8 M45.5,26.9c0,0.1,0,0.2,0,0.3
					s0,0,0.1-0.1C45.7,26.8,45.6,26.7,45.5,26.9 M70.6,26.8c0.5,0,1.4,0,2,0c0.6,0,0.1,0-1,0C70.5,26.8,70,26.8,70.6,26.8 M128.9,27
					c0,0.1,0.6,0.3,0.7,0.3l0,0c0,0-0.2-0.1-0.3-0.1C129,27.1,128.9,27,128.9,27 M19.8,27.8C19.8,28,19.8,28,19.8,27.8
					c0,0,0-0.1,0-0.2C19.8,27.6,19.8,27.7,19.8,27.8 M120.1,28.3c-0.2,0.2-0.3,0.4-0.3,0.4S120,28.5,120.1,28.3
					c0.3-0.2,0.4-0.4,0.4-0.4S120.3,28.1,120.1,28.3 M19.7,28.8c0,0.3,0,0.4,0,0.3s0-0.4,0-0.5C19.7,28.3,19.7,28.5,19.7,28.8
					 M45.3,29.1c0,0.2,0,0.3,0,0.2s0-0.3,0-0.4C45.3,28.9,45.3,29,45.3,29.1 M137.5,30.5v1.7h1.7h1.7h-1.6h-1.6L137.5,30.5v-1.7
					V30.5 M124.8,29.1c0.2,0,0.6,0,0.8,0c0.2,0,0,0-0.4,0S124.6,29.1,124.8,29.1 M129.2,29.2c0,0.1,0,0.2,0,0.3s0,0,0.1-0.1
					C129.3,29.1,129.3,29,129.2,29.2 M126.9,29.3c0.1,0,0.2,0.1,0.3,0.1s0.1,0,0-0.1C127.1,29.3,126.9,29.3,126.9,29.3
					C126.8,29.3,126.8,29.3,126.9,29.3 M122.5,30l-0.2,0.3L122.5,30c0.2-0.1,0.4-0.2,0.4-0.3l0,0C122.9,29.7,122.6,29.9,122.5,30
					 M128.6,29.9c0.3,0.1,0.5,0.1,0.5-0.1c0-0.1,0-0.1-0.1,0C129,29.9,128.9,29.9,128.6,29.9C128.4,29.8,128.4,29.8,128.6,29.9
					 M19.7,30.4c0,0.3,0,0.4,0,0.3c0-0.2,0-0.4,0-0.6C19.7,29.9,19.7,30,19.7,30.4 M71.3,30.2c0,0.1,0,0.2,0,0.3
					C71.3,30.5,71.3,30.4,71.3,30.2c0.1-0.1,0.1-0.2,0.1-0.2C71.3,30,71.3,30.1,71.3,30.2 M71.6,30.1c0,0.1,0,0.2,0.1,0.3
					c0,0.1,0.1,0.1,0.1,0C71.7,30.3,71.7,30.2,71.6,30.1C71.6,30,71.6,30,71.6,30.1 M19.8,31.3c0,0.2,0,0.3,0,0.2s0-0.3,0-0.4
					S19.8,31.1,19.8,31.3 M45.5,31.2c0,0.1,0,0.3,0.1,0.3C45.7,31.6,45.7,31.5,45.5,31.2C45.5,31,45.5,30.9,45.5,31.2 M70.9,31.5
					c0,0.1,0,0.2,0,0.3C70.9,31.7,71,31.6,70.9,31.5c0.1-0.1,0.1-0.2,0.1-0.2S71,31.3,70.9,31.5 M71.9,31.3c0,0.1,0,0.2,0.1,0.3
					c0,0.1,0.1,0.1,0.1,0C72.1,31.6,72,31.5,71.9,31.3C71.9,31.3,71.9,31.2,71.9,31.3 M121.8,31.7C121.8,31.9,121.8,31.9,121.8,31.7
					c0,0,0-0.1,0-0.2S121.8,31.5,121.8,31.7 M118.7,32c0,0.3,0,0.4,0,0.3c0-0.1,0-0.4,0-0.5C118.7,31.6,118.7,31.7,118.7,32
					 M72.1,31.9c0,0.1,0,0.2,0.1,0.3c0,0.1,0.1,0.1,0.1,0C72.2,32.2,72.2,32,72.1,31.9C72.1,31.8,72.1,31.8,72.1,31.9 M90,31.9
					c0.1,0,0.3,0,0.4,0s0,0-0.2,0C90,31.8,89.9,31.9,90,31.9 M106.3,31.9c0.1,0,0.3,0,0.4,0s0,0-0.2,0
					C106.3,31.8,106.2,31.9,106.3,31.9 M149.4,31.9c0.1,0,0.3,0,0.5,0c0.1,0,0,0-0.2,0C149.4,31.9,149.3,31.9,149.4,31.9
					 M165.7,31.9c0.1,0,0.3,0,0.3,0C166.1,31.9,166,31.9,165.7,31.9C165.7,31.8,165.6,31.9,165.7,31.9 M174.5,31.9
					c0.2,0,0.6,0,0.8,0c0.2,0,0,0-0.4,0C174.4,31.9,174.3,31.9,174.5,31.9 M105,32C104.9,32,104.9,32.1,105,32c0.1,0.1,0.2,0,0.3,0
					c0.2-0.1,0.2-0.1,0-0.1C105.3,31.9,105.2,32,105,32 M150.8,32c0.4,0.1,0.7,0.1,0.4,0C151.1,32,150.9,31.9,150.8,32
					C150.6,31.9,150.6,31.9,150.8,32 M164.8,32C164.7,32,164.7,32.1,164.8,32c0,0.1,0.2,0,0.3,0c0.1,0,0.1-0.1,0-0.1
					C165,31.9,164.9,32,164.8,32 M166.7,33.4c0,1.1,0,1.5-0.1,1.6c-0.1,0.1-0.1,0.1,0,0.1s0.2-2.8,0.1-3
					C166.7,32,166.6,32.6,166.7,33.4 M176.1,32c0.3,0.1,0.5,0.1,0.3,0C176.3,32,176.1,31.9,176.1,32C175.9,31.9,175.9,31.9,176.1,32
					 M147.4,32.2C147.3,32.2,147.3,32.2,147.4,32.2c0,0.1,0.2,0,0.3,0s0.1-0.1,0-0.1C147.6,32.1,147.5,32.1,147.4,32.2 M82.4,32.2
					c-0.1,0-0.1,0.1-0.1,0.3v0.2l0.1-0.2V32.2l1.5,0.1c0.8,0,1.4,0,1.4-0.1C85.2,32.2,82.6,32.1,82.4,32.2 M98.7,32.3
					c-0.1,0.1-0.1,0.2-0.1,0.3s0,0.1,0.1,0V32.3h1.4h1.4h-1.3C99.2,32.2,98.8,32.2,98.7,32.3 M132.2,32.3c-0.1,0.1-0.1,2.2,0,2.3
					c0.1,0.1,2.1,0.3,2.1,0.1c0,0-0.4-0.1-1-0.1c-1.2,0-1.1,0.1-1.1-1.4V32.3h1.1h1h-1C132.6,32.2,132.3,32.2,132.2,32.3
					 M160.4,32.2h1.4l0.1,0.3l0.1,0.3v-0.3C161.9,32.2,161.9,32.2,160.4,32.2H159H160.4 M158.9,32.5
					C158.9,32.7,158.9,32.7,158.9,32.5c0,0,0-0.1,0-0.2C159,32.3,158.9,32.3,158.9,32.5 M140.9,33.4c0,0.6,0,0.9,0,0.6
					c0-0.3,0-0.8,0-1.1C140.9,32.5,140.9,32.8,140.9,33.4 M163.7,32.5c-0.3,0.2-0.8,0.7-0.8,0.8c0,0,0.2-0.1,0.4-0.3
					C163.4,32.9,163.6,32.6,163.7,32.5c0.2-0.1,0.3-0.1,0.3-0.1C163.9,32.4,163.8,32.5,163.7,32.5 M70.6,32.7c0,0.1,0,0.2,0,0.3
					C70.6,33,70.6,32.9,70.6,32.7c0.1-0.1,0.1-0.2,0.1-0.2C70.7,32.5,70.6,32.6,70.6,32.7 M146.2,32.6c-0.2,0.1-1,0.7-1.2,0.9
					s-0.2,0.2,0.1,0C145.5,33.2,146.1,32.7,146.2,32.6c0.1,0.1,0.2,0.1,0.2,0C146.4,32.6,146.4,32.6,146.2,32.6 M152.9,32.6
					c0.1,0.1,0.6,0.3,0.6,0.3C153.4,32.8,153,32.6,152.9,32.6C152.9,32.6,152.8,32.6,152.9,32.6 M171.4,32.7
					C171.1,32.9,171.1,32.9,171.4,32.7c0.4-0.1,0.4-0.1,0.3-0.1C171.7,32.6,171.5,32.6,171.4,32.7 M82.4,33.6c0,0.5,0,0.7,0,0.4
					s0-0.7,0-0.9C82.4,32.9,82.4,33.1,82.4,33.6 M85.3,33.3c0,0.3,0,0.4,0,0.3c0-0.2,0-0.4,0-0.6C85.3,32.8,85.3,33,85.3,33.3
					 M98.8,33.6c0,0.5,0,0.7,0,0.4c0-0.2,0-0.6,0-0.9C98.8,32.9,98.8,33.1,98.8,33.6 M102.6,33.3C102.1,33.8,102.1,33.8,102.6,33.3
					c0.6-0.5,0.6-0.5,0.6-0.5C103.2,32.7,102.9,33,102.6,33.3 M86.3,33.3l-0.5,0.5L86.3,33.3c0.2-0.2,0.5-0.4,0.5-0.4s0.1-0.1,0-0.1
					C86.8,32.8,86.6,33,86.3,33.3 M118.7,32.9c0,0.1,0,0.2,0.1,0.3c0,0.1,0.1,0.1,0.1,0C118.9,33.2,118.8,33,118.7,32.9
					C118.8,32.8,118.7,32.8,118.7,32.9 M94,33.5c0.3,0.3,0.6,0.6,0.6,0.6c0.1,0-0.4-0.5-0.8-0.8C93.6,33,93.6,33.1,94,33.5
					 M110.3,33.5c0.3,0.3,0.6,0.6,0.6,0.6S110.7,33.8,110.3,33.5c-0.2-0.3-0.5-0.6-0.5-0.6C109.7,32.9,109.9,33.2,110.3,33.5
					 M159,33.7c0,0.5,0,0.7,0,0.4c0-0.2,0-0.6,0-0.9C159.1,33.1,159,33.3,159,33.7 M170.5,33.5c-0.5,0.5-0.4,0.4,0.3-0.2
					c0.2-0.2,0.3-0.3,0.3-0.3C171,33,170.7,33.2,170.5,33.5 M153.9,33.3c0.2,0.2,0.8,0.8,0.8,0.7c0,0-0.2-0.2-0.5-0.5
					C153.9,33.2,153.8,33.1,153.9,33.3 M101.6,33.5c0,0.2,0,0.3,0,0.2c0-0.1,0-0.3,0-0.4S101.6,33.3,101.6,33.5 M46.7,33.7
					c0.1,0.1,0.2,0.3,0.2,0.3S46.8,33.9,46.7,33.7c0-0.1-0.1-0.3-0.1-0.3C46.5,33.5,46.6,33.6,46.7,33.7 M162.5,33.7
					c-0.2,0.3-0.3,0.4-0.2,0.4C162.3,34.1,162.4,33.9,162.5,33.7C162.8,33.5,162.8,33.4,162.5,33.7 M179.3,34.1
					c0.1,0.1,0.2,0.3,0.2,0.3C179.6,34.4,179.4,34.1,179.3,34.1C179.2,33.8,179.2,33.9,179.3,34.1 M101.6,34.1
					c0,0.2,0.1,0.3,0.2,0.1c0-0.1,0-0.1,0,0C101.8,34.2,101.7,34.2,101.6,34.1C101.7,34,101.6,34,101.6,34.1 M47.3,34.5
					c0.2,0.2,0.5,0.5,0.7,0.7c0.2,0.2,0.1,0-0.3-0.4C47,34.1,46.8,34,47.3,34.5 M94.9,34.6c0.2,0.3,0.3,0.5,0.3,0.5
					c0.1,0-0.2-0.5-0.5-0.7C94.7,34.2,94.8,34.3,94.9,34.6 M155,34.4c0.2,0.4,0.2,0.4,0.2,0.3C155.3,34.7,155.2,34.5,155,34.4
					l-0.2-0.3L155,34.4 M161.9,34.4c0,0.2,0,0.3,0.1,0.3C162,34.7,162.1,34.6,161.9,34.4C162,34.1,161.9,34.1,161.9,34.4
					 M174.2,34.2c0.1,0,0.3,0,0.3,0C174.6,34.2,174.5,34.2,174.2,34.2C174.1,34.2,174.1,34.2,174.2,34.2 M174.8,34.2
					c0.1,0,0.2,0,0.3,0c0.1,0,0,0-0.1,0S174.7,34.2,174.8,34.2 M175.5,34.3c0.1,0,0.2,0.1,0.4,0.2c0.1,0.1,0.2,0.1,0.2,0.1
					C176.1,34.5,175.6,34.2,175.5,34.3C175.4,34.3,175.4,34.3,175.5,34.3 M169.6,34.5c-0.2,0.3-0.3,0.4-0.3,0.4
					S169.4,34.8,169.6,34.5C169.8,34.3,169.8,34.2,169.6,34.5 M173.1,34.5C173,34.6,172.9,34.6,173.1,34.5c-0.1,0.1,0.1,0,0.2,0
					c0.1-0.1,0.2-0.1,0.1-0.1C173.3,34.4,173.2,34.5,173.1,34.5 M89,34.6c0.1,0,0.3,0,0.4,0c0.1,0,0,0-0.2,0
					C89,34.5,88.9,34.5,89,34.6 M105.3,34.6c0.1,0,0.3,0,0.4,0c0.1,0,0,0-0.2,0S105.2,34.5,105.3,34.6 M88.2,34.7
					C88.1,34.8,88.1,34.8,88.2,34.7c0.4-0.1,0.5-0.1,0.3-0.1C88.4,34.6,88.3,34.6,88.2,34.7 M104.5,34.7
					C104.4,34.8,104.4,34.8,104.5,34.7c0.4-0.1,0.5-0.1,0.3-0.1C104.7,34.6,104.5,34.6,104.5,34.7 M119.5,34.8
					c0.1,0.1,0.3,0.3,0.4,0.4s0,0-0.1-0.2C119.4,34.5,119.3,34.4,119.5,34.8 M139.1,34.7h-1.7v3.8v3.8v-3.8v-3.8H139.1
					c1,0.1,1.7,0.1,1.7,0v-0.1C140.8,34.6,140,34.6,139.1,34.7 M155.5,35.1c0.1,0.1,0.1,0.3,0.2,0.3
					C155.7,35.3,155.6,35.2,155.5,35.1c0-0.1-0.1-0.3-0.1-0.3S155.4,34.9,155.5,35.1 M87.3,35.2l-0.2,0.3L87.3,35.2
					c0.2-0.1,0.4-0.2,0.4-0.3l0,0C87.5,34.9,87.4,35,87.3,35.2 M103.2,35.4c-0.3,0.2-0.6,0.6-0.7,0.8c-0.1,0.2-0.1,0.3-0.1,0.2
					c0.4-0.6,0.6-0.8,1-1.1c0.2-0.2,0.4-0.3,0.3-0.3C103.6,35,103.5,35.1,103.2,35.4 M107.1,34.9c0,0,0.2,0.2,0.5,0.5
					c0.3,0.2,0.4,0.3,0.3,0.2C107.8,35.4,107.1,34.9,107.1,34.9 M147.3,35.2l-0.3,0.3L147.3,35.2c0.2-0.1,0.3-0.3,0.3-0.3
					S147.5,34.9,147.3,35.2 M151.7,35.2c0.2,0.2,0.4,0.4,0.5,0.6c0.1,0.1,0.1,0.1-0.1-0.1C152,35.5,151.7,35.2,151.7,35.2
					C151.4,34.9,151.5,34.9,151.7,35.2 M165.5,35c0.1,0,0.3,0,0.4,0s0,0-0.2,0C165.5,34.9,165.4,34.9,165.5,35 M172.3,35.3
					c-0.2,0.2-0.2,0.3-0.1,0.2c0.2-0.1,0.5-0.6,0.4-0.6C172.5,34.9,172.4,35.1,172.3,35.3 M169.1,35.2c-0.1,0.1-0.1,0.3-0.1,0.3
					S169.1,35.4,169.1,35.2c0.2-0.1,0.2-0.3,0.2-0.3C169.2,35,169.1,35.1,169.1,35.2 M20.5,35.2c0,0.2,0.1,0.6,0.1,0.4
					C20.7,35.4,20.6,35.3,20.5,35.2C20.5,35.1,20.5,35.1,20.5,35.2 M91.5,35.5c0.2,0.2,0.5,0.6,0.6,0.8c0.1,0.2,0.2,0.3,0.2,0.3
					C92.3,36.4,91.8,35.7,91.5,35.5l-0.4-0.4L91.5,35.5 M143.5,35.3c-0.1,0.1-0.1,0.3-0.1,0.3S143.5,35.5,143.5,35.3
					c0.2-0.1,0.2-0.3,0.2-0.3C143.6,35.1,143.6,35.2,143.5,35.3 M86.6,35.8c-0.2,0.2-0.3,0.4-0.3,0.4s0.1,0,0.1-0.1
					C86.5,36,86.6,35.8,86.6,35.8c0.2-0.2,0.3-0.3,0.3-0.3C86.9,35.4,86.8,35.6,86.6,35.8 M155.7,35.4c0,0,0.1,0.2,0.2,0.3
					c0.1,0.2,0.2,0.2,0.2,0.2s-0.1-0.2-0.2-0.3C155.8,35.5,155.7,35.4,155.7,35.4 M73.2,35.7c0,0.1,0,0.2,0.1,0.3
					c0,0.1,0.1,0.1,0.1,0S73.4,35.8,73.2,35.7C73.3,35.6,73.2,35.6,73.2,35.7 M108.4,36.5c0.1,0.3,0.2,0.4,0.3,0.4l-0.4-0.9
					C108.2,36.1,108.3,36.3,108.4,36.5 M69.4,36.5c0,0.1,0,0.2,0,0.3C69.4,36.7,69.5,36.7,69.4,36.5c0.1-0.1,0.1-0.2,0.1-0.2
					S69.5,36.3,69.4,36.5 M128,36.3c0.1,0.1,0.6,0.5,0.6,0.4c0,0-0.1-0.1-0.3-0.3C128.1,36.3,127.9,36.3,128,36.3 M86.1,36.7
					C85.9,37,86,37.1,86.1,36.7c0.1,0,0.2-0.2,0.1-0.2C86.2,36.5,86.1,36.6,86.1,36.7 M95.8,36.6c0,0.1,0,0.2,0.1,0.3
					c0,0.1,0.1,0.1,0.1,0S95.9,36.7,95.8,36.6C95.8,36.5,95.8,36.5,95.8,36.6 M156.2,36.7c0,0.1,0,0.2,0.1,0.3c0,0.1,0.1,0.1,0.1,0
					C156.3,37,156.3,36.9,156.2,36.7L156.2,36.7 M180.5,36.8c0,0.1,0,0.3,0.1,0.4c0.1,0.2,0.1,0.2,0.1,0
					C180.7,37.1,180.6,36.9,180.5,36.8C180.5,36.7,180.5,36.7,180.5,36.8 M121.9,36.8c0.3,0.2,0.5,0.3,0.3,0.1
					C122,36.8,121.9,36.7,121.9,36.8C121.8,36.7,121.8,36.8,121.9,36.8 M128.9,37.1c0.3,0.4,0.4,0.4,0.4,0.4
					C129.4,37.5,129.2,37.3,128.9,37.1l-0.4-0.4L128.9,37.1 M171.3,37.2c0,0.1,0,0.3,0,0.3S171.3,37.4,171.3,37.2
					C171.4,36.9,171.4,36.8,171.3,37.2 M142.7,37.3c0,0.1,0,0.2,0,0.3C142.7,37.6,142.8,37.5,142.7,37.3c0.1-0.1,0.1-0.2,0.1-0.2
					S142.8,37.2,142.7,37.3 M85.8,37.4c0,0.1,0,0.2,0,0.3C85.8,37.7,85.9,37.6,85.8,37.4c0.1-0.1,0.1-0.2,0.1-0.2
					S85.9,37.3,85.8,37.4 M102.1,37.4c0,0.1,0,0.3,0,0.3S102.1,37.6,102.1,37.4C102.2,37.1,102.2,37.1,102.1,37.4 M112.2,37.5
					C112.2,37.7,112.2,37.7,112.2,37.5c0,0,0-0.1,0-0.2C112.2,37.3,112.2,37.3,112.2,37.5 M156.4,37.5c0,0.1,0,0.3,0.1,0.5
					s0.1,0.2,0.1,0C156.5,37.9,156.5,37.7,156.4,37.5C156.4,37.3,156.4,37.3,156.4,37.5 M177.7,37.5v0.2h-3.2c-1.8,0-3.2,0-3.2,0.1
					c0,0,1.4,0.1,3.2,0.1C177.8,37.8,177.8,37.8,177.7,37.5C177.7,37.3,177.7,37.3,177.7,37.5 M180.7,38.7c0,0.5,0,0.7,0,0.5
					c0-0.3,0-0.7,0-1C180.7,37.9,180.7,38.1,180.7,38.7 M112.3,38.1C112.3,38.3,112.3,38.3,112.3,38.1v-0.2
					C112.3,37.9,112.3,37.9,112.3,38.1 M69,38.1v0.2h2.6h2.6h-2.5C69.3,38.2,69.1,38.1,69,38.1C69,37.9,69,37.9,69,38.1 M85.8,39.5
					c0,0.8,0,1.2,0,0.7c0-0.4,0-1.1,0-1.5S85.8,38.6,85.8,39.5 M102,39.5c0,0.8,0,1.2,0,0.7c0-0.4,0-1.1,0-1.5S102,38.6,102,39.5
					 M168.1,38.2C168.1,38.4,168.1,38.4,168.1,38.2c0,0,0-0.1,0-0.2C168.1,38,168.1,38.1,168.1,38.2 M124.9,38.2
					c0.3,0.2,0.5,0.3,0.3,0.1C125,38.2,124.9,38.1,124.9,38.2C124.8,38.1,124.8,38.1,124.9,38.2 M162.3,42.2c0,3.4,0,4.1-0.1,4.2
					c-0.1,0.1-0.6,0.1-1.6,0.1c-0.8,0-1.5,0-1.4,0c0.2,0.1,3,0.1,3.1-0.1c0.1-0.1,0.2-8.3,0.1-8.3C162.4,38.2,162.3,40,162.3,42.2
					 M142.5,38.7c0,0.2,0,0.3,0,0.2c0-0.1,0-0.3,0-0.4C142.6,38.4,142.5,38.5,142.5,38.7 M145.9,39.4c0,0.6,0,0.8,0,0.5
					c0-0.3,0-0.7,0-1C145.9,38.6,145.9,38.8,145.9,39.4 M96.2,39.2c0,0.4,0,0.6,0,0.4s0-0.5,0-0.8C96.2,38.6,96.2,38.8,96.2,39.2
					 M153.1,39.3c0,0.5,0,0.6,0,0.4c0-0.2,0-0.6,0-0.8C153.2,38.6,153.1,38.8,153.1,39.3 M156.6,39.2c0,0.3,0,0.4,0,0.3
					c0-0.2,0-0.4,0-0.6S156.6,38.9,156.6,39.2 M92.8,39.3c0,0.2,0,0.3,0,0.2c0-0.1,0-0.3,0-0.4S92.8,39.1,92.8,39.3 M109.1,39.3
					c0,0.2,0,0.3,0,0.2c0-0.1,0-0.3,0-0.4S109.1,39.1,109.1,39.3 M168,39.5c0,0.3,0,0.4,0,0.3c0-0.2,0-0.4,0-0.6
					C168.1,39.1,168,39.2,168,39.5 M130.3,39.3c0,0.1,0,0.2,0.1,0.3c0,0.1,0.1,0.1,0.1,0C130.4,39.6,130.4,39.5,130.3,39.3
					C130.3,39.3,130.3,39.2,130.3,39.3 M126.9,39.9c0.1,0.2,0.2,0.3,0.2,0.3c0-0.1-0.2-0.5-0.3-0.6
					C126.8,39.5,126.8,39.7,126.9,39.9 M65.3,39.8c0,0.1,0,0.2-0.1,0.3c0,0.1,0,0.1,0,0C65.4,40,65.4,39.8,65.3,39.8
					C65.3,39.6,65.3,39.6,65.3,39.8 M49,39.9c-0.1,0.1-0.2,0.4-0.3,0.6c-0.1,0.2-0.2,0.3-0.2,0.3C48.6,40.7,49.1,39.8,49,39.9
					C49.1,39.7,49,39.8,49,39.9 M142.5,40.2c0,0.2,0,0.3,0,0.2c0-0.1,0-0.3,0-0.4C142.6,39.9,142.5,40,142.5,40.2 M112.3,40.2
					C112.3,40.4,112.3,40.4,112.3,40.2V40C112.3,39.9,112.3,40,112.3,40.2 M180.6,40c0,0.1-1.2,0.1-4.7,0.1h-4.7h4.7
					C180.3,40.2,180.8,40.1,180.6,40C180.6,39.9,180.6,39.9,180.6,40 M130.5,40.3C130.5,40.5,130.5,40.5,130.5,40.3v-0.2
					C130.5,40,130.5,40.1,130.5,40.3 M127.2,41.2c0,0.5,0,0.8,0.1,0.7c0-0.1,0.1-0.4,0.1-0.7s0-0.6-0.1-0.7
					C127.2,40.4,127.2,40.7,127.2,41.2 M112.2,40.9C112.2,41.1,112.2,41.1,112.2,40.9v-0.2C112.2,40.6,112.2,40.7,112.2,40.9
					 M68.4,40.8c-0.1,0.1-0.1,0.2-0.1,0.3c0,0.1,0,0.1,0.1,0c0-0.1,0.1-0.2,0.2-0.3c0.1,0,0.1-0.1,0.1-0.1
					C68.5,40.7,68.4,40.7,68.4,40.8 M130.6,40.9C130.6,41.1,130.6,41.1,130.6,40.9c0,0,0-0.1,0-0.2
					C130.6,40.7,130.6,40.8,130.6,40.9 M22.9,40.9c0.1,0.3,0.3,0.4,0.3,0.3C23.1,41.2,23,41,22.9,40.9
					C22.9,40.8,22.9,40.8,22.9,40.9 M102.1,41.4c0,0.1,0,0.2,0.1,0.3c0,0.1,0.1,0.1,0.1,0C102.2,41.7,102.2,41.5,102.1,41.4
					C102.1,41.3,102.1,41.3,102.1,41.4 M130.5,41.6C130.5,41.8,130.5,41.8,130.5,41.6c0,0,0-0.1,0-0.2
					C130.5,41.4,130.5,41.4,130.5,41.6 M156.2,41.5c0,0.1,0,0.2,0,0.3C156.2,41.8,156.3,41.7,156.2,41.5c0.1-0.1,0.1-0.2,0.1-0.2
					S156.3,41.4,156.2,41.5 M95.9,41.6c0,0.1,0,0.2,0,0.3C95.9,41.9,95.9,41.8,95.9,41.6c0.1-0.1,0.1-0.2,0.1-0.2
					S95.9,41.5,95.9,41.6 M168.3,41.7c0,0.1,0,0.2,0.1,0.3c0,0.1,0.1,0.1,0.1,0C168.4,41.9,168.4,41.8,168.3,41.7
					C168.3,41.6,168.3,41.6,168.3,41.7 M130.3,42.4c0,0.1,0,0.2,0,0.3C130.3,42.7,130.4,42.6,130.3,42.4c0.1-0.1,0.1-0.2,0.1-0.2
					S130.4,42.3,130.3,42.4 M146.5,42.4c0,0.2,0.7,1,1,1.3l0.3,0.2l-0.3-0.3c-0.2-0.2-0.5-0.5-0.6-0.8
					C146.7,42.6,146.5,42.4,146.5,42.4 M75.2,42.6c0,0.1,0,0.2,0.1,0.3c0,0.1,0.1,0.1,0.1,0C75.4,42.8,75.4,42.7,75.2,42.6
					C75.3,42.5,75.2,42.5,75.2,42.6 M91.9,42.8c-0.1,0.1-0.2,0.3-0.2,0.3S91.8,42.9,91.9,42.8C92.2,42.4,92.1,42.4,91.9,42.8
					 M155.8,43c-0.1,0.3-0.2,0.5-0.2,0.5c0.1,0,0.5-0.8,0.4-0.9C156,42.5,155.9,42.7,155.8,43 M134.3,43c0,0.1,0,0.4,0.1,0.5
					C134.5,43.8,134.5,43.5,134.3,43C134.3,42.8,134.3,42.7,134.3,43 M47,43.1c-0.1,0.1-0.2,0.3-0.1,0.3C46.9,43.3,47,43.2,47,43.1
					c0.2-0.1,0.2-0.3,0.2-0.3S47.1,42.9,47,43.1 M64.3,43c0,0.1,0,0.2,0,0.3C64.3,43.3,64.3,43.2,64.3,43c0.1-0.1,0.1-0.2,0.1-0.2
					C64.3,42.8,64.3,42.9,64.3,43 M168.7,42.9c0,0,0.1,0.2,0.1,0.3c0.1,0.1,0.1,0.2,0.1,0.1C168.9,43.3,168.8,43.1,168.7,42.9
					C168.7,42.9,168.7,42.8,168.7,42.9 M151.7,43.4C151.4,43.8,151.4,43.8,151.7,43.4c0.1-0.1,0.4-0.4,0.3-0.4
					C152.1,43,151.9,43.2,151.7,43.4 M130,43.3c0,0-0.2,0.3-0.4,0.7c-0.2,0.3-0.3,0.5-0.2,0.4C129.6,44.2,130.1,43.3,130,43.3
					C130.1,43.2,130,43.3,130,43.3 M172.7,43.4c0.1,0.2,0.6,0.4,0.7,0.3l0,0c0,0-0.2-0.1-0.4-0.2C172.7,43.3,172.6,43.3,172.7,43.4
					 M111.3,43.6c-0.1,0.1-0.1,0.3-0.1,0.3S111.3,43.7,111.3,43.6c0.2-0.1,0.2-0.3,0.2-0.3S111.4,43.4,111.3,43.6 M125.8,43.5
					c-0.2,0.1-0.3,0.2-0.3,0.2c0.1,0,0.7-0.3,0.7-0.4l0,0C126.2,43.3,126,43.4,125.8,43.5 M95.2,43.5C94.9,44,94.9,44,95,43.9
					C95.2,43.7,95.3,43.4,95.2,43.5C95.2,43.4,95.2,43.5,95.2,43.5 M168.9,43.5c0,0.1,0.4,0.6,0.4,0.5c0,0-0.1-0.2-0.2-0.3
					C169,43.5,168.9,43.4,168.9,43.5 M24.6,43.5c0,0,0.1,0.1,0.3,0.3l0.3,0.2l-0.3-0.2C24.6,43.5,24.6,43.5,24.6,43.5 M118.8,43.7
					c0,0.1,0,0.2,0,0.3C118.8,44,118.8,43.9,118.8,43.7c0.1-0.1,0.1-0.2,0.1-0.2C118.8,43.5,118.8,43.6,118.8,43.7 M90.8,43.7
					c-0.1,0.1-0.2,0.2-0.2,0.2c0.1,0,0.5-0.3,0.5-0.3C91.1,43.6,91,43.7,90.8,43.7 M107.1,43.7c-0.1,0.1-0.2,0.2-0.2,0.2
					c0.1,0,0.5-0.3,0.5-0.3C107.4,43.6,107.2,43.7,107.1,43.7 M120.8,43.7c0.3,0.1,0.5,0.1,0.3,0C121,43.6,120.8,43.6,120.8,43.7
					C120.6,43.6,120.6,43.6,120.8,43.7 M179,43.7C178.9,43.8,178.9,43.8,179,43.7c0.3,0,0.4,0,0.5,0.1c0.1,0.1,0.1,0.1,0,0
					C179.4,43.6,179.2,43.6,179,43.7 M46.2,44.1c-0.2,0.3-0.6,0.7-1,1c-0.3,0.3-0.6,0.6-0.5,0.6C44.8,45.7,45.9,44.6,46.2,44.1
					c0.3-0.3,0.4-0.5,0.4-0.5C46.6,43.7,46.4,43.9,46.2,44.1 M121.4,43.8c0.1,0,0.2,0.1,0.3,0.1c0.1,0,0.1,0,0-0.1
					C121.4,43.7,121.2,43.7,121.4,43.8 M87.7,44c0.1,0.1,0.2,0.1,0.3,0.1c0,0,0-0.1-0.1-0.1C87.8,43.9,87.7,43.9,87.7,44
					C87.5,43.8,87.6,43.9,87.7,44 M104,44c0.1,0.1,0.2,0.1,0.3,0.1c0,0,0-0.1-0.1-0.1C104.1,43.9,104,43.9,104,44
					C103.8,43.9,103.8,43.9,104,44 M124.2,44l-0.3,0.1L124.2,44c0.1,0.1,0.3,0,0.5,0C125,43.9,124.7,43.9,124.2,44 M138.7,44
					c0,0,0.2,0.1,0.3,0c0.2,0,0.2,0-0.1-0.1C138.7,44,138.6,44,138.7,44 M139.9,44c-0.3,0-0.2,0.1,0.2,0h0.5v0.3v0.3v-0.3
					C140.6,43.9,140.5,43.9,139.9,44 M177.8,44C177.7,44.1,177.7,44.1,177.8,44c0.1,0.1,0.2,0,0.3,0C178.3,43.9,178,43.9,177.8,44
					 M122.6,44.1c0.1,0,0.3,0,0.4,0s0,0-0.2,0C122.6,44,122.5,44,122.6,44.1 M25.2,44.3c0.2,0.3,1.2,1.3,1.5,1.5
					c0.1,0.1,0.1,0-0.2-0.2c-0.2-0.2-0.7-0.6-0.9-0.9C25.3,44.4,25.2,44.2,25.2,44.3 M89.1,44.2l-0.7,0.1L89.1,44.2
					c0.3,0.1,0.7,0,0.8,0c0.1,0,0.1-0.1,0-0.1C89.9,44.1,89.5,44.1,89.1,44.2 M94.5,44.5c-0.2,0.3-0.5,0.6-0.8,0.8
					c-0.4,0.3-0.4,0.3-0.1,0.1C94,45.1,95,44,94.9,44C94.8,44.1,94.7,44.3,94.5,44.5 M105.4,44.2l-0.7,0.1L105.4,44.2
					c0.3,0.1,0.7,0,0.8,0c0.1,0,0.1-0.1,0-0.1S105.8,44.1,105.4,44.2 M110.8,44.4c-0.1,0.2-0.5,0.5-0.8,0.9
					c-0.3,0.3-0.4,0.5-0.3,0.4c0.3-0.2,1.4-1.5,1.3-1.5C111.1,44.1,111,44.2,110.8,44.4 M174.5,44.2c0.2,0.1,0.7,0.1,0.6,0.1
					c0,0-0.2-0.1-0.4-0.1C174.4,44.1,174.4,44.1,174.5,44.2 M176.6,44.2c0.1,0,0.3,0,0.3,0C177,44.2,176.9,44.2,176.6,44.2
					C176.5,44.2,176.5,44.2,176.6,44.2 M150,44.3C149.8,44.4,149.8,44.4,150,44.3c0.1,0.1,0.2,0,0.3,0
					C150.5,44.2,150.3,44.2,150,44.3 M144,44.4c0,0,0.3,0.3,0.6,0.6l0.6,0.6l-0.6-0.6C144.1,44.4,144,44.3,144,44.4 M170,44.8
					c0.2,0.2,0.4,0.4,0.5,0.4C170.4,45.2,170.3,45.1,170,44.8c-0.1-0.2-0.3-0.4-0.4-0.4C169.5,44.4,169.7,44.6,170,44.8 M154.3,45
					C153.8,45.5,153.8,45.5,154.3,45c0.6-0.5,0.6-0.5,0.6-0.5C154.8,44.5,154.6,44.7,154.3,45 M79.4,44.8c0,0.1,0,0.2,0.1,0.3
					c0.1,0.1,0.1,0.1,0-0.1C79.4,44.6,79.4,44.6,79.4,44.8 M118.4,44.9c0,0.1,0,0.2,0,0.3C118.4,45.2,118.5,45.1,118.4,44.9
					c0.1-0.1,0.1-0.2,0.1-0.2S118.5,44.8,118.4,44.9 M179.7,44.8c0,0.1,0,0.2,0.1,0.3C179.8,45.3,179.8,45.1,179.7,44.8
					C179.7,44.7,179.7,44.7,179.7,44.8 M85.7,48.5v3.7V48.5c0.1-2.7,0.1-3.6,0.2-3.6s0.1,0,0,0C85.7,44.7,85.7,45.1,85.7,48.5
					 M102,48.5v3.7V48.5c0.1-2,0.1-3.6,0.2-3.5c0,0.1,0.1,0.1,0,0c0-0.1-0.1-0.1-0.1-0.1C102,44.9,102,45.8,102,48.5 M128.4,45.3
					c-0.1,0.1-0.3,0.3-0.4,0.3c-0.2,0.1-0.2,0.1,0.1,0c0.2-0.1,0.4-0.2,0.5-0.3C128.8,45,128.7,45,128.4,45.3 M159,45.7
					c0,0.4,0,0.5,0,0.3s0-0.5,0-0.7C159.1,45.2,159,45.3,159,45.7 M86.1,45.4c0.1,0.1,0.2,0.3,0.2,0.3
					C86.4,45.7,86.2,45.4,86.1,45.4C86,45.2,86,45.2,86.1,45.4 M35.4,45.3c0.2,0,0.5,0,0.7,0s0,0-0.4,0S35.2,45.3,35.4,45.3
					 M118.3,45.4c0,0.1,0.1,0.2,0.2,0.3c0.2,0.1,0.2,0.1,0.1,0C118.5,45.6,118.4,45.5,118.3,45.4C118.3,45.2,118.3,45.2,118.3,45.4
					 M37.1,45.4c0,0,0.1,0.1,0.3,0.1c0.2,0,0.2,0,0.1,0C37.4,45.4,37,45.4,37.1,45.4 M37.9,45.7c0.1,0,0.2,0.1,0.3,0.1
					c0.1,0,0.1,0,0-0.1C38,45.6,37.9,45.6,37.9,45.7C37.8,45.6,37.8,45.6,37.9,45.7 M76.3,45.9c0.1,0.3,0.1,0.4,0.1,0.2
					C76.4,46,76.4,45.9,76.3,45.9C76.2,45.7,76.2,45.7,76.3,45.9 M140.7,46c0,0.3-0.1,0.4-0.2,0.5c-0.1,0-0.1,0.1-0.1,0.1
					C140.6,46.6,140.8,46.4,140.7,46v-0.4V46 M38.3,45.8c0.1,0.1,0.7,0.3,0.7,0.3s-0.1-0.1-0.3-0.2C38.4,45.7,38.3,45.7,38.3,45.8
					 M86.7,45.9c0.2,0.2,0.7,0.5,0.7,0.5s-0.2-0.2-0.5-0.3C86.7,45.9,86.6,45.8,86.7,45.9 M102.8,45.8c0,0,0.1,0.1,0.3,0.3
					c0.2,0.1,0.3,0.2,0.2,0.1C103.3,46.1,102.8,45.7,102.8,45.8 M145.9,46c0.2,0.1,0.3,0.2,0.4,0.2c0,0-0.1-0.1-0.2-0.2
					c-0.2-0.1-0.3-0.2-0.4-0.2C145.6,45.7,145.7,45.8,145.9,46 M135.8,46c0.1,0.1,0.4,0.3,0.4,0.3S136.1,46.2,135.8,46
					C135.8,46,135.7,45.9,135.8,46 M66.6,46.3c-0.1,0.2-3.1,0.3-3.3,0c0-0.1-0.1-0.1-0.1-0.1c0,0.3,0.2,0.3,1.7,0.3
					C66.3,46.6,66.5,46.6,66.6,46.3C66.7,46.3,66.8,46.2,66.6,46.3C66.7,46.2,66.6,46.2,66.6,46.3 M79.9,46.4c-0.1,0.2-3,0.2-3.3,0
					c-0.2-0.1-0.2-0.1,0,0C76.9,46.8,80.3,46.6,79.9,46.4C79.9,46.3,79.9,46.3,79.9,46.4 M120.4,46.5c0.3,0.1,0.5,0.1,0.3,0
					C120.6,46.5,120.4,46.4,120.4,46.5C120.2,46.4,120.2,46.4,120.4,46.5 M177.8,46.5c-0.2,0.1,0,0.1,0.3,0c0.2-0.1,0.2-0.1,0-0.1
					C178,46.4,177.9,46.5,177.8,46.5 M30.5,46.7C30.3,46.7,30.3,46.7,30.5,46.7c0.1,0.1,0.2,0,0.3,0C31.1,46.6,30.9,46.6,30.5,46.7
					 M40.5,46.7c0.2,0.1,0.9,0.1,0.8,0.1c0,0-0.2-0.1-0.5-0.1C40.5,46.6,40.4,46.6,40.5,46.7 M42.6,46.7
					C42.3,46.7,42.3,46.7,42.6,46.7c0.1,0.1,0.3,0,0.4,0C43.1,46.6,43,46.6,42.6,46.7 M88.2,46.7c0.2,0.1,0.6,0.1,0.5,0.1
					C88.7,46.8,88.5,46.7,88.2,46.7C88.1,46.6,88.1,46.6,88.2,46.7 M91.1,46.7C90.8,46.7,90.8,46.7,91.1,46.7c0.1,0.1,0.3,0,0.4,0
					C91.6,46.6,91.5,46.6,91.1,46.7 M104.4,46.7c0.2,0.1,0.6,0.1,0.5,0.1C104.9,46.8,104.7,46.7,104.4,46.7
					C104.3,46.6,104.3,46.6,104.4,46.7 M137,46.7c0.2,0.1,0.7,0.1,0.6,0.1c0,0-0.2-0.1-0.4-0.1C137,46.6,136.9,46.6,137,46.7
					 M139.6,46.7l-0.4,0.1L139.6,46.7c0.1,0.1,0.4,0,0.5,0C140.3,46.6,140.1,46.6,139.6,46.7 M121.6,46.7c0.1,0,0.3,0,0.4,0
					c0.1,0,0,0-0.2,0C121.5,46.7,121.4,46.7,121.6,46.7 M124.6,46.7c0.1,0,0.3,0,0.4,0c0.1,0,0,0-0.2,0
					C124.6,46.7,124.5,46.7,124.6,46.7 M147.9,46.7c0.1,0,0.2,0,0.3,0s0,0-0.1,0C148,46.7,147.8,46.7,147.9,46.7 M150.7,46.7
					c0.1,0,0.2,0,0.3,0s0,0-0.1,0C150.7,46.7,150.6,46.7,150.7,46.7 M174,46.7c0.1,0,0.3,0,0.5,0c0.1,0,0,0-0.2,0
					C174.1,46.7,173.8,46.7,174,46.7 M176.2,46.7c0.1,0,0.4,0,0.6,0c0.2,0,0.1,0-0.3,0C176.2,46.7,176,46.7,176.2,46.7 M29.1,46.8
					c0.2,0,0.5,0,0.7,0s0,0-0.4,0C29.1,46.8,28.9,46.8,29.1,46.8 M89.4,46.8c0.2,0,0.6,0,0.8,0s0,0-0.4,0
					C89.3,46.8,89.2,46.8,89.4,46.8 M105.6,46.8c0.2,0,0.6,0,0.8,0s0,0-0.4,0S105.4,46.8,105.6,46.8 M123.2,46.8c0.1,0,0.3,0,0.4,0
					s0,0-0.2,0C123.2,46.8,123.1,46.8,123.2,46.8 M138.3,46.8c0.1,0,0.3,0,0.3,0C138.7,46.8,138.6,46.8,138.3,46.8
					C138.2,46.8,138.2,46.8,138.3,46.8 M149,46.8c0.2,0,0.6,0,0.8,0c0.2,0,0,0-0.4,0C148.9,46.8,148.8,46.8,149,46.8 M198.1,52
					C198.1,52.2,198.1,52.2,198.1,52c0,0,0-0.1,0-0.2C198.1,51.8,198.1,51.8,198.1,52 M2.3,52.4c0,0.2,0,0.4,0.1,0.5
					c0,0.1,0.1,0,0-0.3C2.3,52.1,2.3,52,2.3,52.4 M83.4,52.2c0.4,0,1.1,0,1.5,0s0.1,0-0.8,0C83.3,52.2,82.9,52.2,83.4,52.2
					 M99.7,52.2c0.4,0,1.1,0,1.5,0s0.1,0-0.8,0S99.3,52.2,99.7,52.2 M198,52.9c0,0.2,0,0.4,0,0.4S198,53.2,198,52.9
					c0.1-0.1,0.1-0.3,0.1-0.3C198,52.6,198,52.7,198,52.9 M2.8,54.3c0,0.1,0.2,0.6,0.3,0.6c0,0,0-0.1-0.1-0.3
					C2.8,54.2,2.8,54.2,2.8,54.3 M197.2,55c-0.1,0.2-0.5,0.6-0.8,0.9s-0.4,0.5-0.3,0.3c0.5-0.4,1.4-1.5,1.3-1.6
					C197.4,54.7,197.2,54.8,197.2,55 M3.3,55.1c0.1,0.2,0.4,0.5,0.6,0.7c0.4,0.4,0.4,0.4,0.1,0.1C3.7,55.7,3.5,55.4,3.3,55.1
					C3.1,54.9,3.1,54.9,3.3,55.1 M195.5,56.7c-0.4,0.2-0.5,0.4-0.2,0.2c0.3-0.1,0.6-0.4,0.5-0.4C195.8,56.5,195.7,56.6,195.5,56.7
					 M6.4,57.4c0.1,0,0.2,0.1,0.3,0.1s0.1,0,0-0.1C6.5,57.4,6.4,57.3,6.4,57.4C6.3,57.3,6.3,57.4,6.4,57.4 M193.8,57.4
					C193.7,57.4,193.7,57.5,193.8,57.4c0,0.1,0.2,0,0.3,0c0.1,0,0.1-0.1,0-0.1C194,57.3,193.9,57.4,193.8,57.4 M53.8,57.5
					c25.6,0,67.5,0,93,0s4.6,0-46.6,0S28.2,57.5,53.8,57.5"/>
				<path id="path4_1_" class="st4" d="M53.7,1.3c25.6,0,67.5,0,93,0s4.7,0-46.5,0S28.1,1.3,53.7,1.3 M6.2,1.5
					C6.1,1.6,6.1,1.6,6.2,1.5c0,0.1,0.2,0,0.3,0c0.1,0,0.1-0.1,0-0.1C6.4,1.4,6.3,1.5,6.2,1.5 M196.5,3c0.2,0.2,0.4,0.4,0.5,0.4
					C197,3.4,196.9,3.2,196.5,3c-0.1-0.2-0.3-0.4-0.4-0.4C196.2,2.6,196.3,2.8,196.5,3 M197.9,5.5c0,0.1,0,0.2,0.1,0.3
					c0,0.1,0.1,0.1,0.1,0C198.1,5.8,198,5.6,197.9,5.5C197.9,5.5,197.9,5.4,197.9,5.5 M2.3,5.8c0,0.1,0,0.3,0,0.3
					C2.3,6.2,2.4,6.1,2.3,5.8C2.5,5.6,2.4,5.5,2.3,5.8 M198.1,6.4C198.1,6.6,198.1,6.6,198.1,6.4c0,0,0-0.1,0-0.2
					C198.1,6.2,198.1,6.3,198.1,6.4 M2.2,29.4c0,12.7,0,17.9,0,11.5s0-16.7,0-23.1S2.2,16.7,2.2,29.4 M198.1,29.3
					c0,12.3,0,17.4,0,11.2s0-16.3,0-22.5S198.1,17,198.1,29.3 M129.2,11.6c0,1.1,0,1.9,0,1.9S129.3,12.6,129.2,11.6
					c0.1-1.1,0.1-1.9,0.1-1.9C129.2,9.7,129.2,10.5,129.2,11.6 M164.8,9.7c-0.1,0.1-0.1,9.9,0,10c0,0,0.1-2.2,0.1-5
					S164.9,9.7,164.8,9.7C164.9,9.7,164.8,9.7,164.8,9.7 M166.4,11.6c0,1.1,0,2,0,2.1c0,0,0.1-0.6,0-1.3
					C166.4,9.9,166.4,9.7,166.4,11.6 M67.2,10.1c0.3,0,0.7,0,1,0c0.3,0,0,0-0.5,0C67.1,10,66.9,10,67.2,10.1 M66.1,10.1
					c0.1,0,0.2,0,0.3,0c0.1,0,0,0-0.1,0C66.1,10.1,66,10.1,66.1,10.1 M65.2,15c0,2.6,0,3.7,0,2.3c0-1.3,0-3.5,0-4.8
					C65.2,11.3,65.2,12.4,65.2,15 M42.4,10.7C42.4,10.9,42.4,10.9,42.4,10.7c0,0,0-0.1,0-0.2S42.4,10.5,42.4,10.7 M37.3,11.6
					l-0.5,0.5L37.3,11.6c0.5-0.4,0.6-0.5,0.5-0.5C37.8,11.1,37.6,11.3,37.3,11.6 M67.7,11.3c0.2,0,0.4,0,0.5,0s0,0-0.3,0
					C67.7,11.3,67.6,11.3,67.7,11.3 M160.9,12c0,0.4,0,0.8,0,0.8s0.1-0.2,0-0.5C161,11.3,161,11.2,160.9,12 M77.8,12.7
					c0.1,0,0.2,0,0.3,0c0.1,0,0,0-0.1,0C77.8,12.7,77.8,12.7,77.8,12.7 M78.7,12.7c0.1,0,0.2,0,0.3,0c0.1,0,0,0-0.1,0
					S78.6,12.7,78.7,12.7 M110.7,12.7c0.1,0,0.2,0,0.3,0c0.1,0,0,0-0.1,0C110.7,12.7,110.6,12.7,110.7,12.7 M111.6,12.7
					c0.1,0,0.2,0,0.3,0s0,0-0.1,0C111.5,12.7,111.5,12.7,111.6,12.7 M118.7,12.7c0.1,0,0.3,0,0.3,0C119.1,12.7,119,12.7,118.7,12.7
					C118.7,12.7,118.6,12.7,118.7,12.7 M119.6,12.7c0.1,0,0.2,0,0.3,0c0.1,0,0,0-0.1,0C119.6,12.7,119.5,12.7,119.6,12.7
					 M127.5,12.7c0.1,0,0.2,0,0.3,0c0.1,0,0,0-0.1,0C127.5,12.7,127.4,12.7,127.5,12.7 M167.8,12.8c-0.1,0.1,0,0.1,0.2,0
					c0.4-0.1,0.4-0.1,0.2-0.1C168.1,12.7,167.9,12.7,167.8,12.8 M93.2,12.9c0,0.1,0,0.2-0.1,0.3c0,0.1,0,0.1,0,0
					C93.3,13.1,93.3,13,93.2,12.9C93.2,12.8,93.2,12.8,93.2,12.9 M95.2,13.5c0,0.4,0,0.5,0,0.3c0-0.2,0-0.5,0-0.7
					C95.3,12.9,95.2,13.1,95.2,13.5 M146.2,13.5c0,0.4,0,0.6,0,0.4c0-0.2,0-0.5,0-0.8C146.2,13,146.2,13.1,146.2,13.5 M162.6,13.4
					c0,0.3,0,0.6,0.1,0.5c0,0,0.1-0.3,0.1-0.5c0-0.3,0-0.5-0.1-0.5C162.7,12.9,162.6,13.1,162.6,13.4 M147.6,13.4
					c0,0.3,0,0.4,0.1,0.4s0.1,0,0,0C147.7,13.7,147.7,13.5,147.6,13.4V13V13.4 M170,13.3c0.2,0.2,0.3,0.3,0.3,0.3
					C170.4,13.6,170.3,13.5,170,13.3c-0.1-0.2-0.2-0.3-0.2-0.3C169.8,13,169.9,13.1,170,13.3 M113.7,13.7c0.2,0.2,0.3,0.3,0.4,0.3
					S113.9,13.9,113.7,13.7c-0.1-0.2-0.3-0.3-0.3-0.3S113.5,13.5,113.7,13.7 M174.1,13.6l-0.2,0.3L174.1,13.6
					c0.3-0.2,0.3-0.3,0.3-0.3S174.3,13.5,174.1,13.6 M176.2,13.8c0.1,0,0.2,0,0.3,0s0,0-0.1,0S176.1,13.8,176.2,13.8 M127.3,14
					c0.1,0,0.4,0,0.5,0c0.1,0,0,0-0.3,0C127.2,14,127.2,14,127.3,14 M73.1,14.8c0,0.4,0,0.6,0,0.4c0-0.2,0-0.6,0-0.8
					C73.1,14.1,73.1,14.3,73.1,14.8 M139.4,14.3l-0.3,0.3L139.4,14.3c0.3-0.2,0.4-0.3,0.3-0.3C139.7,14,139.6,14.1,139.4,14.3
					 M161,14.1c0,0.1,0,0.9,0,1.9v1.8v-1.9C161.1,14,161,13.9,161,14.1 M95.3,16.9c0,1.5,0,2.2,0,1.4s0-2,0-2.8
					C95.3,14.8,95.3,15.4,95.3,16.9 M71.4,14.8c0,0.3,0,0.4,0,0.3c0-0.2,0-0.4,0-0.6S71.4,14.5,71.4,14.8 M170.9,17.4
					c0,1.4,0,1.9,0,1.3c0-0.7,0-1.8,0-2.5S170.9,16,170.9,17.4 M96.9,15.2c0,0.1,0,1.1,0,2.4v2.2v-2.3C96.9,15,96.9,15,96.9,15.2
					 M137.3,15.3c0,0.1,0,0.2,0,0.3C137.3,15.6,137.4,15.5,137.3,15.3c0.1-0.1,0.1-0.2,0.1-0.2S137.4,15.2,137.3,15.3 M99.8,17.5
					c0,1.3,0,1.8,0,1.1c0-0.6,0-1.7,0-2.3C99.8,15.7,99.8,16.2,99.8,17.5 M166.3,17.6c0,1.2,0,2.2,0,2.2
					C166.4,19.7,166.4,18.7,166.3,17.6v-2.3V17.6 M169.3,17.6c0,1.2,0,2.2,0,2.2s0.1-0.6,0-1.4C169.3,15.6,169.3,15.4,169.3,17.6
					 M129.2,16.3c0,0.5,0,0.6,0,0.4c0-0.2,0-0.6,0-0.8C129.2,15.6,129.2,15.8,129.2,16.3 M150.8,17.6c0,1.2,0,1.7,0,1.1s0-1.6,0-2.2
					C150.8,15.9,150.8,16.4,150.8,17.6 M107.8,16C107.8,16.2,107.8,16.2,107.8,16c0,0,0-0.1,0-0.2C107.8,15.8,107.8,15.8,107.8,16
					 M173.1,16.4c0,0.4,0,0.5,0,0.4c0-0.2,0-0.5,0-0.7C173.1,15.9,173.1,16,173.1,16.4 M74.9,16.4c0,0.3,0,0.4,0,0.3
					c0-0.2,0-0.4,0-0.6C74.9,15.9,74.9,16.1,74.9,16.4 M81.7,16.3c0,0.3,0,0.4,0,0.2c0-0.2,0-0.4,0-0.5C81.7,15.9,81.7,16,81.7,16.3
					 M124.1,16.4c0,0.3,0,0.4,0,0.3c0-0.2,0-0.4,0-0.6C124.2,15.9,124.1,16.1,124.1,16.4 M76.5,16.4c0,0.2,0,0.3,0,0.2
					c0-0.1,0-0.3,0-0.4C76.5,16,76.5,16.1,76.5,16.4 M80.2,16.3c0,0.2,0,0.3,0,0.2s0-0.3,0-0.4S80.2,16.1,80.2,16.3 M114.6,16.3
					C114.6,16.5,114.6,16.5,114.6,16.3v-0.2C114.7,16,114.6,16.1,114.6,16.3 M120.4,17c0,0.4,0,0.6,0,0.4c0-0.2,0-0.5,0-0.8
					C120.4,16.5,120.4,16.6,120.4,17 M107.8,16.8C107.8,17,107.8,17,107.8,16.8c0,0,0-0.1,0-0.2S107.8,16.6,107.8,16.8 M90.7,16.9
					c0,0.1,0,0.2,0,0.3C90.7,17.2,90.7,17.1,90.7,16.9c0.1-0.1,0.1-0.2,0.1-0.2S90.7,16.8,90.7,16.9 M175.9,16.7c0.6,0,1.6,0,2.2,0
					s0.1,0-1.1,0C175.9,16.7,175.4,16.7,175.9,16.7 M118,17.8C118,18,118,18,118,17.8c0,0,0-0.1,0-0.2C118,17.5,118,17.6,118,17.8
					 M35.2,17.9c0.1,0,0.3,0,0.4,0c0.1,0,0,0-0.2,0S35.1,17.9,35.2,17.9 M41.6,18.2c0.1,0,0.4,0,0.6,0c0.2,0,0.1,0-0.3,0
					C41.6,18.2,41.4,18.2,41.6,18.2 M77.1,18.2c0,0,0.1,0.1,0.3,0.3l0.3,0.2l-0.3-0.3C77.1,18.2,77.1,18.1,77.1,18.2 M42.7,18.3
					c0.1,0,0.2,0,0.3,0c0.1,0,0,0-0.1,0C42.7,18.3,42.6,18.3,42.7,18.3 M130.8,19c0,0.4,0,0.5,0,0.4c0-0.2,0-0.5,0-0.7
					S130.8,18.6,130.8,19 M113.7,18.9l-0.3,0.3L113.7,18.9c0.3-0.2,0.4-0.3,0.3-0.3C114,18.6,113.9,18.7,113.7,18.9 M75.9,19
					c0.2,0.2,0.3,0.3,0.4,0.3C76.4,19.3,76.1,19.2,75.9,19c-0.1-0.2-0.3-0.3-0.3-0.3S75.7,18.8,75.9,19 M127.4,18.7
					c0.1,0,0.3,0,0.3,0C127.8,18.7,127.7,18.7,127.4,18.7C127.4,18.7,127.3,18.7,127.4,18.7 M174.1,19c0.2,0.2,0.3,0.3,0.4,0.3
					C174.4,19.3,174.3,19.2,174.1,19c-0.1-0.2-0.3-0.3-0.3-0.3S173.9,18.8,174.1,19 M176.7,18.8c0.1,0,0.2,0,0.3,0c0.1,0,0,0-0.1,0
					C176.8,18.8,176.6,18.8,176.7,18.8 M122,19.2c0,0.2,0,0.3,0,0.2s0-0.3,0-0.4C122,18.9,122,19,122,19.2 M117,19.4
					c0.2,0.2,0.3,0.3,0.3,0.3S117.2,19.5,117,19.4c-0.1-0.2-0.2-0.3-0.2-0.3C116.7,19.1,116.8,19.2,117,19.4 M120.4,19.2
					c0.1,0,0.1,0.1,0.1,0.2s0,0.1,0.1-0.1C120.6,19.1,120.6,19.1,120.4,19.2C120.4,19.1,120.4,19.1,120.4,19.2 M66.4,19.9
					c0.4,0,1.1,0,1.5,0s0.1,0-0.7,0C66.4,19.9,66,19.9,66.4,19.9 M177.4,19.9c0.1,0,0.3,0,0.3,0C177.8,19.9,177.7,19.9,177.4,19.9
					C177.3,19.9,177.3,19.9,177.4,19.9 M78,20c0.1,0,0.4,0,0.5,0c0.1,0,0,0-0.3,0C78,19.9,77.9,20,78,20 M110.9,20
					c0.1,0,0.4,0,0.6,0c0.2,0,0.1,0-0.3,0C110.8,19.9,110.7,20,110.9,20 M118.4,20c0.1,0,0.4,0,0.5,0s0,0-0.3,0
					C118.3,19.9,118.2,20,118.4,20 M126.9,20c0.2,0,0.4,0,0.5,0c0.1,0,0,0-0.3,0C126.9,19.9,126.8,20,126.9,20 M140.2,20
					c0.1,0,0.4,0,0.5,0c0.1,0,0,0-0.3,0S140.1,20,140.2,20 M161.3,20c0.1,0,0.3,0,0.4,0c0.1,0,0,0-0.2,0
					C161.2,19.9,161.2,20,161.3,20 M23.4,20.4l-0.2,0.3L23.4,20.4c0.3-0.2,0.3-0.3,0.3-0.3C23.7,20.2,23.6,20.3,23.4,20.4
					 M47.7,23.2l-0.3,0.3L47.7,23.2c0.3-0.2,0.4-0.3,0.3-0.3C48,22.9,47.9,23.1,47.7,23.2 M125,26.6c0.2,0,0.6,0,0.8,0
					c0.2,0,0,0-0.4,0C124.9,26.5,124.8,26.6,125,26.6 M126.4,26.6c0.1,0,0.2,0,0.3,0s0,0-0.1,0C126.4,26.6,126.3,26.6,126.4,26.6
					 M19.8,28.4c0,0.2,0,0.3,0,0.2c0-0.1,0-0.3,0-0.4S19.8,28.2,19.8,28.4 M45.3,28.5c0,0.2,0,0.3,0,0.2s0-0.3,0-0.4
					S45.3,28.3,45.3,28.5 M19.7,29.5c0,0.2,0,0.3,0,0.2c0-0.1,0-0.3,0-0.4S19.7,29.3,19.7,29.5 M45.3,29.7
					C45.3,29.9,45.3,29.9,45.3,29.7v-0.2C45.3,29.4,45.3,29.5,45.3,29.7 M134.3,30.9c0,0.7,0,1,0,0.6c0-0.4,0-0.9,0-1.3
					C134.3,30,134.3,30.3,134.3,30.9 M19.8,30.7C19.8,30.9,19.8,30.9,19.8,30.7v-0.2C19.8,30.4,19.8,30.5,19.8,30.7 M89.4,32
					c0.1,0,0.3,0,0.3,0C89.8,32,89.7,32,89.4,32C89.4,31.9,89.3,31.9,89.4,32 M90.7,32c0.1,0,0.2,0,0.3,0c0.1,0,0,0-0.1,0
					C90.8,32,90.6,31.9,90.7,32 M105.7,32c0.1,0,0.3,0,0.3,0C106.1,32,106,32,105.7,32C105.6,31.9,105.6,31.9,105.7,32 M148.8,32
					c0.1,0,0.3,0,0.3,0C149.2,32,149.1,32,148.8,32C148.8,31.9,148.7,31.9,148.8,32 M150.2,32c0.1,0,0.3,0,0.3,0
					C150.6,32,150.5,32,150.2,32C150.1,31.9,150.1,31.9,150.2,32 M166.6,33.5c0,0.8,0,1.1,0,0.7s0-1.1,0-1.5
					C166.6,32.4,166.6,32.7,166.6,33.5 M85.2,32.6C85.2,32.8,85.3,32.8,85.2,32.6c0.1-0.1,0.1-0.2,0-0.2
					C85.2,32.3,85.2,32.4,85.2,32.6 M159,32.6c0,0.2,0,0.3,0,0.2c0-0.1,0-0.3,0-0.4C159,32.3,159,32.4,159,32.6 M132.2,33.4
					c0,0.6,0,0.9,0,0.6c0-0.3,0-0.8,0-1.1C132.2,32.5,132.2,32.8,132.2,33.4 M101.5,32.9C101.5,33.1,101.5,33.1,101.5,32.9
					c0,0,0-0.1,0-0.2C101.5,32.7,101.5,32.7,101.5,32.9 M161.9,33.5c0,0.4,0,0.6,0,0.4c0-0.2,0-0.5,0-0.8
					C161.9,33,161.9,33.1,161.9,33.5 M86.2,33.5l-0.4,0.4L86.2,33.5c0.3-0.2,0.5-0.4,0.5-0.4C86.6,33,86.6,33.1,86.2,33.5
					 M153.7,33.1c0,0,0.1,0.1,0.3,0.3l0.3,0.2l-0.2-0.3C153.8,33.1,153.7,33,153.7,33.1 M170.1,33.8l-0.2,0.3L170.1,33.8
					c0.2-0.1,0.3-0.2,0.3-0.2C170.4,33.5,170.4,33.6,170.1,33.8 M85.3,34.1c0,0.3,0.1,0.4,0.3,0.2c0,0,0-0.1-0.1,0
					C85.4,34.3,85.4,34.3,85.3,34.1v-0.3V34.1 M101.6,34.1c0,0.3,0.1,0.4,0.3,0.2c0,0,0-0.1-0.1,0C101.7,34.3,101.6,34.3,101.6,34.1
					v-0.3V34.1 M174.4,34.1c0.2,0,0.4,0,0.5,0s0,0-0.3,0S174.3,34.1,174.4,34.1 M47,34.3c0,0,0.1,0.1,0.3,0.3l0.2,0.2l-0.2-0.3
					C47.1,34.3,47,34.2,47,34.3 M98.8,43.3c0,4.9,0,8.9,0,8.9c0.1,0,0.1-6.2,0-14.5C98.9,35.8,98.8,38.4,98.8,43.3 M82.5,43.3
					c0,4.9,0,8.9,0,8.9c0.1,0,0.1-6.3,0-14.5C82.5,35.9,82.5,38.4,82.5,43.3 M139.1,34.6c-0.9,0-1.7,0.1-1.7,0.1
					S138.2,34.7,139.1,34.6c0.8,0.1,1.6,0,1.7,0c0,0,0.1-0.1,0-0.1C140.8,34.5,140.1,34.5,139.1,34.6 M132.8,34.6c0.3,0,0.8,0,1,0
					c0.3,0,0.1,0-0.5,0C132.7,34.6,132.5,34.6,132.8,34.6 M159.1,39.8c0,2.9,0,4.1,0,2.6c0-1.5,0-3.8,0-5.3
					C159.1,35.7,159.1,36.9,159.1,39.8 M134.3,38.7c0,2.2,0,3.1,0,2s0-2.9,0-4C134.3,35.6,134.3,36.5,134.3,38.7 M147.2,35.2
					l-0.2,0.3L147.2,35.2c0.3-0.2,0.3-0.3,0.3-0.3S147.4,35,147.2,35.2 M151.5,34.9c0,0,0.1,0.1,0.3,0.3l0.3,0.2l-0.2-0.3
					C151.6,34.9,151.5,34.9,151.5,34.9 M166,34.9c0,0,0.1,0,0.2,0.1c0.1,0,0.2,0,0.2,0C166.4,34.9,166,34.9,166,34.9 M112.1,37
					c0.1,0.3,0.1,0.4,0.1,0.2C112.2,37.1,112.2,37,112.1,37C112.1,36.7,112.1,36.8,112.1,37 M68.9,37.9c0,0.1,0,0.2,0,0.3
					c0,0.1,0,0,0.1-0.1C69.1,37.8,69,37.6,68.9,37.9 M112.2,38C112.2,38.2,112.2,38.2,112.2,38c0,0,0-0.1,0-0.2
					C112.2,37.8,112.2,37.8,112.2,38 M96.1,38.2C96.1,38.4,96.1,38.4,96.1,38.2c0,0,0-0.1,0-0.2C96.1,38,96.1,38.1,96.1,38.2
					 M156.5,38.5C156.5,38.7,156.5,38.7,156.5,38.5v-0.2C156.5,38.2,156.5,38.3,156.5,38.5 M142.6,38.5
					C142.6,38.7,142.6,38.7,142.6,38.5c0,0,0-0.1,0-0.2C142.6,38.3,142.6,38.3,142.6,38.5 M92.8,38.6C92.8,38.8,92.8,38.8,92.8,38.6
					v-0.2C92.8,38.4,92.8,38.4,92.8,38.6 M109.1,38.6C109.1,38.8,109.1,38.8,109.1,38.6v-0.2C109.1,38.4,109.1,38.4,109.1,38.6
					 M162.3,42.3c0,2.2,0,3.1,0,2s0-2.9,0-4S162.3,40.1,162.3,42.3 M112.3,39.2c0,0.4,0,0.6,0,0.4s0-0.6,0-0.8
					C112.3,38.5,112.3,38.7,112.3,39.2 M168.1,38.7C168.1,38.9,168.1,38.9,168.1,38.7c0,0,0-0.1,0-0.2
					C168.1,38.5,168.1,38.6,168.1,38.7 M142.5,39.5c0,0.2,0,0.3,0,0.2c0-0.1,0-0.3,0-0.4C142.6,39.1,142.5,39.2,142.5,39.5 M92.8,40
					C92.8,40.2,92.8,40.2,92.8,40v-0.2C92.8,39.7,92.8,39.8,92.8,40 M109.1,40C109.1,40.2,109.1,40.2,109.1,40v-0.2
					C109.1,39.7,109.1,39.8,109.1,40 M156.5,40c0,0.2,0,0.3,0,0.2c0-0.1,0-0.3,0-0.4S156.5,39.8,156.5,40 M96.1,40.1
					C96.1,40.3,96.1,40.3,96.1,40.1v-0.2C96.1,39.9,96.1,39.9,96.1,40.1 M168.1,40.4C168.1,40.6,168.1,40.6,168.1,40.4v-0.2
					C168.1,40.1,168.1,40.2,168.1,40.4 M142.6,40.4C142.6,40.6,142.6,40.6,142.6,40.4c0,0,0-0.1,0-0.2
					C142.6,40.2,142.6,40.3,142.6,40.4 M130.5,41c0,0.2,0,0.3,0,0.2s0-0.3,0-0.4C130.5,40.6,130.5,40.7,130.5,41 M70,40.7
					c0.8,0,2.1,0,2.9,0s0.2,0-1.4,0C69.9,40.7,69.2,40.7,70,40.7 M112.1,41.3c0,0.1,0,0.2-0.1,0.3c0,0.1,0,0.1,0,0
					C112.2,41.5,112.2,41.3,112.1,41.3C112.1,41.1,112.1,41.1,112.1,41.3 M151.7,43.5l-0.2,0.3L151.7,43.5c0.3-0.2,0.3-0.3,0.3-0.3
					S151.9,43.4,151.7,43.5 M123.4,44.1c0.1,0,0.3,0,0.4,0c0.1,0,0,0-0.2,0C123.3,44.1,123.3,44.1,123.4,44.1 M139.1,44.1
					c0.1,0,0.2,0,0.3,0s0,0-0.1,0C139.1,44.1,139.1,44.1,139.1,44.1 M144.3,44.5c0.2,0.2,0.3,0.3,0.3,0.3S144.5,44.7,144.3,44.5
					c-0.1-0.2-0.2-0.3-0.2-0.3C144,44.2,144.1,44.4,144.3,44.5 M175.4,44.3c0.2,0,0.5,0,0.7,0c0.2,0,0,0-0.4,0
					C175.4,44.3,175.2,44.3,175.4,44.3 M45.7,44.6l-0.3,0.3L45.7,44.6c0.3-0.2,0.4-0.3,0.3-0.3C46,44.3,45.9,44.5,45.7,44.6
					 M25.4,44.4c0,0,0.3,0.3,0.6,0.6l0.6,0.6L26,45C25.5,44.5,25.4,44.4,25.4,44.4 M149.3,44.5c0.1,0,0.3,0,0.3,0
					C149.7,44.5,149.6,44.5,149.3,44.5C149.3,44.4,149.2,44.5,149.3,44.5 M140.6,45.1c0,0.3,0,0.4,0,0.3c0-0.2,0-0.4,0-0.6
					C140.6,44.6,140.6,44.8,140.6,45.1 M93.9,45.1l-0.3,0.4L93.9,45.1c0.2-0.2,0.4-0.3,0.4-0.3C94.3,44.7,94.2,44.8,93.9,45.1
					 M85.7,45c0,0.1,0,0.2,0,0.2S85.7,45.1,85.7,45c0.1,0,0.1,0,0.2,0s0.1,0,0.1,0C85.8,44.8,85.7,44.8,85.7,45 M101.9,45
					c0,0.1,0,0.2,0,0.2S102,45.1,101.9,45c0.1,0,0.1,0,0.2,0c0.1,0,0.1,0,0.1,0C102.1,44.8,102,44.8,101.9,45 M144.9,45.1
					c0,0,0.1,0.1,0.3,0.3l0.3,0.2l-0.2-0.3C144.9,45.1,144.9,45,144.9,45.1 M63.3,46.3c0,0.2,0.1,0.2,1.6,0.2h1.6H65
					C63.6,46.4,63.4,46.4,63.3,46.3C63.3,46.2,63.3,46.2,63.3,46.3 M78.2,46.4h-1.6H78.2c1,0.1,1.6,0.1,1.6,0v-0.1
					C79.9,46.4,79.1,46.4,78.2,46.4 M159.9,46.5c0.4,0,1.1,0,1.5,0c0.4,0,0.1,0-0.7,0C159.9,46.4,159.5,46.5,159.9,46.5 M121.4,46.6
					c0.1,0,0.3,0,0.4,0s0,0-0.2,0C121.4,46.6,121.3,46.6,121.4,46.6 M124.8,46.6c0.1,0,0.3,0,0.3,0
					C125.2,46.6,125.1,46.6,124.8,46.6C124.8,46.6,124.7,46.6,124.8,46.6 M139.5,46.6c0.1,0,0.2,0,0.3,0c0.1,0,0,0-0.1,0
					C139.5,46.6,139.5,46.6,139.5,46.6 M173.8,46.6c0.1,0,0.3,0,0.3,0C174.2,46.6,174.1,46.6,173.8,46.6
					C173.8,46.6,173.7,46.6,173.8,46.6 M176.5,46.6c0.1,0,0.3,0,0.4,0c0.1,0,0,0-0.2,0S176.4,46.6,176.5,46.6 M41.6,46.7
					c0.1,0,0.4,0,0.6,0c0.2,0,0.1,0-0.3,0C41.6,46.7,41.4,46.7,41.6,46.7 M122.3,46.7c0.2,0,0.4,0,0.5,0c0.1,0,0,0-0.3,0
					C122.3,46.7,122.2,46.7,122.3,46.7 M123.9,46.7c0.1,0,0.3,0,0.4,0s0,0-0.2,0C123.9,46.7,123.8,46.7,123.9,46.7 M137.7,46.7
					c0.1,0,0.2,0,0.3,0c0.1,0,0,0-0.1,0C137.8,46.7,137.6,46.7,137.7,46.7 M138.8,46.7c0.1,0,0.3,0,0.4,0s0,0-0.2,0
					C138.8,46.7,138.7,46.7,138.8,46.7 M174.9,46.7c0.2,0,0.5,0,0.7,0s0,0-0.4,0C174.9,46.7,174.7,46.7,174.9,46.7 M198.1,52.5
					C198.1,52.7,198.1,52.7,198.1,52.5c0,0,0-0.1,0-0.2C198.1,52.3,198.1,52.3,198.1,52.5 M3.8,56c0.2,0.2,0.3,0.3,0.3,0.3
					S4.1,56.2,3.8,56c0-0.1-0.2-0.3-0.2-0.3S3.7,55.9,3.8,56 M6.1,57.4c0.1,0,0.2,0.1,0.3,0.1c0.1,0,0.1,0,0-0.1
					C6.3,57.4,6.2,57.3,6.1,57.4C6,57.3,6,57.4,6.1,57.4 M6.8,57.5c0.1,0,0.3,0,0.3,0C7.2,57.5,7.1,57.5,6.8,57.5
					C6.8,57.5,6.7,57.5,6.8,57.5 M193.3,57.5c0.1,0,0.3,0,0.3,0C193.7,57.5,193.6,57.5,193.3,57.5C193.3,57.5,193.2,57.5,193.3,57.5
					 M53.8,57.6c25.6,0,67.4,0,92.9,0s4.6,0-46.5,0S28.2,57.6,53.8,57.6"/>
			</g>
		</g>
	</g>
</g>
</svg>
