<?xml version="1.0" encoding="utf-8"?>
<!-- Generator: Adobe Illustrator 24.3.0, SVG Export Plug-In . SVG Version: 6.00 Build 0)  -->
<svg version="1.1" id="Calque_1" xmlns="http://www.w3.org/2000/svg" xmlns:xlink="http://www.w3.org/1999/xlink" x="0px" y="0px"
	 viewBox="0 0 200 59.6" style="enable-background:new 0 0 200 59.6;" xml:space="preserve">
<style type="text/css">
	.st0{fill-rule:evenodd;clip-rule:evenodd;fill:#FFFFFF;}
	.st1{fill-rule:evenodd;clip-rule:evenodd;fill:#57BEC3;}
	.st2{fill-rule:evenodd;clip-rule:evenodd;fill:#050606;}
	.st3{fill-rule:evenodd;clip-rule:evenodd;fill:#E7344A;}
	.st4{fill-rule:evenodd;clip-rule:evenodd;fill:#666664;}
	.st5{fill-rule:evenodd;clip-rule:evenodd;fill:#7C7D7E;}
	.st6{fill-rule:evenodd;clip-rule:evenodd;fill:#65B767;}
	.st7{fill-rule:evenodd;clip-rule:evenodd;fill:#FFD10C;}
</style>
<g>
	<g>
		<g id="svgg_2_">
			<path id="path0_2_" class="st0" d="M104.7,10.4c-4,0.9-4.9,6.3-1.3,8.4c1.1,0.7,3.3,0.8,4.3,0.2C112.6,16.5,110,9.3,104.7,10.4
				 M64.4,10.5c-3,1-4,5.6-1.7,7.7c3,2.6,7.9,0.7,7.5-3l-0.1-0.7H68h-2v0.7c-0.1,0.5-0.1,0.5,1.2,0.5c2.1,0,2.4,0.4,1.4,1.6
				c-2.4,2.8-6.8,0.4-5.9-3.3c0.5-2.2,3.6-3.3,5.1-1.9c0.4,0.4,0.5,0.4,0.8,0.1C69.9,11.3,66.4,9.9,64.4,10.5 M71.9,14.9v4.4h2.6
				h2.6v-0.6v-0.6h-2h-2l0.1-1.3l0.1-1.3l1.7-0.1c1.7-0.1,1.7-0.1,1.7-0.5c0-0.5,0-0.5-1.7-0.5l-1.7-0.1V13v-1.3l1.9-0.1
				c1.8-0.1,1.9-0.1,2-0.5c0.1-0.4,0-0.4-2.5-0.4h-2.6v4.2 M78.2,11c0.1,0.4,0.2,0.5,1.3,0.5l1.2,0.1l0.1,3.8l0.1,3.8h0.6h0.6
				l0.1-3.8l0.1-3.8l1.2-0.1c1.1-0.1,1.2-0.2,1.3-0.5l0.1-0.4h-3.2h-3.2L78.2,11 M88.7,14.9v4.4h0.6h0.6v-4.4v-4.4h-0.6h-0.6V14.9
				 M91.3,11c0,0.5,0.1,0.5,1.2,0.5h1.2v3.9v3.9h0.6h0.6l0.1-3.8l0.1-3.8l1.1-0.1c1.1-0.1,1.1-0.1,1.1-0.5v-0.5h-3h-3L91.3,11
				 M111.9,14.9v4.4h0.5c0.7,0,0.7-0.3,0.7-3.5c-0.1-3.9-0.2-3.9,2.5,0.4c1.9,3,2,3.1,2.6,3.1h0.6v-4.4v-4.4h-0.6
				c-0.3,0-0.6,0.1-0.6,0.2c0,0.1,0,1.5,0,2.9c0,1.9-0.1,2.7-0.3,2.8c-0.3,0.1-0.4-0.1-2.6-3.7c-1.4-2.2-1.4-2.2-2.1-2.2h-0.8
				L111.9,14.9 M106.9,11.7c1.4,0.7,2.1,1.8,2.1,3.1c0,3.3-3.5,4.8-5.7,2.5C100.9,14.7,103.8,10.1,106.9,11.7 M69.7,25.6
				c-8.2,1.5-11.5,10.8-5.7,16.3c6.2,6,15.9,2.2,15.9-6.2v-1.3h-4.6h-4.6l0.1,1.1l0.1,1.1l3.1,0.1l3.1,0.1v0.5
				c0,4.6-7.4,6.6-11.3,3.1c-6.2-5.7,1.4-15.8,8.6-11.4c1.2,0.7,1.2,0.7,2.3-0.4l0.5-0.5l-0.5-0.5C75.2,26.3,71.8,25.3,69.7,25.6
				 M122.5,35.2v9.1h1.3h1.3v-8.8c0-10.2,0.1-9.4-1.4-9.4h-1.2L122.5,35.2 M144.3,35.2v9.1h1.3h1.3v-3.4c0-4-0.3-3.6,3.1-3.6
				c4.3,0,6.6-1.9,6.7-5.4c0.1-4.1-2.4-5.8-8.7-5.8h-3.7L144.3,35.2 M158.4,35.2v9.1h1.3h1.3v-8.8c0-10.2,0.1-9.4-1.4-9.4h-1.2
				L158.4,35.2 M152.2,28.7c1.7,0.8,2.4,2.5,1.8,4.1c-0.7,1.8-1.9,2.4-5,2.3l-2-0.1l-0.1-3.1c0-1.7,0-3.2,0-3.3
				C147.1,28.1,151.1,28.2,152.2,28.7 M113.5,32.5c-3.8,0.8-6,5.1-4.4,8.6c1.6,3.4,5.5,4.6,8.1,2.6c0.6-0.5,0.8-0.3,0.8,0.5
				c0,3.7-3.9,5.2-6.3,2.5l-0.6-0.8l-0.9,0.4c-0.5,0.2-0.9,0.4-1,0.5c-0.2,0.2,0.6,1.3,1.4,2c3,2.7,7.5,1.8,9.2-1.7l0.5-1.1v-6.6
				v-6.6l-1-0.1c-1-0.1-1.1,0-1.3,0.5c-0.2,0.5-0.2,0.5-0.7,0.2C116,32.5,114.7,32.2,113.5,32.5 M166.7,32.5
				c-1.9,0.4-3.9,1.9-3.3,2.5c0.6,0.5,2,1,2.3,0.7c1.1-1.5,4.1-1.2,5.1,0.5c0.5,0.9,0.2,1.2-0.9,0.9c-4.2-1.3-8.2,2-6.5,5.3
				c1.3,2.5,4.9,3.2,6.9,1.3c0.7-0.7,0.9-0.6,0.9,0.1v0.6h1.3h1.3V41c0-3.7-0.2-4.9-1.2-6.3C171.5,33,168.9,32.1,166.7,32.5
				 M85.8,32.6c-5.8,1.5-6.7,8.9-1.4,11.7c1.3,0.7,4.3,0.7,5.6,0C96.3,41.1,92.7,30.9,85.8,32.6 M99.4,32.7
				c-7.4,1.9-5.6,12.6,2,12.2s7.6-11.8,0-12.2C100.6,32.6,99.7,32.6,99.4,32.7 M131.2,32.7c-5.6,1.4-5.9,9.9-0.5,11.9
				c2,0.8,4.8,0.2,6.3-1.3c0.8-0.8,0.8-1-0.2-1.7l-0.8-0.5l-0.7,0.6c-1.6,1.4-3.8,1.4-5.1-0.2c-0.7-0.8-0.6-0.9,1.6-1.8
				c0.9-0.4,2.2-0.9,2.9-1.2c0.7-0.3,1.3-0.6,1.4-0.6c0.3,0,1.9-0.8,1.9-1C137.9,34.4,134,32,131.2,32.7 M174.1,33.2
				c0.1,0.3,0.4,1.1,0.7,1.8c0.3,0.7,0.8,1.7,1,2.2c0.2,0.5,0.6,1.4,0.9,2.1c2,4.3,2,4.5,1.5,5.6c-1.8,3.8-2.2,4.9-1.9,5
				c0.4,0.2,1.7,0.1,2,0c0.3-0.2,0.7-1.2,4.2-9.3c0.6-1.4,1.3-3,1.5-3.5c0.7-1.6,1.8-4.1,1.8-4.2c0-0.3-2.3-0.2-2.5,0.1
				c-0.1,0.1-0.6,1.4-1.1,2.7c-0.5,1.4-1.1,2.8-1.2,3.1c-0.1,0.3-0.4,0.9-0.5,1.3c-0.4,1-0.6,0.7-2.2-3.2c-1.9-4.6-1.6-4.2-3-4.2
				C174,32.7,174,32.7,174.1,33.2 M88.7,35c3.4,1.8,2.3,7.5-1.5,7.5c-2.2,0-3.7-1.6-3.7-3.9C83.5,35.8,86.4,33.8,88.7,35
				 M102.4,34.9c3.6,1.8,2.5,7.6-1.5,7.6c-3.9,0-5-5.6-1.5-7.6C99.9,34.7,101.8,34.7,102.4,34.9 M116.2,35c2.5,1.2,2.6,5.7,0.2,7.1
				c-2.7,1.6-6.2-1.3-5.3-4.4C111.9,35.2,114.1,34,116.2,35 M134.1,35.1c1.1,0.7,1,1.1-0.1,1.6c-0.5,0.2-1.4,0.6-2.1,0.9
				c-0.7,0.3-1.4,0.6-1.5,0.6c-0.1,0-0.3,0.1-0.4,0.2c-0.3,0.4-0.7,0.2-0.7-0.4C129.3,35.7,132.4,33.9,134.1,35.1 M170.4,39.2
				c0.7,0.4,0.7,0.3,0.3,1.1c-0.9,2.1-3.5,2.9-4.9,1.6C163.8,40,167.6,37.8,170.4,39.2"/>
			<path id="path1_2_" class="st1" d="M15.4,11.5c-0.7,0.4-0.5,36.4,0.2,36.4c0.1,0,4.3-4.1,9.3-9.1l9.1-9.1l-9.1-9.1
				C17.7,13.3,15.6,11.4,15.4,11.5"/>
			<path id="path2_2_" class="st2" d="M2.1,1.7c-0.7,0.7-1,1.2-0.6,0.9c0.4-0.2,1.2-1.2,1-1.2C2.5,1.4,2.3,1.5,2.1,1.7 M6.2,1.6
				C4.5,1.9,2.8,3.3,1.9,5L1.4,5.9v23.9v23.9l0.5,0.9c0.7,1.3,1.9,2.5,3.1,3l1,0.5h93.8c91.8,0,93.8,0,94.8-0.4
				c1.6-0.6,3-2.1,3.6-3.9c0.4-1,0.4-46.9,0-48c-0.7-1.8-1.8-3.1-3.5-3.9l-0.9-0.4h-93.4C49.1,1.4,6.7,1.5,6.2,1.6 M197.7,1.8
				c0.7,0.9,1.1,1.2,1.1,1s-1.1-1.4-1.3-1.4C197.4,1.4,197.5,1.5,197.7,1.8 M67.4,10.3c1.5,0.6,2.1,1.2,1.7,1.9
				c-0.4,0.6-0.9,0.7-1.3,0.2c-1.5-1.8-4.7-0.1-4.7,2.6c0,3.2,3.4,4.5,5.4,2.1c0.8-0.9,0.7-1-1.1-1h-1.6v-0.9v-0.9l2.3,0.1l2.3,0.1
				l0.1,1c0.2,4.3-6.1,5.9-8.6,2.2C59.4,13.7,63.1,8.7,67.4,10.3 M107,10.2c5.4,1.5,4.7,9.2-0.9,9.5c-1.7,0.1-2.4-0.1-3.6-1.1
				C98.8,15.2,102.1,8.8,107,10.2 M77.3,11l0.1,0.7l-2,0.1l-2,0.1l-0.1,1l-0.1,1h1.7c2,0,2.2,0.1,2.1,1v0.7l-1.8,0.1l-1.8,0.1
				l-0.1,0.6c-0.2,1.4,0,1.5,2.1,1.5h1.9l-0.1,0.8l-0.1,0.8l-2.7,0.1c-3.3,0.1-3,0.5-3-4.8c0-5.2-0.3-4.8,3.1-4.7l2.6,0.1L77.3,11
				 M84.7,11l0.1,0.7l-1.2,0.1l-1.2,0.1l-0.1,3.7c-0.1,4-0.1,4.3-1.1,4.2l-0.6-0.1l-0.1-3.9l-0.1-3.9l-1.2-0.1
				c-1.1-0.1-1.2-0.2-1.3-0.6c-0.1-1-0.1-1,3.4-1l3.3,0.1L84.7,11 M90.1,10.5c0.1,0.2,0.2,2.1,0.2,4.6c0,4.6,0,4.7-1.1,4.6l-0.6-0.1
				v-4.5c0-2.5,0-4.6,0-4.7C88.8,10,89.9,10.1,90.1,10.5 M97.5,10.4c0.6,0.7,0.2,1.2-1.1,1.3l-1.2,0.1l-0.1,3.9L95,19.6h-0.7h-0.7
				l-0.1-3.9l-0.1-3.9l-1.2-0.1c-1.2-0.1-1.9-0.9-1.1-1.4C91.6,10,97.2,10.1,97.5,10.4 M113.5,10.4c0.2,0.2,1,1.5,2,3l1.7,2.7l0.1-3
				l0.1-3h0.8h0.8v4.7v4.7l-0.6,0.1c-0.3,0-0.7,0-0.8-0.1c-0.2-0.2-3.6-5.3-3.8-5.7c-0.3-0.8-0.5,0-0.5,2.7l-0.1,3h-0.7h-0.7
				l-0.1-4.5c0-2.5,0-4.6,0-4.7C111.9,10.1,113.2,10.1,113.5,10.4 M22.7,13.5C33.9,19.9,47.2,27.5,48,28c0.6,0.4,1.2,1.7,1.1,2.4
				c-0.3,1.1-0.9,1.5-8.3,5.4c-1,0.5-6.2,3.5-11.5,6.5c-11.8,6.8-11.2,6.4-12.3,6.4c-2.3,0-2.2,0.6-2.2-19c0-17.9,0-18.1,1-18.6
				C17,10.4,17.6,10.6,22.7,13.5 M104.4,12c-2.1,1.2-2.2,4.1-0.3,5.6c1.9,1.4,4.5,0,4.7-2.5C109,12.8,106.3,10.9,104.4,12
				 M73.5,25.7c1.7,0.5,4,1.9,4,2.5c0,0.2-1.7,2-1.9,2c-0.1,0-0.4-0.2-0.7-0.5c-5.7-4.2-13.4,2.3-10.2,8.7
				c2.6,5.3,10.9,4.9,12.2-0.7l0.1-0.6h-3.2L70.6,37l-0.1-1c0-0.5,0-1.2,0.1-1.4l0.1-0.5h4.4c5.4,0,5-0.2,5,1.9
				c0,10.9-15.3,12.6-18.9,2C58.8,31,66.2,23.5,73.5,25.7 M125.2,35.3l-0.1,9.3l-1.4,0.1l-1.4,0.1v-9.4V26h1.5h1.5L125.2,35.3
				 M153,26.3c5.4,2,5.2,9.2-0.2,11.1c-0.7,0.2-1.7,0.3-3.3,0.3h-2.4l-0.1,3.4l-0.1,3.4h-1.5H144l-0.1-9.1c0-5,0-9.2,0-9.3
				C144.1,25.7,151.8,25.8,153,26.3 M161.1,35.3v9.3l-1.4,0.1l-1.4,0.1v-9.4V26l1.4,0.1l1.4,0.1V35.3 M147,31.7v3h2.3
				c3.3,0,4.4-0.8,4.4-3.1c0-2.1-1.2-2.9-4.5-2.9H147V31.7 M116.9,32.7c0.8,0.4,0.8,0.4,1.1,0.1c0.2-0.3,0.5-0.3,1.4-0.3l1.2,0.1
				l0.1,6.4c0.1,7,0,7.8-1.1,9.3c-0.6,0.8-1.8,1.8-2.3,1.8c-0.2,0-0.4,0.1-0.5,0.2c-0.8,0.8-4.7,0.1-6.1-1.2c-1.9-1.7-2-2.5-0.3-3
				l1-0.4l1,1c2,2,4.7,1.3,5.4-1.4c0.3-1.4,0.3-1.5-0.7-1c-4.6,2.6-10-2.4-8.3-7.6C109.8,33,113.9,31.1,116.9,32.7 M171,32.8
				c2.4,1.3,3,2.9,2.9,8.1l-0.1,3.7h-1.4c-1.4,0-1.4,0-1.5-0.5c-0.1-0.7-0.1-0.7-0.7-0.1c-3.4,3.3-9.5-1.3-7-5.2
				c1-1.6,4.3-2.8,5.9-2.2c1.7,0.6,1.9,0.4,1-0.6c-1-1.1-3.1-1.2-4-0.2c-0.7,0.7-3.1,0.1-3.1-0.7C163,32.7,168.2,31.3,171,32.8
				 M89.9,32.8c6.4,2.8,4.3,12.4-2.7,12.3c-6.9,0-9-9.3-2.7-12.4C85.9,32.1,88.2,32.1,89.9,32.8 M103.7,32.9
				c4.1,1.8,4.9,7.6,1.6,10.6c-3.7,3.4-9.5,1.6-10.8-3.2C93.2,35,98.7,30.6,103.7,32.9 M134.8,32.7c1.1,0.5,2.4,1.8,3,3.2
				c0.6,1.2,0.5,1.4-0.8,1.9c-0.5,0.2-1.3,0.6-1.9,0.8c-0.6,0.3-1.2,0.5-1.3,0.5s-0.3,0.1-0.4,0.2c-0.1,0.1-0.8,0.4-1.6,0.7
				c-1.9,0.8-1.9,0.8-1.1,1.6c1.1,1,3.1,1,4.3,0c1-0.9,1.1-0.9,2.2-0.1c1.1,0.7,1.1,0.9,0.2,1.8c-4.1,4.1-10.9,1.2-10.9-4.7
				C126.5,34.1,130.9,31,134.8,32.7 M176.8,32.8c0.1,0.1,0.6,1.2,1,2.3c0.5,1.2,1,2.4,1.1,2.7c0.1,0.3,0.4,0.9,0.5,1.4
				c0.3,0.9,0.8,1.4,0.8,0.9c0-0.2,0.1-0.6,0.3-1c0.2-0.4,0.5-1.3,0.8-2.1c1.2-3.2,1.6-4,1.8-4.2c0.2-0.3,2.8-0.4,3-0.1
				c0.1,0.1-0.7,2.3-1.7,4.3c-0.6,1.2-1.3,2.9-1.6,3.7c-0.2,0.5-0.6,1.5-0.9,2.2c-0.3,0.7-1.1,2.6-1.8,4.1c-1.5,3.5-1.3,3.3-2.9,3.3
				c-1.5,0-1.7-0.2-1.1-1.3c0.2-0.3,0.6-1.2,0.9-2c0.3-0.8,0.8-1.7,0.9-2c0.3-0.6,0.4-1.7,0.1-2c-0.1-0.1-0.5-1-0.9-2
				c-0.4-1-1-2.2-1.2-2.8c-0.2-0.5-0.7-1.7-1.1-2.5c-0.4-0.8-0.8-1.8-0.9-2.1c-0.2-0.4-0.2-0.7-0.2-0.8
				C173.9,32.4,176.5,32.5,176.8,32.8 M86.2,35.1c-1.9,0.5-3,3-2.2,5c1.1,2.6,3.9,3.1,5.7,0.9C91.8,38.4,89.4,34.2,86.2,35.1
				 M99.9,35.1c-0.8,0.2-2.2,1.7-2.3,2.6c-0.8,4.5,4.4,6.4,6.4,2.4C105.3,37.4,103,34.5,99.9,35.1 M113.8,35.1
				c-3.6,0.7-2.9,7.3,0.8,7.3c3.9,0,4.6-6.6,0.8-7.3C114.6,34.9,114.5,34.9,113.8,35.1 M131.8,35.1c-0.9,0.2-2.3,2-2.3,2.9
				c0,0.3,0.5,0.1,2-0.5c0.6-0.3,1.1-0.5,1.2-0.5c0.4,0,1.9-0.9,1.9-1.1C134.5,35.3,132.7,34.8,131.8,35.1 M166.4,39.6
				c-1.5,1-0.7,2.7,1.2,2.7c1.1,0,3-1.6,3-2.5C170.6,39.1,167.5,38.9,166.4,39.6"/>
			<path id="path3_2_" class="st3" d="M24.9,39.1c-7.2,7.2-9.1,9.2-8.9,9.4c0.4,0.4,1.5,0.3,2.6-0.3c0.8-0.4,21.2-12,21.5-12.2
				c0.1-0.1-5.8-6.1-6-6.1C34.1,29.9,29.9,34,24.9,39.1"/>
			<path id="path4_2_" class="st4" d="M196.2,0.7c0,0.1,0.2,0.3,0.4,0.4c0.2,0.1,0.4,0.2,0.4,0.1c0-0.1-0.2-0.3-0.4-0.4
				C196.4,0.7,196.2,0.6,196.2,0.7 M53.6,1.3c25.6,0,67.4,0,92.9,0s4.6-0.1-46.5-0.1S28,1.3,53.6,1.3 M5.1,1.7c-1,0.5-2.6,1.9-3,2.7
				c-0.2,0.3-0.2,0.4,0,0.2C3.2,3,4.8,1.8,6.3,1.5C7,1.4,7.1,1.3,6.6,1.3C6.2,1.4,5.5,1.5,5.1,1.7 M193.8,1.6
				c1.5,0.3,3.1,1.5,4.2,3.1c0.1,0.2,0.1,0.1,0-0.2c-0.7-1.4-3.1-3.1-4.4-3.1C193,1.4,193,1.4,193.8,1.6 M1.3,2.7
				C1,3.1,0.9,3.4,1.1,3.3c0.1,0,0.3-0.2,0.4-0.5C1.8,2.3,1.8,2.2,1.3,2.7 M1.5,5.5C1.4,5.7,1.4,6,1.4,6.3S1.5,6.5,1.6,6
				C1.8,5.2,1.7,4.9,1.5,5.5 M198.2,5.3c0,0.2,0.1,0.4,0.2,0.6c0.2,0.3,0.2,0.3,0.2,0c0-0.2-0.1-0.4-0.2-0.6
				C198.2,5.1,198.2,5.1,198.2,5.3 M1.3,29.7c0,12.7,0,17.9,0.1,11.5c0-6.3,0-16.7,0-23.1C1.3,11.8,1.3,17,1.3,29.7 M198.7,29.7
				c0,12.7,0,17.9,0.1,11.5c0-6.3,0-16.7,0-23.1C198.7,11.8,198.7,17,198.7,29.7 M65.5,10.1c0.2,0,0.6,0,0.8,0c0.2,0,0-0.1-0.5-0.1
				C65.4,10,65.2,10,65.5,10.1 M105.4,10.1c0.2,0,0.6,0,0.8,0c0.2,0,0-0.1-0.5-0.1C105.4,10,105.2,10,105.4,10.1 M72.7,10.3
				c2.2,0.1,4.6,0.2,4.5,0c-0.1-0.1-1.3-0.1-2.7-0.1C73,10.2,72.2,10.2,72.7,10.3 M78,10.4c-0.1,0.2-0.1,0.5,0,0.7
				c0.1,0.3,0.1,0.3,0.1-0.2v-0.7l3.3,0.1c1.8,0,3.2,0,3.2-0.1C84.4,10,78.1,10.1,78,10.4 M88.6,10.4c-0.1,0.1-0.1,2.3,0,4.7
				l0.1,4.5l0.6,0.1c1.1,0.1,1.1,0,1.1-4.7v-4.3l-0.1,4.4L90,19.4l-0.6,0.1l-0.6,0.1V15v-4.6l0.7,0.1c0.4,0,0.6,0,0.6-0.1
				C89.8,10,88.7,10.1,88.6,10.4 M94.3,10.3l3.1,0.1V11c0,0.3,0.1,0.6,0.1,0.5c0.2-0.1,0.2-1-0.1-1.2c-0.2-0.2-1.1-0.2-3.2-0.2h-3
				L94.3,10.3 M111.8,10.3c-0.1,0.1,0.3,0.1,0.7,0.1c0.4,0,0.8-0.1,0.8-0.2C113.3,10.1,111.9,10.1,111.8,10.3 M117.4,10.4
				c-0.1,0.1-0.1,1.5,0,3l0.1,2.7v-2.8L117.4,10.4l0.8,0.1c0.4,0,0.7,0.1,0.8,0.3c0.1,0.2,0.1,0.2,0.1,0
				C119,10.1,117.5,10,117.4,10.4 M63.4,10.7c-0.3,0.2-0.8,0.6-1.1,0.9c-0.4,0.5-0.3,0.5,0.4-0.1c0.4-0.4,1-0.8,1.2-0.9
				s0.3-0.2,0.3-0.2C64.1,10.3,63.8,10.5,63.4,10.7 M90.9,10.9c0,0.3,0.1,0.6,0.2,0.7c0.1,0.1,0.1-0.2,0.1-0.6
				C91,10.2,90.9,10.1,90.9,10.9 M71.6,14.9c0,2.5,0,3.5,0.1,2.2c0-1.2,0-3.3,0-4.5C71.6,11.5,71.6,12.5,71.6,14.9 M15.7,11.1
				c-0.9,0.5-0.5,0.5,0.4,0.1c0.4-0.2,0.6-0.4,0.5-0.4C16.4,10.8,16,10.9,15.7,11.1 M68.7,11.3c0.3,0.3,0.5,0.6,0.6,0.5
				C69.4,11.8,69.1,11.5,68.7,11.3l-0.5-0.6L68.7,11.3 M108.4,10.9c1,0.9,1.4,1.2,1,0.7c-0.2-0.3-0.6-0.6-0.8-0.7
				C108.4,10.8,108.3,10.8,108.4,10.9 M105.3,11.7c0.2,0,0.5,0,0.7,0c0.2-0.1,0-0.1-0.3-0.1C105.3,11.6,105.1,11.6,105.3,11.7
				 M66.9,12c0.3,0.1,0.6,0.3,0.8,0.4c0.2,0.1,0.1,0-0.2-0.2c-0.3-0.2-0.6-0.4-0.8-0.4C66.5,11.8,66.6,11.8,66.9,12 M80.5,15.7
				l0.1,3.9l0.6,0.1c0.3,0,0.7-0.1,0.8-0.2c0.3-0.3,0.4-7.7,0.2-7.7c-0.1,0-0.2,1.7-0.2,3.8v3.8l-0.6,0.1l-0.6,0.1v-3.8
				c0-2.1-0.1-3.8-0.1-3.9C80.5,11.8,80.5,13.5,80.5,15.7 M93.5,15.7l0.1,3.9l0.6,0.1c0.3,0,0.7,0,0.7-0.1c0.1-0.1-0.1-0.1-0.5-0.1
				l-0.7,0.1v-3.8c0-2.1-0.1-3.8-0.1-3.9C93.5,11.8,93.4,13.5,93.5,15.7 M63.6,12.8L63,13.4L63.6,12.8c0.4-0.3,0.7-0.6,0.7-0.6
				C64.3,12,64.2,12.2,63.6,12.8 M103.3,12.7c-0.2,0.3-0.5,0.7-0.6,0.9c-0.1,0.3-0.1,0.3,0.1,0C102.9,13.4,103.2,13,103.3,12.7
				c0.3-0.1,0.5-0.4,0.4-0.4C103.8,12.2,103.6,12.4,103.3,12.7 M108,12.8c0.3,0.4,0.6,0.7,0.7,0.6C108.7,13.4,108.5,13,108,12.8
				l-0.6-0.7L108,12.8 M110.1,12.9c0.2,0.4,0.4,0.7,0.4,0.6c0.1-0.2-0.5-1.4-0.7-1.4C109.8,12.1,109.9,12.5,110.1,12.9 M14.8,29.5
				c0,9.4,0,17.2,0.1,17.4c0.1,0.3,0.1-21.2,0-30.6C14.9,14.2,14.9,20.1,14.8,29.5 M101,13.5c-0.2,0.2-0.2,2.8,0,2.9
				c0.1,0.1,0.1-0.6,0.1-1.5c0-0.9,0-1.6,0-1.6C101.2,13.3,101.1,13.4,101,13.5 M113.9,14c0.1,0.2,0.3,0.6,0.5,0.8l0.3,0.4l-0.2-0.4
				C114.4,14.6,114.2,14.2,113.9,14l-0.2-0.4L113.9,14 M75,14.1l1.8,0.1l0.1,0.6l0.1,0.6h-1.7c-0.9,0-1.7,0.1-1.8,0.1
				c-0.1,0.1,0.7,0.1,1.7,0l1.8-0.1l0.1-0.7c0.1-0.9-0.2-1-2.2-1h-1.7L75,14.1 M110.5,14.7c0,0.5-0.1,1.1-0.1,1.4l-0.1,0.5l0.2-0.5
				C110.6,15.8,110.7,15.2,110.5,14.7v-0.9V14.7 M62.8,15c0,0.5,0,0.8,0.1,0.4c0.1-0.4,0-0.8,0-1C62.8,14.2,62.8,14.5,62.8,15
				 M68.2,14.5c1.3,0,2.1,0.2,2.2,0.3c0.1,0.2,0.1,0.2,0.1-0.1C70.4,14.5,70,14.4,68.2,14.5l-2-0.1L68.2,14.5 M70.4,15.9
				c0,0.3-0.1,0.8-0.1,1c-0.1,0.3-0.1,0.3,0.1,0C70.5,16.7,70.6,16.3,70.4,15.9v-0.6V15.9 M115,15.9c0.2,0.4,0.5,0.7,0.6,0.9
				c0.1,0.1,0.1-0.1-0.2-0.5c-0.2-0.4-0.5-0.8-0.6-0.9C114.7,15.3,114.8,15.6,115,15.9 M65.7,16c0,0.1,0.7,0.1,1.5,0.1
				c1.6,0,1.4-0.1-0.5-0.2C66.2,15.9,65.7,15.9,65.7,16 M102.7,16.1c0,0.1,0.3,0.5,0.6,0.9c0.4,0.4,0.5,0.4,0.2,0.1
				c-0.2-0.3-0.5-0.7-0.6-0.9C102.8,16,102.7,16,102.7,16.1 M108,17.2c-0.1,0.1-0.4,0.4-0.8,0.6s-0.5,0.4-0.4,0.4
				c0.3,0,1.7-1.2,1.4-1.2C108.2,16.9,108.1,17,108,17.2 M61.9,17.6c0.1,0.2,0.5,0.6,0.8,0.9l0.6,0.5l-0.6-0.7
				C61.7,17.2,61.7,17.2,61.9,17.6 M69.2,18.3c-0.7,0.8-0.7,0.9-0.1,0.3c0.6-0.5,1.2-1.3,1-1.3C70.1,17.3,69.7,17.8,69.2,18.3
				 M105.5,18.3c0.2,0,0.5,0,0.7,0s0-0.1-0.3-0.1C105.5,18.2,105.3,18.2,105.5,18.3 M118.9,19.2c0,0.2-0.2,0.3-0.6,0.4l-0.6,0.1h0.7
				c0.6,0,1.1-0.4,0.8-0.7C118.9,18.9,118.9,19,118.9,19.2 M103.6,19.3c0.1,0.1,0.5,0.3,0.8,0.3c0.8,0.2,0.6,0-0.3-0.3
				C103.7,19.2,103.5,19.2,103.6,19.3 M74.4,19.5l-2.8,0.1L74.4,19.5c1.6,0.1,2.7,0.1,2.8-0.1c0.1-0.1,0.1-0.2,0.1-0.2
				S76,19.5,74.4,19.5 M111.8,19.6c0.1,0.1,0.4,0.1,0.7,0.1c0.3,0,0.6-0.1,0.7-0.1c0.1-0.1-0.3-0.1-0.7-0.1
				C112.1,19.4,111.8,19.5,111.8,19.6 M40,23.5c0,0.1,0.7,0.5,1.4,0.9c0.8,0.4,1.4,0.7,1.3,0.6C42.5,24.8,40,23.4,40,23.5
				 M43.1,25.3c0.1,0.1,0.7,0.5,1.4,0.9c0.7,0.4,1.1,0.6,1,0.5c-0.1-0.1-0.7-0.5-1.4-0.9C43.4,25.4,42.9,25.2,43.1,25.3 M68.7,25.5
				c-0.2,0.1,0.5,0.1,1.6,0.1c2.7-0.1,3-0.2,0.7-0.2C69.9,25.4,68.9,25.4,68.7,25.5 M143.9,26.2c-0.1,0.1-0.1,4.3,0,9.3l0.1,9.1
				l1.4,0.1c0.8,0,1.5,0,1.5-0.1c0.1-0.1-0.5-0.1-1.3-0.1l-1.5,0.1l0.1-9.3c0-5.1,0-9.3,0-9.3C144.1,25.9,144,26,143.9,26.2
				 M161,35.2l0.1,9.3l-1.4-0.1c-0.8,0-1.4,0-1.4,0.1c0,0.1,0.7,0.1,1.4,0.1l1.4-0.1l0.1-9.2c0-5,0-9.2-0.1-9.3
				C161,26,161,30.1,161,35.2 M153.1,26.4c0.2,0.2,1.4,0.7,1.4,0.6C154.4,26.9,153.3,26.3,153.1,26.4C153,26.3,153,26.4,153.1,26.4
				 M45.8,26.8c0,0.1,0.4,0.3,0.8,0.5c0.4,0.2,1.1,0.7,1.5,1c0.4,0.3,0.7,0.5,0.6,0.3C48.5,28.2,45.8,26.5,45.8,26.8 M65,27.2
				l-0.6,0.5L65,27.2c0.4-0.2,0.7-0.4,0.7-0.5C65.7,26.6,65.5,26.8,65,27.2 M75.9,26.8c0,0,0.3,0.3,0.6,0.5c0.4,0.3,0.5,0.3,0.4,0.1
				C76.7,27.1,75.9,26.6,75.9,26.8 M69.2,28.3c-0.3,0.1,0.4,0.1,1.6,0.1c1.1,0,1.8-0.1,1.6-0.1c-0.3-0.1-1-0.1-1.6-0.1
				C70.1,28.2,69.4,28.2,69.2,28.3 M156.1,29.1c0.2,0.4,0.5,0.8,0.5,0.7c0.1-0.1-0.5-1.3-0.7-1.4C155.8,28.4,155.9,28.7,156.1,29.1
				 M73.3,28.8c0.3,0.2,0.6,0.3,0.7,0.3c0.1,0,0-0.1-0.3-0.3c-0.3-0.2-0.6-0.3-0.7-0.3C72.9,28.5,73,28.7,73.3,28.8 M148.1,28.7
				c0.6,0,1.6,0,2.2,0c0.6,0,0.1-0.1-1.2-0.1C147.9,28.6,147.5,28.6,148.1,28.7 M49,29.9c0,0.8-0.7,1.6-1.9,2.3
				c-1.6,0.9-2.1,1.3-1,0.7C48.2,31.9,49.3,30.7,49,29.9C49,29.5,49,29.5,49,29.9 M65.5,30.6c-0.8,1-1.2,1.7-1.1,1.9
				c0.1,0.1,0.2-0.1,0.2-0.3c0.1-0.2,0.5-0.9,0.9-1.4c0.4-0.5,0.7-1,0.7-1C66.2,29.7,65.8,30.1,65.5,30.6 M156.7,31.8
				c0,0.8,0.1,1.3,0.1,1.1c0.1-0.2,0.1-0.7,0.1-1.1c0-0.4-0.1-1-0.1-1.1C156.8,30.5,156.7,31,156.7,31.8 M153.9,31.6
				c0,0.5,0,0.8,0.1,0.4c0-0.3,0-0.8,0-1C153.9,30.8,153.9,31.1,153.9,31.6 M85.1,32.5c-0.2,0.1-0.1,0.2,0.4,0.1
				c0.9-0.2,1-0.3,0.4-0.3C85.6,32.3,85.3,32.4,85.1,32.5 M87.9,32.4c0,0,0.4,0.1,0.8,0.2c0.5,0.1,0.6,0.1,0.4-0.1
				C88.8,32.3,87.7,32.2,87.9,32.4 M98.9,32.5c-0.2,0.1-0.1,0.2,0.4,0.1c0.9-0.2,1-0.3,0.4-0.3C99.4,32.3,99.1,32.4,98.9,32.5
				 M101.7,32.4c0,0,0.4,0.1,0.8,0.2c0.5,0.1,0.6,0.1,0.4-0.1C102.6,32.3,101.5,32.2,101.7,32.4 M115.9,32.4c0.4,0.3,2,1.1,2,1
				C117.9,33.2,116.2,32.3,115.9,32.4C115.9,32.3,115.9,32.3,115.9,32.4 M130.7,32.5c-0.2,0.1-0.1,0.2,0.4,0.1
				c0.9-0.2,1-0.3,0.4-0.3C131.2,32.3,130.8,32.4,130.7,32.5 M118.4,32.6c0.9,0.2,2.3,0.2,2.2,0c-0.1-0.1-0.6-0.1-1.3-0.1
				C118.5,32.6,118.2,32.6,118.4,32.6 M173.7,32.7c-0.1,0.1-0.1,0.3,0,0.3c0.1,0.1,0.1,0,0.1-0.1c0-0.4,2.7-0.3,3,0.1
				c0.1,0.2,0.2,0.3,0.2,0.1C177,32.6,174.1,32.1,173.7,32.7 M183,32.8c-0.1,0.1-0.2,0.3-0.2,0.4s0.1,0.1,0.2-0.1
				c0.4-0.6,3.1-0.5,2.9,0.1c-0.1,0.4-0.1,0.4,0.1,0.1c0.1-0.2,0.2-0.4,0.1-0.5C185.9,32.4,183.3,32.5,183,32.8 M97.5,33.1
				c-0.9,0.6-0.8,0.7,0.1,0.2c0.9-0.5,1-0.6,0.7-0.6C98.3,32.7,97.9,32.9,97.5,33.1 M111.3,33.1l-0.5,0.4L111.3,33.1
				c0.9-0.5,0.9-0.5,0.7-0.5C111.8,32.7,111.5,32.9,111.3,33.1 M129.1,33.3c-0.4,0.3-0.9,0.7-1.1,0.9c-0.2,0.2,0,0.1,0.3-0.1
				c0.3-0.3,0.9-0.7,1.3-0.9c0.4-0.2,0.6-0.4,0.5-0.4C130,32.7,129.6,33,129.1,33.3 M135.3,33.1c0.3,0.2,0.6,0.4,0.7,0.4
				c0.2,0-0.1-0.3-0.8-0.6C134.9,32.8,134.9,32.8,135.3,33.1 M164.1,33.5l-0.8,0.7L164.1,33.5c0.3-0.2,0.7-0.6,0.8-0.6
				c0.1-0.1,0.1-0.2,0-0.2C164.8,32.7,164.5,33.1,164.1,33.5 M170.9,32.9c0.5,0.5,1.8,1.3,1.5,1c-0.2-0.2-0.6-0.6-1-0.8
				C171,32.8,170.8,32.7,170.9,32.9 M91,33.6c0.4,0.3,0.9,0.8,1.2,1.1c0.3,0.4,0.4,0.5,0.3,0.2c-0.2-0.4-1.7-1.9-2-1.9
				C90.5,33.1,90.7,33.4,91,33.6 M104.4,33.2c0.1,0.1,0.6,0.5,1,0.9l0.8,0.7l-0.6-0.7c-0.3-0.4-0.8-0.8-1-0.9
				C104.4,33.2,104.3,33.1,104.4,33.2 M43.3,34.2c-0.5,0.3-0.9,0.5-0.9,0.6s0.5-0.1,1-0.4c0.5-0.3,1-0.5,1-0.6
				C44.4,33.7,44.4,33.7,43.3,34.2 M82.4,34.2c-0.2,0.2-0.5,0.6-0.6,0.7C81.6,35.2,81.7,35.2,82.4,34.2c0.4-0.2,0.5-0.4,0.5-0.4
				C82.8,33.7,82.6,33.9,82.4,34.2 M63.8,35.2c0,0.7,0,0.9,0.1,0.5c0-0.4,0-0.9,0-1.2C63.8,34.3,63.8,34.6,63.8,35.2 M73,34.3
				c1.3,0,3.4,0,4.6,0s0.2-0.1-2.4-0.1S71.7,34.2,73,34.3 M60.8,35.2c0,0.4,0,0.6,0.1,0.3c0-0.2,0-0.6,0-0.8
				C60.8,34.6,60.8,34.8,60.8,35.2 M70.6,35.7c0,0.7,0,1.3,0.1,1.3c0.1,0.1,0.1-0.3,0.1-0.8C70.7,34.6,70.6,34.4,70.6,35.7
				 M163,34.8c0,0.4,0.5,0.8,0.7,0.6c0.1-0.1,0-0.1-0.1-0.1c-0.1,0-0.3-0.2-0.4-0.5C163.1,34.4,163.1,34.4,163,34.8 M148.1,34.9
				c0.6,0,1.7,0,2.3,0c0.6,0,0.1-0.1-1.1-0.1C148,34.8,147.5,34.8,148.1,34.9 M174.4,34.8c0,0.1,0.1,0.4,0.3,0.7
				c0.2,0.3,0.3,0.4,0.3,0.3c0-0.1-0.1-0.4-0.3-0.7C174.6,34.8,174.4,34.7,174.4,34.8 M40.9,35.5c-0.4,0.2-0.7,0.4-0.7,0.5
				s0.4-0.1,0.8-0.3c0.4-0.2,0.8-0.5,0.8-0.5C41.8,35.1,41.8,35.1,40.9,35.5 M85,35.7c-0.5,0.5-0.5,0.5-0.1,0.2
				c0.9-0.7,0.9-0.7,0.8-0.7C85.6,35.1,85.3,35.4,85,35.7 M89.3,35.8c0.4,0.4,0.8,0.9,0.9,1c0.1,0.1,0.1,0,0-0.2
				c-0.1-0.2-0.5-0.7-0.9-1L88.6,35L89.3,35.8 M98.7,35.7c-0.5,0.5-0.5,0.5-0.1,0.2c0.9-0.7,0.9-0.7,0.8-0.7
				C99.4,35.1,99.1,35.4,98.7,35.7 M112.4,35.8c-0.6,0.6-0.6,0.6,0,0.2c0.3-0.3,0.7-0.6,0.8-0.6c0.1-0.1,0.1-0.2,0-0.2
				C113.1,35.1,112.8,35.4,112.4,35.8 M130.5,35.9l-0.7,0.7L130.5,35.9c0.8-0.6,0.9-0.7,0.7-0.7C131.2,35.1,130.8,35.5,130.5,35.9
				 M102.7,35.4c0,0,0.3,0.3,0.6,0.6l0.6,0.6l-0.6-0.6C102.9,35.4,102.7,35.2,102.7,35.4 M178.1,36.4c0.1,0.2,0.2,0.5,0.3,0.6
				c0.1,0.1,0.1-0.1,0-0.4C178.1,35.8,177.9,35.7,178.1,36.4 M167.7,36.5c0.3,0,0.8,0,1,0c0.2,0,0-0.1-0.6-0.1
				C167.6,36.4,167.4,36.4,167.7,36.5 M173.8,40.4l0.1,4.1h-1.3h-1.3v-0.6c0-0.3-0.1-0.6-0.2-0.6c-0.1,0-0.1,0.3,0,0.6l0.1,0.6h1.4
				h1.4l0.1-3.9c0-2.1,0-4-0.1-4.1C173.8,36.5,173.7,38.2,173.8,40.4 M108.4,37.3c-0.1,0.3-0.1,0.7,0,0.7c0.1,0.1,0.1-0.2,0.2-0.5
				c0.1-0.4,0.1-0.7,0-0.7C108.6,36.7,108.5,37,108.4,37.3 M94.4,37.6c-0.1,0.4-0.1,1.1-0.1,1.4c0,0.3,0.1,0.1,0.2-0.6
				C94.7,37.1,94.6,36.4,94.4,37.6 M79.8,37.7c-0.1,0.4-0.1,0.7,0,0.7c0,0,0.1-0.2,0.2-0.5c0.1-0.3,0.1-0.7,0-0.7
				C80,37.1,79.9,37.4,79.8,37.7 M90.5,38.2c0.1,0.5,0.1,1,0.2,1.1c0.2,0.2,0.1-1.5-0.1-1.8C90.4,37.4,90.4,37.6,90.5,38.2
				 M126.5,38.7c0,0.8,0,1.2,0.1,0.7c0-0.4,0-1.1,0-1.5C126.6,37.6,126.5,37.9,126.5,38.7 M164.1,37.9c-0.5,0.5-0.5,0.5-0.1,0.2
				c0.9-0.7,0.9-0.7,0.8-0.7C164.7,37.3,164.4,37.6,164.1,37.9 M136.7,37.8c-0.3,0.2-0.4,0.3-0.3,0.3c0.1,0,0.4-0.1,0.7-0.3
				c0.3-0.2,0.4-0.3,0.3-0.3C137.2,37.5,136.9,37.7,136.7,37.8 M148.6,37.7c0.7,0,1.8,0,2.4,0c0.6,0,0.1-0.1-1.3-0.1
				C148.4,37.6,147.9,37.6,148.6,37.7 M129.3,38c0,0.4,0.3,0.5,0.8,0.1c0.2-0.2,0.2-0.2-0.1-0.1c-0.2,0.1-0.5,0-0.5-0.1
				C129.3,37.7,129.3,37.7,129.3,38 M93.6,38.7c0,0.5,0,0.7,0.1,0.4c0-0.2,0-0.7,0-0.9C93.6,38,93.6,38.2,93.6,38.7 M97.3,38.6
				c0,0.4,0,0.6,0.1,0.3c0-0.2,0-0.6,0-0.8C97.4,38,97.3,38.2,97.3,38.6 M111.1,38.6c0,0.4,0,0.6,0.1,0.3c0-0.2,0-0.6,0-0.8
				C111.2,38,111.1,38.2,111.1,38.6 M107.3,38.8c0,0.4,0,0.6,0.1,0.3c0-0.2,0-0.6,0-0.8C107.4,38.2,107.3,38.4,107.3,38.8 M168,39.1
				c0.2,0,0.7,0,0.9,0s0-0.1-0.4-0.1C167.9,39,167.7,39,168,39.1 M166.2,39.6c-0.3,0.2-0.3,0.3-0.2,0.2c0.2-0.1,0.5-0.3,0.7-0.4
				c0.2-0.1,0.3-0.2,0.2-0.2C166.8,39.1,166.4,39.3,166.2,39.6 M75.3,40.3c-0.5,0.5-0.9,1-0.9,1c0.2,0,1.5-1.3,1.7-1.6
				C76.4,39.2,76.4,39.2,75.3,40.3 M108.3,39.5c0,0.2,0.1,0.5,0.2,0.7c0.1,0.3,0.2,0.3,0.2,0.1c0-0.2-0.1-0.5-0.2-0.7
				C108.4,39.4,108.3,39.3,108.3,39.5 M176.4,39.4c0,0.1,0.1,0.4,0.3,0.7c0.2,0.3,0.3,0.4,0.3,0.3s-0.1-0.4-0.3-0.7
				C176.6,39.4,176.4,39.3,176.4,39.4 M65.7,40.2c0.4,0.4,0.7,0.7,0.8,0.7s-0.2-0.3-0.6-0.7c-0.4-0.4-0.7-0.7-0.8-0.7
				C65.1,39.5,65.4,39.8,65.7,40.2 M170.3,40.5c-0.1,0.2-0.4,0.7-0.8,1c-0.4,0.3-0.6,0.6-0.5,0.6c0.2,0,1.6-1.5,1.6-1.8
				C170.6,40,170.5,40.1,170.3,40.5 M89.5,41.2c-0.6,0.7-0.6,0.8-0.1,0.3c0.5-0.4,1-1.2,0.9-1.2C90.2,40.3,89.9,40.7,89.5,41.2
				 M135,41.6c-0.4,0.4-0.6,0.6-0.4,0.5c0.4-0.2,1.5-1.3,1.3-1.2C135.8,40.9,135.4,41.2,135,41.6 M166,41.9c0.3,0.2,0.6,0.4,0.7,0.4
				C166.9,42.3,166.9,42.3,166,41.9l-0.5-0.5L166,41.9 M72.4,41.9c-0.6,0.1-0.6,0.2-0.1,0.2c0.3,0,0.6-0.1,0.8-0.2
				C73.5,41.7,73.3,41.7,72.4,41.9 M137.6,42c0.1,0.2,0.2,0.5,0.2,0.7c-0.1,0.2,0,0.3,0.1,0.2C138.2,42.6,138.1,42.2,137.6,42
				C137.4,41.6,137.4,41.6,137.6,42 M70.2,42.3c0.3,0,0.8,0,1.1,0c0.3,0,0.1-0.1-0.5-0.1C70.1,42.2,69.9,42.2,70.2,42.3 M92.1,42.8
				l-0.5,0.6L92.1,42.8c0.4-0.2,0.6-0.5,0.6-0.5C92.6,42.2,92.4,42.4,92.1,42.8 M132.2,42.5c0.4,0,0.9,0,1.2,0s0-0.1-0.7-0.1
				C132.1,42.4,131.9,42.4,132.2,42.5 M105.4,43.4l-0.8,0.8L105.4,43.4c0.5-0.4,0.9-0.8,0.9-0.8C106.3,42.4,106.1,42.6,105.4,43.4
				 M163.2,42.6c0,0.1,0.3,0.5,0.7,0.9l0.7,0.7l-0.7-0.8C163.5,43,163.2,42.6,163.2,42.6C163.3,42.5,163.2,42.5,163.2,42.6
				 M82.5,43.4c0.4,0.4,0.7,0.7,0.8,0.7c0.1,0-0.2-0.3-0.6-0.7c-0.4-0.4-0.7-0.7-0.8-0.7C81.9,42.7,82.1,43,82.5,43.4 M96.3,43.4
				c0.4,0.4,0.7,0.7,0.8,0.7c0.1,0-0.2-0.3-0.6-0.7c-0.4-0.4-0.7-0.7-0.8-0.7C95.7,42.7,95.9,43,96.3,43.4 M110.7,43.7
				c0.3,0.2,0.6,0.4,0.7,0.4c0.1,0-0.1-0.2-0.4-0.4c-0.3-0.2-0.6-0.4-0.7-0.4C110.3,43.3,110.5,43.5,110.7,43.7 M128.5,43.6
				c0.3,0.3,1.6,1.2,1.7,1.1c0,0-0.4-0.4-0.9-0.7C128.7,43.6,128.3,43.4,128.5,43.6 M97.3,44.2c0,0.1,1.2,0.7,1.3,0.7
				c0,0-0.2-0.2-0.6-0.4C97.6,44.3,97.3,44.2,97.3,44.2 M103.7,44.5c-0.4,0.2-0.6,0.4-0.5,0.4c0.2,0,1.3-0.6,1.3-0.7
				C104.5,44.1,104.5,44.1,103.7,44.5 M122.3,44.6c0,0.1,0.6,0.1,1.4,0.1c0.8,0,1.4-0.1,1.5-0.1c0.1-0.1-0.6-0.1-1.4-0.1
				C122.9,44.4,122.3,44.5,122.3,44.6 M69.4,45c0.2,0.1,0.5,0.1,0.7,0c0.2,0,0-0.1-0.3-0.1C69.3,45,69.2,45,69.4,45 M71.7,45
				c0.2,0,0.7,0,0.9,0c0.2,0,0-0.1-0.4-0.1C71.6,45,71.4,45,71.7,45 M86.7,45.2c0.2,0,0.7,0,0.9,0c0.2,0,0-0.1-0.4-0.1
				S86.4,45.2,86.7,45.2 M100.4,45.2c0.2,0,0.7,0,0.9,0c0.2,0,0-0.1-0.5-0.1C100.4,45.2,100.2,45.2,100.4,45.2 M132.4,45.2
				c0.2,0,0.6,0,0.8,0c0.2,0,0-0.1-0.5-0.1C132.3,45.2,132.2,45.2,132.4,45.2 M109.1,46.6c-0.2,0.3-0.2,0.4,0,0.5
				c0.2,0.2,0.2,0.2,0.1,0c-0.1-0.2,0-0.4,0.2-0.5s0.3-0.3,0.2-0.3C109.4,46.3,109.2,46.4,109.1,46.6 M112.1,46.8
				c0.3,0.3,0.7,0.7,0.9,0.8c0.4,0.2,0.4,0.2-0.7-0.7l-0.7-0.6L112.1,46.8 M116.5,47.1c-0.4,0.3-0.5,0.5-0.3,0.4
				c0.4-0.2,1.3-1.1,1.1-1C117.2,46.5,116.9,46.8,116.5,47.1 M109.4,47.8c0.1,0.2,0.6,0.7,1,1.1c0.7,0.6,0.1-0.1-1.1-1.4
				C109.3,47.4,109.3,47.6,109.4,47.8 M179.2,48.6c-0.3,0.7-0.3,0.9,0.1,0.2c0.2-0.3,0.3-0.6,0.2-0.6
				C179.5,48.1,179.4,48.3,179.2,48.6 M178.7,49.8c-0.1,0.3-0.4,0.3-1.5,0.3c-0.8,0-1.4,0-1.4,0.1c0,0.3,2.7,0.2,3-0.2
				c0.1-0.2,0.2-0.4,0.1-0.4C178.9,49.5,178.8,49.6,178.7,49.8 M1.4,53.3c0,0.3,0.1,0.6,0.2,0.8c0.1,0.2,0.2,0.1,0.1-0.4
				C1.5,52.8,1.4,52.7,1.4,53.3 M198.3,53.7c-0.1,0.2-0.1,0.5,0,0.5c0.1,0.1,0.2-0.1,0.2-0.3c0.1-0.2,0.1-0.5,0-0.5
				C198.5,53.3,198.4,53.5,198.3,53.7 M2.1,55c0.3,0.7,0.8,1.2,1.5,1.8c0.3,0.2,0.1-0.1-0.4-0.6c-0.5-0.6-1-1.2-1.2-1.4
				C1.9,54.6,1.9,54.7,2.1,55 M197.8,54.9c-0.1,0.2-0.6,0.9-1.1,1.3c-0.5,0.5-0.6,0.7-0.3,0.5c0.9-0.7,2.1-2.3,1.7-2.3
				C198.1,54.5,197.9,54.7,197.8,54.9 M4.2,57.2c0,0.2,1.7,0.9,2.1,0.9c0.2,0,0-0.1-0.4-0.3c-0.4-0.1-1-0.4-1.2-0.5
				C4.4,57.2,4.2,57.1,4.2,57.2 M195.3,57.3c-0.2,0.1-0.8,0.3-1.2,0.5c-0.4,0.1-0.6,0.3-0.4,0.3c0.4,0,2.1-0.7,2.1-0.9
				C195.8,57.1,195.8,57.1,195.3,57.3 M53.6,58.2c25.6,0,67.4,0,92.9,0s4.6-0.1-46.5-0.1S28,58.2,53.6,58.2"/>
			<path id="path5_2_" class="st5" d="M5,0.1c0,0.1-0.3,0.2-0.6,0.3C4.1,0.5,3.5,0.8,3.3,1C2.1,2.1,1.5,2.8,1.5,3
				c0,0.1-0.2,0.3-0.4,0.5S0.6,4.1,0.6,4.4C0.4,4.9,0.3,5.1,0.2,5.1S0,15.6,0,29.8c0,14.3,0.1,24.7,0.2,24.7s0.2,0.3,0.3,0.6
				c0.1,0.6,0.4,1,1.3,2c0.8,1,2.2,2,2.7,2c0.3,0,0.5,0.1,0.5,0.2s31.8,0.2,95,0.2c55.3,0,95-0.1,95-0.2s0.3-0.2,0.7-0.3
				c0.4-0.1,0.8-0.3,1.1-0.5c0.2-0.2,0.8-0.7,1.2-1.1c0.5-0.4,0.8-0.8,0.7-0.8c-0.1-0.1,0-0.1,0.1-0.1c0.1,0,0.2-0.1,0.2-0.3
				c0-0.2,0.1-0.3,0.2-0.3c0.2,0,0.5-0.8,0.5-1.2c0-0.1,0.1-0.2,0.2-0.3c0.2-0.2,0.2-49.2-0.1-49.3c-0.1-0.1-0.2-0.3-0.1-0.4
				c0.1-0.2,0-0.3-0.1-0.3s-0.2-0.1-0.2-0.3c0-0.2-0.1-0.3-0.2-0.3c-0.1,0-0.2-0.2-0.3-0.4c-0.2-0.5-1.3-1.7-2.1-2.1
				c-0.4-0.2-0.6-0.4-0.6-0.5s-0.3-0.2-0.6-0.3c-0.3-0.1-0.6-0.2-0.6-0.3S157.7,0,100,0S5,0,5,0.1 M195,1.8c1.4,0.7,2.4,1.7,3.2,3.1
				l0.5,1v23.9v23.9l-0.5,1c-0.7,1.3-1.8,2.4-3.2,3.1l-1.1,0.5H100H6.1L5,57.6c-1.4-0.7-2.4-1.7-3.2-3.1l-0.5-1V29.7V5.8l0.5-1
				C2.7,3,4.6,1.6,6.3,1.3c0.5-0.1,42.9-0.1,94.2-0.1h93.3L195,1.8 M64.6,10.3c-0.2,0.1-0.5,0.2-0.6,0.3c-0.1,0.1,0.2,0.1,0.7,0
				c2.1-0.5,5.1,0.9,3.8,1.8c-0.3,0.2-0.4,0.2-0.8-0.2c-0.3-0.2-0.5-0.4-0.5-0.3c-0.3,0.3,1,0.9,1.4,0.7C70.2,11.4,67,9.7,64.6,10.3
				 M106.3,10.3c0.3,0.1,0.7,0.2,0.9,0.2c0.3,0,0.3,0-0.1-0.2c-0.3-0.1-0.7-0.2-0.9-0.2C105.9,10.2,105.9,10.2,106.3,10.3
				 M71.7,14.9v4.6l2.7-0.1l2.7-0.1v-0.7v-0.7L77,18.5l-0.1,0.6h-2.6h-2.6v-4.4v-4.4h2.6c2.6,0,2.6,0,2.5,0.4
				c-0.1,0.4-0.2,0.5-2,0.5l-1.9,0.1v1.3v1.3l1.7,0.1c1.7,0.1,1.7,0.1,1.7,0.5c0,0.5,0,0.5-1.7,0.5l-1.7,0.1l-0.1,1.3l0.3,1.7h2h2
				L75.2,18l-1.9-0.1l0.1-1.1l0.1-1.1l1.8-0.1l1.8-0.1L77,14.9l-0.1-0.6l-1.7-0.1l-1.9-0.1v-1.2v-1.2h1.9c1.8,0,1.9,0,2-0.5
				c0.2-0.8,0-0.9-2.8-0.9h-2.7L71.7,14.9 M81.3,10.5c3.2,0.1,3.3,0.1,3.2,0.5c-0.1,0.4-0.2,0.5-1.3,0.5L82,11.6v3.9l-0.1,3.8
				l-0.6,0.1c-0.6,0.1-0.6,0.1,0.1,0.1h0.7l0.1-3.8l0.1-3.8l1.2-0.1c1.2-0.1,1.2-0.1,1.2-0.7v-0.6H81.3L78,10.4L81.3,10.5
				 M89.3,10.5l0.6,0.1V15v4.4l-0.6,0.1l-0.6,0.1h0.7h0.7v-4.5v-4.5L89.3,10.5C88.7,10.3,88.7,10.3,89.3,10.5 M91.1,11
				c0.1,0.7,0.1,0.7,1.3,0.8c0.7,0.1,1.2,0,1.2,0c0-0.1-0.5-0.1-1.2-0.1c-1.1,0-1.2,0-1.2-0.5v-0.5h3h3v0.5c0,0.5-0.1,0.5-1.1,0.5
				L95,11.6l-0.1,3.8l-0.1,3.8l-0.6,0.1c-0.6,0.1-0.6,0.1,0.1,0.1H95l0.1-3.8l0.1-3.8l1.1-0.1c1.1-0.1,1.1-0.1,1.1-0.7v-0.6
				l-3.2-0.1L91,10.2L91.1,11 M111.8,10.6c-0.1,0.1-0.1,2.2,0,4.6l0.1,4.3h0.7h0.7l0.1-3.2l0.1-3.2l0.9,1.3c0.5,0.7,0.9,1.3,1,1.3
				c0.1,0,0-0.2-0.2-0.5c-0.2-0.3-0.6-0.9-0.9-1.3c-1-1.6-1.1-1.5-1,1.9c0,3.2,0,3.5-0.7,3.5h-0.5v-4.4v-4.4h0.8
				c0.4,0,0.8,0.1,0.8,0.1c0,0.1,0.2,0.4,0.4,0.6l0.4,0.5l-0.4-0.7C113.5,10.4,112,10,111.8,10.6 M117.5,10.7c0,0.2,0.1,0.3,0.2,0.1
				c0.1-0.1,0.4-0.3,0.7-0.3c0.5-0.1,0.5-0.1-0.2-0.1C117.6,10.3,117.5,10.4,117.5,10.7 M62.8,11.4c-0.8,0.7-1.5,1.9-1.5,2.6
				c0,0.4,0,0.3,0.2-0.1c0.2-1,0.8-1.8,1.6-2.5c0.4-0.3,0.7-0.6,0.6-0.6C63.6,10.7,63.2,11,62.8,11.4 M102.5,11.5
				c-0.7,0.6-1.6,2.3-1.4,2.6c0.1,0.1,0.2-0.3,0.3-0.7c0.1-0.5,0.6-1.2,1.1-1.7C103.7,10.6,103.6,10.5,102.5,11.5 M119,14.9
				c0,2.3,0,3.2,0.1,2c0-1.1,0-3,0-4.1C119,11.8,119,12.7,119,14.9 M109.2,11.8c0.3,0.4,0.6,0.7,0.6,0.7c0.2,0-0.3-0.7-0.7-1.1
				C108.7,11.1,108.7,11.2,109.2,11.8 M117.5,13.4c-0.1,2.9-0.2,3.2-0.9,2c-0.7-1.1-0.9-1.2-0.3-0.1c1.1,2,1.4,1.6,1.3-1.7l-0.1-2.6
				V13.4 M78.1,11.6c0,0.1,0.6,0.2,1.3,0.2c0.7,0,1.2,0,1.1-0.1C80.4,11.5,78.1,11.4,78.1,11.6 M104.8,11.5
				c-0.2,0.1,0.2,0.1,0.8,0.1c0.7,0,1.1-0.1,1-0.2C106.3,11.3,105.3,11.3,104.8,11.5 M65.6,11.7c0.3,0,0.8,0,1,0
				c0.2,0,0-0.1-0.6-0.1C65.5,11.6,65.3,11.6,65.6,11.7 M63.7,12.5c-0.4,0.4-0.8,0.8-0.8,0.9s0.2,0,0.4-0.3c0.2-0.3,0.7-0.7,1-0.9
				c0.3-0.2,0.5-0.4,0.4-0.4C64.6,11.7,64.2,12.1,63.7,12.5 M107.2,11.9c0.1,0.1,0.5,0.4,0.9,0.8l0.7,0.6l-0.5-0.6
				c-0.3-0.3-0.7-0.7-0.9-0.8C107.2,11.8,107.1,11.8,107.2,11.9 M108.8,14.8c0,0.8,0.1,1.4,0.1,1.2c0.1-0.1,0.1-0.7,0.1-1.2
				s-0.1-1.1-0.1-1.2C108.9,13.5,108.8,14,108.8,14.8 M102.4,14.4c-0.1,0.4,0,0.9,0,1.2c0.1,0.5,0.2,0.4,0.2-0.6
				C102.6,13.6,102.6,13.5,102.4,14.4 M110.3,14.8c0,0.7,0,0.9,0.1,0.5c0-0.4,0-0.9,0-1.2C110.4,13.9,110.3,14.2,110.3,14.8
				 M66,14.5c-0.9,0.6-0.2,1.3,1.4,1.4c1.7,0.1,1.9,0.4,1.1,1.3c-0.7,0.8-1.5,1.1-2.7,1c-0.5,0-0.9,0-0.9,0.1c0.4,0.7,2.9,0,3.7-1.1
				c1-1.2,0.7-1.6-1.4-1.6c-1.3,0-1.7-0.5-1-1.2C66.4,14.3,66.3,14.3,66,14.5 M62.6,15.1c0,0.4,0,0.5,0.1,0.3c0-0.2,0-0.5,0-0.7
				C62.6,14.6,62.6,14.8,62.6,15.1 M61.4,15.9c0,0.4,0.5,1.6,0.7,1.6c0.1,0,0-0.2-0.1-0.4c-0.1-0.2-0.3-0.7-0.4-1
				C61.4,15.5,61.4,15.5,61.4,15.9 M101.2,16.2c0.1,0.3,0.2,0.7,0.3,0.8c0.1,0.1,0.1-0.1,0-0.5C101.2,15.6,101,15.5,101.2,16.2
				 M62.7,16.2c0,0.4,1.3,1.9,1.7,1.9c0.1,0-0.1-0.2-0.4-0.5c-0.4-0.3-0.8-0.8-0.9-1.1C62.9,16.1,62.7,16,62.7,16.2 M115.5,16.2
				c0.1,0.2,0.3,0.6,0.5,0.8l0.3,0.4l-0.2-0.4C116,16.8,115.8,16.4,115.5,16.2l-0.2-0.4L115.5,16.2 M70,16.9
				c-0.1,0.3-0.2,0.6-0.1,0.6c0.1,0,0.5-1,0.4-1.1C70.2,16.4,70.1,16.6,70,16.9 M102.7,16.5c0,0.6,2.3,2.1,3.2,2
				c0.3,0,0.2-0.1-0.3-0.2c-1.1-0.3-1.8-0.7-2.4-1.4C102.9,16.6,102.7,16.4,102.7,16.5 M107.9,17.4c-0.4,0.4-0.7,0.8-0.6,0.8
				c0.2,0,1.5-1.4,1.4-1.5C108.6,16.6,108.3,16.9,107.9,17.4 M101.9,17.7c0.2,0.5,1.7,1.6,2.1,1.6c0.1,0-0.2-0.3-0.7-0.6
				c-0.5-0.3-1-0.8-1.2-1C101.7,17.3,101.7,17.3,101.9,17.7 M116.6,18c0.2,0.3,0.5,0.7,0.6,1c0.3,0.4,0.5,0.5,1,0.5h0.7l-0.7-0.1
				c-0.6-0.1-0.8-0.2-1.3-1c-0.3-0.5-0.6-0.9-0.7-0.9C116.3,17.5,116.4,17.8,116.6,18 M62.5,18.2c0.3,0.3,0.8,0.7,1.1,0.8
				c0.3,0.2,0.4,0.2,0.2,0c-0.2-0.1-0.7-0.5-1.1-0.8L62,17.6L62.5,18.2 M68.9,18.4c-0.4,0.4-0.7,0.7-0.6,0.7c0.1,0,0.5-0.3,0.8-0.7
				C70,17.5,69.8,17.5,68.9,18.4 M108.8,18.4c-0.1,0.1-0.4,0.4-0.8,0.6c-0.3,0.2-0.5,0.4-0.4,0.4c0.2,0,1.7-1,1.7-1.1
				C109.3,18,108.9,18.1,108.8,18.4 M64.7,19.6c0.6,0.2,2,0.2,2.4,0c0.2-0.1-0.4-0.1-1.3-0.1C65,19.4,64.5,19.5,64.7,19.6
				 M104.6,19.6c0.2,0.1,0.7,0.1,1.1,0.1c0.4,0,1-0.1,1.1-0.1c0.2-0.1-0.3-0.1-1.1-0.1C105,19.4,104.5,19.5,104.6,19.6 M69.2,25.7
				c0.2,0,0.5,0,0.7,0c0.2-0.1,0-0.1-0.3-0.1C69.1,25.6,69,25.6,69.2,25.7 M72,25.7c0.2,0,0.5,0,0.7,0c0.2-0.1,0-0.1-0.3-0.1
				C71.9,25.6,71.8,25.6,72,25.7 M67.8,25.9c-0.3,0.1-0.3,0.2-0.1,0.2c0.2,0,0.5-0.1,0.7-0.2c0.3-0.1,0.3-0.2,0.1-0.2
				C68.4,25.8,68,25.8,67.8,25.9 M73.4,25.9c0.2,0.1,0.5,0.2,0.7,0.2s0.2-0.1-0.1-0.2c-0.2-0.1-0.5-0.2-0.7-0.2
				C73.1,25.8,73.2,25.8,73.4,25.9 M123.7,26.1c1.5,0.1,1.4-0.5,1.4,9.4v8.8h-1.3h-1.3l-0.1-9.1l-0.1-9.1v9.2v9.2h1.4h1.4l0.1-9
				C125.3,25.4,125.4,26,123.7,26.1l-1.1-0.1L123.7,26.1 M144.2,26.1c-0.1,0.1-0.1,4.3-0.1,9.3v9.2l1.4-0.1l1.4-0.1l0.1-3.3
				c0.1-3.9-0.3-3.5,3.2-3.6l2.3-0.1H150c-3.5-0.1-3.2-0.4-3.2,3.6v3.4h-1.3h-1.3v-9.1V26.1h3.6l3.5-0.1h-3.5
				C145.9,25.9,144.3,26,144.2,26.1 M159.6,26.1c0.6,0,1.2,0.2,1.3,0.3c0.1,0.2,0.1,0.1,0.1-0.1C160.9,26.1,160.6,26,159.6,26.1
				l-1.1-0.1L159.6,26.1 M66.3,26.5c-0.4,0.2-0.7,0.4-0.7,0.5c0,0.1,1.6-0.6,1.8-0.8C67.5,26,66.9,26.2,66.3,26.5 M74.5,26.2
				c0,0.1,0.4,0.3,0.8,0.5c0.4,0.2,0.8,0.4,0.8,0.3c0-0.1-0.4-0.3-0.8-0.5C74.9,26.3,74.5,26.2,74.5,26.2 M152.4,26.4
				c0.9,0.4,1.3,0.3,0.5,0c-0.3-0.2-0.7-0.3-0.9-0.3C151.9,26.2,152.1,26.3,152.4,26.4 M158.3,35.3v9.1h1.3h1.3l-1.2-0.1l-1.2-0.1
				L158.3,35.3v-9.2V35.3 M154,27.1c0.6,0.4,1.4,1.2,1.9,1.9c0.4,0.5,0.4,0.5,0-0.1C155.4,27.9,154.8,27.3,154,27.1l-0.5-0.4
				L154,27.1 M64.2,28c-0.6,0.5-1,1-1,1s0.6-0.4,1.2-0.9C65.7,26.9,65.6,26.8,64.2,28 M76.7,27.6c0.5,0.6,0.6,0.6,0.6,0.4
				C77.3,27.9,77,27.7,76.7,27.6l-0.5-0.5L76.7,27.6 M25.9,37.7C20.3,43.3,15.8,47.9,15.8,48c0,0.2,15.4-15.1,18.4-18.3
				c1.1-1.2,2-2.1,1.9-2.1C36.1,27.5,31.5,32.1,25.9,37.7 M70.3,28.1c0.2,0,0.7,0,0.9,0c0.2,0,0-0.1-0.4-0.1
				C70.2,28,70,28,70.3,28.1 M67.3,28.8c-1,0.6-1.7,1.1-2.3,2c-0.2,0.3,0,0.1,0.6-0.5c0.6-0.6,1.5-1.3,2.1-1.5
				c0.6-0.3,0.9-0.5,0.8-0.5C68.4,28.3,67.8,28.6,67.3,28.8 M73.5,28.7c0.5,0.2,1.1,0.6,1.4,0.8c0.5,0.4,1.8,0.3,1.4-0.1
				c-0.1-0.1-0.2,0-0.4,0.1c-0.2,0.2-0.5,0.1-1.4-0.5c-0.6-0.4-1.3-0.7-1.5-0.7C72.8,28.3,73,28.5,73.5,28.7 M76.6,28.7
				c-0.2,0.2-0.3,0.4-0.2,0.4c0.1,0,0.3-0.2,0.6-0.4c0.2-0.2,0.3-0.4,0.2-0.4C77.1,28.3,76.8,28.5,76.6,28.7 M146.9,28.6
				c-0.1,0.1-0.1,1.6,0,3.3L147,35l2.2,0.1c2.8,0.1,4.9-1,4.9-2.4c0-0.1-0.2,0.1-0.5,0.6c-0.7,1.3-1.8,1.7-4.4,1.7H147v-3.2
				L146.9,28.6h2c2.3,0,3.2,0.2,4.1,0.9c0.6,0.5,0.6,0.5,0.3,0.1C152.4,28.5,147.3,27.7,146.9,28.6 M62.3,30.3
				c-0.3,0.5-0.6,1-0.6,1.1c0,0.1,0.2-0.2,0.5-0.7c0.3-0.5,0.6-1,0.7-1.1c0.1-0.1,0.2-0.3,0.1-0.3C63,29.3,62.7,29.7,62.3,30.3
				 M154.1,31.6c0,0.4,0,0.6,0.1,0.3c0-0.2,0-0.6,0-0.8C154.1,31,154.1,31.2,154.1,31.6 M156.7,31.8c0,0.5,0,0.8,0.1,0.4
				c0-0.3,0-0.8,0-1C156.7,31,156.7,31.3,156.7,31.8 M61.4,32.3c-0.1,0.4-0.2,0.7-0.2,0.9c0,0.1,0.1-0.1,0.3-0.6
				c0.2-0.4,0.3-0.8,0.2-0.9C61.6,31.7,61.5,32,61.4,32.3 M86.7,32.5c0.2,0,0.7,0,0.9,0c0.2,0,0-0.1-0.4-0.1S86.4,32.4,86.7,32.5
				 M100.4,32.5c0.2,0,0.7,0,0.9,0c0.2,0,0-0.1-0.5-0.1C100.4,32.4,100.2,32.4,100.4,32.5 M114.9,32.4c0,0,0.4,0.1,0.8,0.2
				c0.5,0.1,0.6,0.1,0.4-0.1C115.8,32.3,114.7,32.2,114.9,32.4 M132.2,32.5c0.2,0,0.6,0,0.8,0c0.2,0,0-0.1-0.5-0.1
				C132.1,32.4,132,32.4,132.2,32.5 M166,32.5c-0.2,0.1-0.5,0.2-0.8,0.3c-0.3,0.1-0.4,0.2-0.4,0.3c0.1,0.1,0.3,0,0.5-0.1
				c0.2-0.1,0.8-0.3,1.3-0.4c0.7-0.1,0.7-0.2,0.2-0.2C166.6,32.4,166.2,32.4,166,32.5 M169.2,32.5c0.5,0.1,1,0.3,1.3,0.4
				c0.2,0.1,0.5,0.2,0.5,0.1C171.2,32.8,170.1,32.4,169.2,32.5l-0.8-0.2L169.2,32.5 M112.1,32.8c-0.3,0.2-0.4,0.3-0.3,0.3
				c0.1,0,0.4-0.1,0.7-0.3c0.3-0.2,0.4-0.3,0.3-0.3C112.7,32.5,112.4,32.7,112.1,32.8 M134.2,32.8c0.4,0.2,0.8,0.2,0.9,0.2
				c0.1-0.1-0.9-0.5-1.3-0.5C133.5,32.5,133.7,32.7,134.2,32.8 M89.8,33.1c0.5,0.2,1.2,0.7,1.7,1.1c0.6,0.5,0.7,0.6,0.4,0.2
				c-0.6-0.7-2.2-1.7-2.6-1.7C89.1,32.7,89.4,32.9,89.8,33.1 M103.5,33c1.1,0.5,2,1.3,2.6,2.2c0.3,0.5,0.6,0.8,0.6,0.7
				c0-0.8-2.3-2.9-3.4-3.1C103,32.8,103,32.8,103.5,33 M116.8,33c0.8,0.7,1.1,0.7,1.2,0.4c0.1-0.2,0.2-0.4,0.2-0.5s0-0.1-0.1-0.1
				c-0.1,0-0.2,0.2-0.2,0.4v0.4l-0.7-0.4C116.7,32.9,116.6,32.8,116.8,33 M120.4,39.4c0,3.6,0.1,6.3,0.1,6c0.2-0.8,0.2-12.4,0-12.5
				C120.4,32.8,120.4,35.7,120.4,39.4 M83.2,33.7c-0.4,0.3-0.9,0.7-1,0.8c-0.1,0.2,1.1-0.6,1.8-1.3C84.5,32.9,83.9,33.2,83.2,33.7
				 M97,33.6c-0.7,0.5-1.9,2-1.9,2.3c0,0.1,0.3-0.2,0.6-0.7C96,34.7,96.7,34,97,33.6c0.8-0.3,1-0.6,0.8-0.6
				C97.8,33.1,97.5,33.3,97,33.6 M110.4,34c-0.8,0.8-1.8,2.6-1.6,2.8c0,0,0.2-0.3,0.4-0.8S110,34.7,110.4,34c0.7-0.4,1-0.9,1-0.9
				C111.3,33.1,110.9,33.5,110.4,34 M163.8,33.8c-0.4,0.4-0.6,0.7-0.6,0.8c0,0,0.4-0.3,0.8-0.7C164.8,32.9,164.7,32.9,163.8,33.8
				 M185.4,33.8c-0.3,0.7-0.3,0.9,0.1,0.2c0.2-0.3,0.3-0.6,0.2-0.7C185.7,33.4,185.6,33.5,185.4,33.8 M128.4,34.1
				c-0.6,0.6-1.4,1.8-1.4,2.1c0,0.1,0.2-0.2,0.5-0.7S128.2,34.4,128.4,34.1c0.4-0.3,0.6-0.5,0.5-0.5C129,33.5,128.7,33.8,128.4,34.1
				 M136.4,34.3c0.4,0.5,0.7,0.8,0.8,0.8c0.2,0-0.7-1.1-1.1-1.4C135.9,33.5,136.1,33.8,136.4,34.3 M172.5,34.4
				c0.3,0.5,0.7,0.9,0.7,0.8c0.1-0.1-1.1-1.7-1.3-1.7C171.9,33.5,172.1,33.9,172.5,34.4 M61,35.2c0,0.9,0,1.2,0.1,0.7
				c0-0.5,0-1.2,0-1.6C61,34,61,34.3,61,35.2 M73,34.5c1.3,0,3.4,0,4.7,0c1.3,0,0.2-0.1-2.3-0.1C72.7,34.4,71.7,34.4,73,34.5
				 M155.5,35.3c-0.4,0.5-0.5,0.8-0.3,0.6c0.4-0.3,1.2-1.6,1-1.6C156.1,34.3,155.8,34.7,155.5,35.3 M80,35.9c0,0.7,0,1,0.1,0.6
				c0-0.4,0-0.9,0-1.3C80,34.9,80,35.2,80,35.9 M85.6,35c-0.2,0.2-0.3,0.2-0.1,0.2c0.2-0.1,0.6-0.2,0.9-0.3c0.6-0.1,0.6-0.1,0.1-0.2
				C86.2,34.7,85.8,34.9,85.6,35 M87.3,34.8c0,0,0.4,0.1,0.8,0.2c0.5,0.1,0.6,0.1,0.4-0.1C88.2,34.7,87.1,34.6,87.3,34.8 M99.4,35
				c-0.6,0.3-1.3,1-1.5,1.5c-0.1,0.2,0.1,0.1,0.4-0.3c0.6-0.7,1.2-1,2.1-1.2c0.3-0.1,0.3-0.1-0.1-0.1C100,34.7,99.6,34.8,99.4,35
				 M102,35c0.4,0.2,1.1,0.6,1.4,1c0.4,0.4,0.6,0.6,0.6,0.5c0-0.5-1.9-1.8-2.5-1.8C101.4,34.7,101.6,34.9,102,35 M113,35.1
				c-0.3,0.2-0.8,0.6-1,0.8c-0.3,0.3-0.1,0.2,0.4-0.2c0.4-0.4,1-0.7,1.3-0.8c0.9-0.2,1-0.3,0.4-0.3C113.8,34.7,113.3,34.9,113,35.1
				 M133.3,34.9c0.6,0.2,1.3,0.7,1.3,1c0,0.1-0.5,0.4-1,0.7c-1.3,0.6-1.1,0.7,0.3,0.1c1.2-0.5,1.3-0.9,0.2-1.6
				C133.8,34.9,133.4,34.8,133.3,34.9C132.9,34.7,132.9,34.8,133.3,34.9 M166.4,35.1c-0.3,0.2-0.6,0.5-0.7,0.6
				c-0.1,0.2-0.3,0.2-0.6,0.2c-0.4-0.1-0.4-0.1-0.1,0.1c0.3,0.2,0.5,0.1,0.9-0.3c0.3-0.3,0.8-0.6,1.1-0.7c0.4-0.1,0.5-0.2,0.2-0.2
				C167.1,34.7,166.7,34.9,166.4,35.1 M168.4,34.8c0,0,0.4,0.1,0.7,0.2c0.4,0.1,0.5,0.1,0.3-0.1C169.2,34.7,168.2,34.6,168.4,34.8
				 M116.5,35.5c0.4,0.3,0.8,0.8,1,1.1c0.2,0.3,0.4,0.5,0.4,0.4c0-0.3-0.9-1.4-1.3-1.8C115.9,34.7,115.8,34.9,116.5,35.5 M89.5,35.7
				c0.4,0.4,0.7,1,0.9,1.4c0.1,0.4,0.3,0.6,0.3,0.6C90.9,37.5,90.2,36.2,89.5,35.7l-0.7-0.6L89.5,35.7 M130.3,35.8
				c-0.7,0.7-1.1,1.4-1.1,1.8c0,0.1,0.1-0.1,0.3-0.4C129.7,36.8,130.1,36.2,130.3,35.8c0.4-0.3,0.7-0.5,0.6-0.5
				C131,35.1,130.7,35.4,130.3,35.8 M170.3,35.7c0.3,0.4,0.5,0.8,0.5,1.1c0,0.3,0,0.4,0.1,0.4C171.2,37,171,36.3,170.3,35.7
				l-0.5-0.7L170.3,35.7 M137.3,35.4c0,0.1,0.1,0.4,0.3,0.7c0.3,0.7,0.3,1.2-0.2,1.2c-0.2,0-0.3,0.1-0.4,0.2c-0.1,0.1,0.1,0.1,0.5,0
				c0.7-0.2,0.7-0.4,0.3-1.4C137.5,35.4,137.3,35.1,137.3,35.4 M92.8,36.1c0.1,0.3,0.2,0.6,0.3,0.8c0.1,0.2,0.1,0.1,0.1-0.2
				c-0.1-0.3-0.2-0.6-0.3-0.8C92.7,35.7,92.7,35.8,92.8,36.1 M175.1,36.1c0.1,0.3,0.2,0.6,0.3,0.7c0.3,0.3,0.2-0.1-0.1-0.7l-0.3-0.5
				L175.1,36.1 M153.6,36.7c-0.4,0.2-0.6,0.4-0.5,0.4c0.2,0,1.3-0.6,1.3-0.7C154.4,36.3,154.4,36.3,153.6,36.7 M126.8,37
				c-0.1,0.3-0.1,0.6-0.1,0.9c0,0.2,0.1,0,0.2-0.4C127.1,36.6,127,36.2,126.8,37 M166.3,36.8C165.5,37.1,165.5,37.1,166.3,36.8
				c0.8-0.1,2.8-0.1,3.6,0.1c0.5,0.1,0.5,0.1,0.2-0.1C169.5,36.5,167.2,36.5,166.3,36.8 M70.9,37c0.1,0.1,1.4,0.1,3.1,0.1h3
				l-0.1,0.7c-0.1,0.5-0.1,0.7,0.1,0.4c0.1-0.2,0.2-0.5,0.2-0.8v-0.5L74,36.8C72.2,36.8,70.8,36.9,70.9,37 M107,38.7
				c0,1.1,0.1,1.9,0.1,1.6c0.2-0.6,0.2-2.3,0-3.1C107,36.9,107,37.5,107,38.7 M80.8,37.4c-0.2,0.6-0.1,2.4,0,2.8
				c0.1,0.2,0.1-0.5,0.1-1.4C81,36.7,81,36.7,80.8,37.4 M178.6,38c0.4,1.1,0.7,1.6,0.5,0.8c-0.2-0.8-0.7-1.8-0.8-1.8
				C178.3,36.9,178.4,37.4,178.6,38 M61.2,37.3c0,0.2,0.1,0.6,0.3,0.9c0.4,0.8,0.4,0.4,0-0.5C61.3,37.3,61.2,37.1,61.2,37.3
				 M131.3,37.6c-0.6,0.2-1,0.5-0.9,0.5c0.2,0.1,2.1-0.7,2.1-0.9C132.5,37.1,132.6,37.1,131.3,37.6 M164.5,37.7
				c-0.7,0.5-1.5,1.5-1.4,1.9c0,0.1,0.2-0.2,0.4-0.6c0.2-0.4,0.8-1,1.2-1.3c0.7-0.5,0.9-0.7,0.7-0.7
				C165.3,37.1,164.9,37.4,164.5,37.7 M183.8,37.6c-0.1,0.3-0.3,0.8-0.4,1c-0.3,0.9,0,0.5,0.4-0.4c0.2-0.5,0.4-1,0.3-1
				C184.1,37.1,183.9,37.3,183.8,37.6 M104.3,38.5c0,1.4-0.5,2.6-1.4,3.2c-0.3,0.2-0.4,0.4-0.3,0.4C103.4,42.1,104.5,40,104.3,38.5
				v-1.3V38.5 M108.4,38.2c-0.1,0.5,0,1.1,0,1.3c0.1,0.4,0.2,0.1,0.2-0.8C108.6,37.1,108.6,37,108.4,38.2 M83.6,38.6
				c0,0.7,0,0.9,0.1,0.5c0-0.4,0-0.9,0-1.2C83.6,37.7,83.6,38,83.6,38.6 M111,37.8c-0.2,0.4-0.1,1.3,0,1.7c0.1,0.2,0.1-0.2,0.1-0.8
				C111.2,37.4,111.2,37.4,111,37.8 M93.4,38.8c0,0.7,0,0.9,0.1,0.5c0-0.4,0-0.9,0-1.2C93.4,37.9,93.4,38.2,93.4,38.8 M136,37.9
				c-0.2,0.1-0.7,0.3-1,0.4c-0.3,0.1-0.5,0.3-0.5,0.3c0.1,0.1,0.6-0.1,1.2-0.4C136.7,37.8,136.9,37.5,136,37.9 M94.6,38.8
				c0,0.5,0,0.8,0.1,0.4c0-0.3,0-0.8,0-1C94.6,38,94.6,38.3,94.6,38.8 M180.8,38.5c-0.1,0.3-0.2,0.6-0.1,0.6s0.5-1,0.4-1.1
				C181.1,37.9,181,38.2,180.8,38.5 M64.3,38.4c0,0.9,3.1,3.7,4.2,3.7c0.1,0-0.2-0.2-0.7-0.5c-1.3-0.6-2.2-1.4-2.9-2.5
				C64.6,38.6,64.3,38.3,64.3,38.4 M79.5,38.5c-0.1,1.4-2.4,4.4-4,5.2c-0.4,0.2-0.8,0.4-0.8,0.5c0,0.3,1.7-0.9,2.7-1.8
				C78.5,41.3,79.8,39,79.5,38.5C79.6,38.3,79.5,38.3,79.5,38.5 M167.2,38.9c-0.3,0.1-0.1,0.1,0.6,0.1c0.6-0.1,1.1-0.1,1.2-0.2
				C169.2,38.6,167.7,38.8,167.2,38.9 M61.7,39c0,0.3,1.1,2.1,1.3,2.1c0.1,0,0-0.1-0.1-0.3c-0.1-0.1-0.4-0.7-0.7-1.1
				C62,39.2,61.7,38.9,61.7,39 M169.9,39.2c0.4,0.2,0.8,0.3,0.9,0.3c0,0,0,0.2-0.1,0.5c-0.1,0.4-0.1,0.4,0.1,0.1
				c0.1-0.2,0.2-0.4,0.2-0.4c0-0.2-1.1-0.8-1.5-0.7C169.3,38.9,169.5,39.1,169.9,39.2 M117.9,39.5c0,0.5-0.8,1.9-1.4,2.3
				c-0.3,0.2-0.3,0.2,0.1,0C117.2,41.5,118.1,39.9,117.9,39.5C117.9,39,117.9,39.1,117.9,39.5 M90.3,40c-0.1,0.4-0.1,0.6,0,0.5
				c0.2-0.2,0.5-1.3,0.4-1.3C90.6,39.3,90.5,39.6,90.3,40 M126.7,39.7c0,0.3,0.1,0.7,0.2,0.9c0.1,0.3,0.1,0.2,0.1-0.4
				C126.8,39.3,126.7,39,126.7,39.7 M165.6,39.8c-0.5,0.7-0.5,1.3,0,1.9l0.4,0.5l-0.3-0.5c-0.4-0.7-0.4-1.2,0.1-1.9
				c0.2-0.3,0.4-0.5,0.3-0.5C166.1,39.3,165.9,39.5,165.6,39.8 M182.8,39.9c-0.1,0.3-0.2,0.6-0.1,0.6c0.1,0,0.5-1,0.4-1.1
				C183.1,39.3,183,39.6,182.8,39.9 M75.4,40.6l-0.6,0.6L75.4,40.6c0.4-0.3,0.7-0.6,0.7-0.6C76.1,39.8,76,40,75.4,40.6 M83.7,40
				c0,0.5,1.3,2.1,1.7,2.1c0.1,0,0-0.2-0.3-0.4c-0.3-0.2-0.7-0.7-0.9-1.1C83.9,40.1,83.7,39.9,83.7,40 M162.9,40.7
				c0,0.5,0,0.7,0.1,0.4c0-0.2,0-0.7,0-0.9C162.9,40,162.9,40.2,162.9,40.7 M111.3,40.2c0,0.7,1.8,2.3,2.7,2.3
				c0.3,0,0.1-0.1-0.4-0.3c-0.9-0.3-1.4-0.8-2-1.6C111.5,40.3,111.3,40.1,111.3,40.2 M92.9,41c-0.1,0.4-0.1,0.6,0,0.5
				c0.2-0.2,0.5-1.3,0.4-1.3C93.2,40.3,93.1,40.6,92.9,41 M94.8,40.7c0.2,0.6,0.7,1.6,0.8,1.6s-0.7-1.8-0.8-2
				C94.7,40.3,94.7,40.4,94.8,40.7 M108.7,40.5c0,0.8,1.6,2.9,2.6,3.4c0.4,0.2,0.4,0.2,0.1-0.1c-1.1-0.9-1.8-1.7-2.2-2.6
				C108.9,40.7,108.7,40.3,108.7,40.5 M129.9,40.6c-0.3,0.3,1.1,1.9,1.6,1.9c0.1,0,0-0.2-0.4-0.4c-1-0.6-1.4-1.2-0.9-1.6
				c0.2-0.1,0.2-0.3,0.1-0.3C130.2,40.3,130,40.4,129.9,40.6 M177.1,40.7c0.1,0.3,0.2,0.6,0.3,0.7c0.3,0.3,0.2-0.1-0.1-0.7l-0.3-0.5
				L177.1,40.7 M97.9,40.8c0.4,0.8,1.7,1.7,2.4,1.7c0.2,0,0-0.1-0.4-0.3c-0.4-0.2-1.1-0.6-1.5-1C98,40.8,97.7,40.6,97.9,40.8
				 M169.8,41.4c-0.4,0.4-0.5,0.7-0.3,0.5c0.4-0.3,1.2-1.2,1.1-1.3C170.6,40.6,170.2,40.9,169.8,41.4 M89.5,41.4
				c-0.3,0.3-0.9,0.6-1.3,0.8c-0.4,0.2-0.6,0.3-0.4,0.3c0.5,0,1.4-0.5,1.9-1.1C90.3,40.8,90.2,40.8,89.5,41.4 M106.3,41.8
				c-0.3,0.5-0.9,1.3-1.4,1.7c-0.5,0.4-0.8,0.8-0.8,0.8c0.5,0,3-3,2.7-3.3C106.8,41,106.6,41.3,106.3,41.8 M135.3,41.6l-0.6,0.6
				L135.3,41.6l0.7-0.5l0.8,0.6c1,0.7,1,0.8,0.1,1.8c-0.7,0.7-0.7,0.7-0.1,0.3c0.6-0.4,1-1,1-1.4c0-0.2-1.6-1.4-1.8-1.4
				C136,40.9,135.7,41.2,135.3,41.6 M127.1,41.2c0,0.4,1.3,2.1,2,2.6c0.6,0.4,0.6,0.4-0.1-0.3c-0.5-0.4-1.1-1.2-1.3-1.7
				C127.3,41.4,127.1,41.1,127.1,41.2 M63.6,41.9c0.7,0.7,2.8,2.2,3.2,2.2c0.1,0-0.2-0.3-0.8-0.6c-0.6-0.3-1.4-1-1.9-1.4
				C63.1,41.2,62.8,41,63.6,41.9 M163,41.8c0,0.5,1.2,2,1.9,2.4c0.2,0.1,0.1-0.1-0.4-0.4c-0.4-0.4-0.9-1-1.1-1.4
				C163.2,41.9,163,41.7,163,41.8 M92.1,42.6C91.8,43,91.8,43.1,92,43c0.3-0.3,0.8-1,0.7-1C92.6,41.9,92.4,42.2,92.1,42.6
				 M81.7,42.2c0,0.3,1.5,1.8,2.2,2.2c1.2,0.6,1.2,0.5,0-0.2c-0.6-0.3-1.3-0.9-1.6-1.3C82,42.4,81.7,42.1,81.7,42.2 M134.4,42.2
				c-0.1,0.1-0.7,0.2-1.4,0.3l-1.3,0.2h1.3c0.7,0,1.4-0.2,1.5-0.3c0.1-0.1,0.2-0.2,0.1-0.2C134.6,42.1,134.5,42.2,134.4,42.2
				 M70.3,42.4c0.2,0,0.7,0,0.9,0c0.2,0,0-0.1-0.4-0.1C70.2,42.4,70,42.4,70.3,42.4 M96.3,43.2c0.4,0.4,0.9,0.9,1.1,1
				s0.4,0.2,0.3,0.1C96.4,43.1,95.7,42.5,96.3,43.2 M170.2,43.7c-0.4,0.3-0.6,0.6-0.6,0.6c0.1,0,0.4-0.3,0.9-0.6
				c0.4-0.3,0.7-0.6,0.6-0.6C171,43.1,170.6,43.4,170.2,43.7 M178.3,43.9c0,0.4,0.1,0.7,0.2,0.7c0.2-0.1,0.2-0.9,0-1.2
				C178.4,43.2,178.3,43.5,178.3,43.9 M181.4,43.3c-0.1,0.1-0.3,0.6-0.4,1c-0.2,0.4-0.3,0.7-0.2,0.7c0.1,0,0.9-1.8,0.8-1.9
				C181.5,43.1,181.4,43.2,181.4,43.3 M90.8,43.8c-0.3,0.3-0.7,0.5-0.8,0.5s-0.3,0.1-0.4,0.2c-0.1,0.1,0,0.1,0.2,0.1
				c0.5-0.2,2-1.3,1.7-1.3C91.5,43.3,91.1,43.5,90.8,43.8 M117.2,43.7l-0.5,0.4L117.2,43.7l0.7-0.4l-0.1,1.2c-0.1,0.7,0,1,0.1,0.8
				C118.4,44.1,118,43.1,117.2,43.7 M116,44.4c-0.5,0.2-0.5,0.3-0.1,0.2c0.3-0.1,0.6-0.2,0.7-0.3C116.8,44,116.7,44.1,116,44.4
				 M73.6,44.5c-0.3,0.1-0.3,0.2-0.1,0.2c0.2,0,0.5-0.1,0.7-0.2c0.3-0.1,0.3-0.2,0.1-0.2C74.2,44.3,73.8,44.4,73.6,44.5 M98.3,44.6
				c0.3,0.2,0.6,0.3,0.8,0.3c0.2,0,0-0.1-0.4-0.3C97.9,44.2,97.6,44.2,98.3,44.6 M112.5,44.5c0.2,0.1,0.4,0.2,0.6,0.2
				c0.3,0,0.3,0,0-0.2c-0.2-0.1-0.4-0.2-0.6-0.2C112.2,44.3,112.2,44.3,112.5,44.5 M171.8,44.5c0.4,0,1,0,1.4,0
				c0.4,0,0.1-0.1-0.6-0.1C171.8,44.4,171.4,44.4,171.8,44.5 M69.2,44.8c0.2,0,0.5,0,0.7,0c0.2,0,0-0.1-0.3-0.1
				C69.1,44.8,69,44.8,69.2,44.8 M71.9,44.8c0.2,0,0.7,0,0.9,0c0.2,0,0-0.1-0.4-0.1C71.8,44.8,71.6,44.8,71.9,44.8 M85.5,44.9
				c0.2,0.1,1,0.1,1.7,0.1s1.6-0.1,1.7-0.1c0.2-0.1-0.6-0.1-1.7-0.1C86.1,44.8,85.3,44.9,85.5,44.9 M114,44.8c0.2,0,0.6,0,0.8,0
				c0.2,0,0-0.1-0.5-0.1C113.9,44.8,113.8,44.8,114,44.8 M132.9,44.9l-1.5,0.1L132.9,44.9c0.7,0.1,1.5,0,1.7,0
				c0.2-0.1,0.3-0.2,0.1-0.1C134.5,44.8,133.7,44.8,132.9,44.9 M167.2,44.8c0.2,0,0.6,0,0.8,0c0.2,0,0-0.1-0.5-0.1
				C167.1,44.8,166.9,44.8,167.2,44.8 M100.1,45.1c0.4,0,1.1,0,1.5,0c0.4,0,0.1-0.1-0.7-0.1C100.1,45,99.7,45,100.1,45.1
				 M110.9,45.9C110.6,46.1,110.6,46.1,110.9,45.9c0.2,0.1,0.6,0.4,1.1,0.8l0.8,0.8l-0.8-0.9c-0.4-0.5-0.8-0.9-0.8-0.9
				S111.1,45.8,110.9,45.9 M117.2,46.5c-0.7,1.1-2.4,1.7-3.8,1.2c-0.5-0.2-0.6-0.2-0.4,0c0.4,0.4,2.7,0.3,3.4-0.2
				c0.6-0.5,1.4-1.4,1.3-1.6C117.6,46,117.4,46.2,117.2,46.5 M109.7,46.4c-0.7,0.3-0.8,0.5-0.3,1c0.3,0.4,0.3,0.4,0.1-0.1
				s0-0.8,0.5-0.8c0.1,0,0.3-0.1,0.4-0.2C110.5,46.1,110.5,46.1,109.7,46.4 M119.8,47.2c-0.2,0.5-0.7,1.2-1.1,1.6
				c-0.4,0.4-1.1,0.9-1.6,1.1c-0.5,0.2-0.8,0.4-0.8,0.4c0.2,0.2,1.9-0.7,2.5-1.4c0.6-0.6,1.5-2.3,1.4-2.5
				C120.2,46.3,120,46.7,119.8,47.2 M176.8,47.6c-0.3,0.7-0.3,0.9,0.1,0.2c0.2-0.3,0.3-0.6,0.2-0.7C177.1,47.1,177,47.3,176.8,47.6
				 M110.3,48.6c0.4,0.4,0.9,0.9,1.1,1c0.2,0.1,0.4,0.2,0.3,0.1C110.4,48.5,109.7,47.9,110.3,48.6 M176.2,49.1c-0.3,0.7-0.3,1,0.1,1
				c0.2,0,0.2,0,0-0.1c-0.2-0.1-0.2-0.2,0.1-0.7c0.2-0.3,0.3-0.6,0.2-0.7C176.5,48.5,176.3,48.8,176.2,49.1 M178.8,49.2
				c-0.1,0.3-0.3,0.6-0.4,0.7c-0.2,0.1-0.2,0.1,0.1,0.1c0.3-0.1,0.9-1.4,0.7-1.4C179.1,48.7,178.9,48.9,178.8,49.2 M114,50.4
				c0.4,0,0.9,0,1.3,0s0.1-0.1-0.6-0.1C114,50.4,113.7,50.4,114,50.4"/>
			<path id="path6_2_" class="st6" d="M16.3,11c-0.8,0.3-1.3-0.3,8.5,9.6l9.1,9.1l1.1-1.1c5.2-5.1,5.2-5,4.2-5.5
				c-0.4-0.2-4-2.2-8-4.5c-4.1-2.3-8.6-4.9-10.1-5.7c-2.4-1.4-3.8-2-4.2-2C16.9,10.8,16.6,10.9,16.3,11"/>
			<path id="path7_2_" class="st7" d="M37.1,26.7c-1.6,1.6-2.9,3-2.9,3.1c0,0.1,1.4,1.4,3.1,3.1l3,3l1.9-1c3.6-2,4.1-2.2,5.1-2.8
				c1.8-1.1,2.2-2.3,0.9-3.5c-0.6-0.6-7.7-4.8-8.1-4.8C40.1,23.7,38.7,25.1,37.1,26.7"/>
		</g>
	</g>
</g>
</svg>
