<svg xmlns="http://www.w3.org/2000/svg" width="225" height="217" viewBox="0 0 225 217">
  <g id="Group_2" data-name="Group 2" transform="translate(-243.465 -650)">
    <path id="rgba_127_0_0_1_" data-name="rgba(127,0,0,1)" d="M372.5,255h90l6.5,4.521,5,12.056,4,15.069,2,11.051,1,19.088-5,23.106a63.586,63.586,0,0,1-18.5,25.618l-14,8.037L429,376.56l-2,12.558v14.065l4,10.046,4,5.525,10.5,6.028,20.5,5.023,1,4.521-3.5,3.516H372l-3.5,5.023q-7.2,1.306-8.5-3.516l2-13.06a14.272,14.272,0,0,0-6.5-9.544q-4.8-4.722-16-3.014l-8.5,6.53q-3.9,4.119-3,13.06a22.816,22.816,0,0,0,8.5,11.553q2.9,2.612,9,2.009l12.5-2.009,1,4.521-4.5,5.525q-4.3,3.717-14,2.009l-5.5-2.009q-.6,9.142-7.5,13.06L317.5,472h-9q-10.7-2.311-15.5-10.549L288.5,450.9q-5.2,4.42-16,3.014L261,447.889l-4-7.535-1-9.042,3-11.051,5.5-6.53,5-3.014,9-1,1.5-1.507q0-13.06,8.5-17.581,3.3-2.713,10-2.009,1.8,2.813,8,1l8.5-5.525q5.2-4.32,4-15.069a12.837,12.837,0,0,0-5.5-8.539q-5.1-4.42-16-3.014L288,364l-4,11.051,4,9.042v3.014q-1,2.512-5.5,1.507-9.3-4.722-6.5-21.6a27.078,27.078,0,0,1,8.5-13.562l6.5-4.521-2-7.032V331.854l-1-1,1-1V315.78l-4-9.042V302.72l4.5-3.516,10,7.032,30,13.06A63.3,63.3,0,0,1,348,334.868q5.8,7.233,6,20.093L352,364l-3,5.023,7,6.028,5.5,9.544q4.8-4.722,16-3.014,11.3,2.21,17.5,9.544,6.6,7.434,6,22.1l-4,10.046,1.5-.5,8.5-7.535q6.5-10.549,4-30.139l-1-1v-6.53q-27.3-3.014-41-20.595-9.3-10.75-13-27.125,1.3-4.822-1-6.028V299.706l5-24.111L370.5,256Zm1.5,12.056-7,25.116-1,15.069-1,1V319.3l1,1,1,11.051,8,16.074q10,15.069,33,19.088,28,2.009,43-10.046a64.361,64.361,0,0,0,13-19.088l4-13.06V314.273l1-1-1-2.009-1-20.093-7-22.1-1-2.009Zm-74,50.231-1,19.088,3,11.051,11,2.009,9,6.028q2-1,1,2.009l5,4.019-2-9.042L318,341.4l-1-4.019q-2-2.009,1-3.014l8,3.014q6,5.023,9,14.065l3,14.065q4-3.014,5-9.042,0-11.051-5-16.074l-12-11.051Zm33,58.269-4,1v4.019l-4,10.046,4,2.009,7,10.046q4-3.014,13-2.009l4-8.037-3-10.046Q345,374.551,333,375.556Zm36,17.079-6,3.014-3,8.037,4,1,7,8.037,5,14.065,9-5.023a12.864,12.864,0,0,0,5-8.037q2-9.042-2-13.06l-9-8.037Zm-55,6.028-8,3.014q-8,1-11-2.009-7,2.009-5,13.06l5,3.014,4,7.032,1,5.023,4-1q8-1,13,1,0-12.056,7-17.079l-2-8.037Q320,397.657,314,398.662Zm104,12.056-7,13.06-4,3.014-2,3.014h27l-3-3.014A30.453,30.453,0,0,1,418,410.718ZM280,417.75l-9,3.014a12.4,12.4,0,0,0-6,9.042l1,9.042q3,4.019,10,6.028h5l6-2.009a18.011,18.011,0,0,0,6-9.042q1-7.032-2-9.042Q288,418.755,280,417.75Zm30,17.079-6,2.009q-5,3.014-6,10.046l3,9.042,6,5.023,7,2.009,9-3.014,4-5.023v-3.014a27.594,27.594,0,0,1-9-16.074Z" transform="translate(-12.535 395)" fill="#f9f4f6"/>
    <path id="rgba_127_0_0_1_2" data-name="rgba(127,0,0,1)" d="M390.5,301l13,1,22,8,10,1,12-3,8-5h4q3.3,1.7,2.5,7.5l-1,1v9l-3,11L450,346l-9.5,7-9,4-4,1h-19q-19-4-28.5-17.5l-7-14-2-11a15.965,15.965,0,0,1,7.5-10.5Zm3.5,8-11,3-4,5q2,12,8,20a40.31,40.31,0,0,0,16,11l15,3,1-1h8l11-5,9-10,5-12q-1-5,1-6v-3l-14,5H428l-21-8Z" transform="translate(-9.479 396)" fill="#f9f4f6"/>
  </g>
</svg>
