<svg xmlns="http://www.w3.org/2000/svg" width="118.488" height="126.244" viewBox="0 0 118.488 126.244">
  <g id="Group_31" data-name="Group 31" transform="translate(-1546.972 -571.461)">
    <path id="Icon_ionic-md-beer" data-name="Icon ionic-md-beer" d="M53.892,17.1H51.74v-.825a7.722,7.722,0,0,0,2.152-5.227,8.715,8.715,0,0,0-8.607-8.8,8.46,8.46,0,0,0-5.7,2.214,9.527,9.527,0,0,0-11.794-.33,7.515,7.515,0,0,0-10.732.8,8.539,8.539,0,0,0-6.2-2.682,8.715,8.715,0,0,0-8.607,8.8A8.926,8.926,0,0,0,4.4,16.871v7.524A6.532,6.532,0,0,0,10.857,31V55a8.788,8.788,0,0,0,8.634,8.872H43.133A8.786,8.786,0,0,0,51.753,55V49.015h2.152c6.724,0,8.607-4.5,8.607-9.353v-13.2C62.5,21.6,60.213,17.1,53.892,17.1Zm-8.607,7.152H17.312V16.871c.04-.055.094-.11.134-.165.161-.206.323-.413.471-.633a6.675,6.675,0,0,0,.619.468A7.517,7.517,0,0,0,22.8,17.875a7.644,7.644,0,0,0,2.461-.413,9.637,9.637,0,0,0,17.348-2.008h2.676v8.8ZM10.857,15.468V25.784a2.166,2.166,0,0,1-2.152-2.2V14.876a4.3,4.3,0,0,1-2.058-2.888,4.116,4.116,0,0,1-.094-.922,4.366,4.366,0,0,1,4.3-4.4A5.8,5.8,0,0,1,14.9,8.783c.914,1.059,3.591,1.059,4.559,0,.914-1,1.923-2.118,3.335-2.118a3.294,3.294,0,0,1,2.138.8,3.25,3.25,0,0,1,.659.77c.148.248.269.578.417.8a1.859,1.859,0,0,0,1.506.756A1.927,1.927,0,0,0,29,9.1a2.683,2.683,0,0,0,.229-.316,5.866,5.866,0,0,1,.9-.935,5.285,5.285,0,0,1,7.02.316,3.246,3.246,0,0,0,1.775.7,4.027,4.027,0,0,0,1.1,0,3.523,3.523,0,0,0,2.206-.908,4.243,4.243,0,0,1,3.039-1.293,4.366,4.366,0,0,1,4.3,4.4,3.562,3.562,0,0,1-.161,1.252,2.135,2.135,0,0,0-1.963-1.265h-7.4a1.06,1.06,0,0,0-1.17,1.128,5.531,5.531,0,0,1-1.049,3.26A5.394,5.394,0,0,1,28.3,13.735c-.013-.083-.04-.151-.054-.22a1.984,1.984,0,0,0-3.268-.853l-.013.014a3.267,3.267,0,0,1-2.165.812A3.526,3.526,0,0,1,20.271,12.3c-1.345-1.568-3.187-.935-3.994-.756s-1.641,1.609-1.641,1.609a4.506,4.506,0,0,1-.524.8A4.458,4.458,0,0,1,10.857,15.468ZM56.044,39.662c0,2.435-.847,3.3-3.228,3.3H51.74V23.156h1.076c2.38,0,3.228.867,3.228,3.3Z" transform="translate(1573.834 611.896)" fill="#fff"/>
    <g id="Group_30" data-name="Group 30" transform="translate(1539.661 634.58)">
      <path id="Icon_ionic-ios-star" data-name="Icon ionic-ios-star" d="M19.944,12.587H13.137l-2.068,6.173a.75.75,0,0,1-1.407,0L7.594,12.587H.74a.743.743,0,0,1-.74-.74.544.544,0,0,1,.014-.125.711.711,0,0,1,.31-.523L5.918,7.256,3.771,1.013A.743.743,0,0,1,4.026.18.716.716,0,0,1,4.442,0a.907.907,0,0,1,.463.167l5.46,3.892L15.826.167A.867.867,0,0,1,16.288,0,.665.665,0,0,1,16.7.18a.733.733,0,0,1,.255.833L14.808,7.256l5.548,3.98.134.116a.708.708,0,0,1-.546,1.236Z" transform="translate(101.36 59.5) rotate(180)" fill="#fff"/>
      <path id="Icon_ionic-ios-star-2" data-name="Icon ionic-ios-star" d="M19.944,12.587H13.137l-2.068,6.173a.75.75,0,0,1-1.407,0L7.594,12.587H.74a.743.743,0,0,1-.74-.74.544.544,0,0,1,.014-.125.711.711,0,0,1,.31-.523L5.918,7.256,3.771,1.013A.743.743,0,0,1,4.026.18.716.716,0,0,1,4.442,0a.907.907,0,0,1,.463.167l5.46,3.892L15.826.167A.867.867,0,0,1,16.288,0,.665.665,0,0,1,16.7.18a.733.733,0,0,1,.255.833L14.808,7.256l5.548,3.98.134.116a.708.708,0,0,1-.546,1.236Z" transform="translate(52.481 59.5) rotate(180)" fill="#fff"/>
      <path id="Icon_ionic-ios-star-3" data-name="Icon ionic-ios-star" d="M19.944,12.587H13.137l-2.068,6.173a.75.75,0,0,1-1.407,0L7.594,12.587H.74a.743.743,0,0,1-.74-.74.544.544,0,0,1,.014-.125.711.711,0,0,1,.31-.523L5.918,7.256,3.771,1.013A.743.743,0,0,1,4.026.18.716.716,0,0,1,4.442,0a.907.907,0,0,1,.463.167l5.46,3.892L15.826.167A.867.867,0,0,1,16.288,0,.665.665,0,0,1,16.7.18a.733.733,0,0,1,.255.833L14.808,7.256l5.548,3.98.134.116a.708.708,0,0,1-.546,1.236Z" transform="translate(28.041 53.5) rotate(180)" fill="#fff"/>
      <path id="Icon_ionic-ios-star-4" data-name="Icon ionic-ios-star" d="M19.944,12.587H13.137l-2.068,6.173a.75.75,0,0,1-1.407,0L7.594,12.587H.74a.743.743,0,0,1-.74-.74.544.544,0,0,1,.014-.125.711.711,0,0,1,.31-.523L5.918,7.256,3.771,1.013A.743.743,0,0,1,4.026.18.716.716,0,0,1,4.442,0a.907.907,0,0,1,.463.167l5.46,3.892L15.826.167A.867.867,0,0,1,16.288,0,.665.665,0,0,1,16.7.18a.733.733,0,0,1,.255.833L14.808,7.256l5.548,3.98.134.116a.708.708,0,0,1-.546,1.236Z" transform="translate(125.799 53.5) rotate(180)" fill="#fff"/>
      <path id="Icon_ionic-ios-star-5" data-name="Icon ionic-ios-star" d="M19.944,12.587H13.137l-2.068,6.173a.75.75,0,0,1-1.407,0L7.594,12.587H.74a.743.743,0,0,1-.74-.74.544.544,0,0,1,.014-.125.711.711,0,0,1,.31-.523L5.918,7.256,3.771,1.013A.743.743,0,0,1,4.026.18.716.716,0,0,1,4.442,0a.907.907,0,0,1,.463.167l5.46,3.892L15.826.167A.867.867,0,0,1,16.288,0,.665.665,0,0,1,16.7.18a.733.733,0,0,1,.255.833L14.808,7.256l5.548,3.98.134.116a.708.708,0,0,1-.546,1.236Z" transform="translate(76.92 63.125) rotate(180)" fill="#fff"/>
    </g>
    <path id="Path_8" data-name="Path 8" d="M6.015-29.993H19.552q12.036,0,12.036,9.47a9.428,9.428,0,0,1-4.121,7.805q5.977,2.593,5.977,9.252a10.184,10.184,0,0,1-3.521,8.133,10.091,10.091,0,0,1-3.684,2.02,19.587,19.587,0,0,1-5.295.573h-2.1V-2.319h1.883a4.726,4.726,0,0,0,2.347-.423,1.609,1.609,0,0,0,.682-1.487q0-1.8-2.784-1.8H18.842v-9.934q3.057,0,3.057-2.1Q21.9-20,19.142-20H17.1V7.26L-9.4,85.018ZM37.466-14.785H41.09v3.624H37.466Zm0,6.307H41.09V7.26H37.466ZM52.582,7.488a8.108,8.108,0,0,1-3.806-.826A5.608,5.608,0,0,1,46.365,4.25,8.093,8.093,0,0,1,45.532.437V-1.337a9.123,9.123,0,0,1,.8-3.988,5.61,5.61,0,0,1,2.32-2.517,7.309,7.309,0,0,1,3.662-.864A5.84,5.84,0,0,1,55.758-7.7a6.238,6.238,0,0,1,2.183,2.919,12.617,12.617,0,0,1,.751,4.609V.862H48V-1.792h7.323l-.015-.182a4.482,4.482,0,0,0-.925-2.547,2.587,2.587,0,0,0-2.077-.91,3.165,3.165,0,0,0-2.517,1.023A4.275,4.275,0,0,0,48.9-1.5v2a3.7,3.7,0,0,0,.963,2.737,3.681,3.681,0,0,0,2.722.963,4.907,4.907,0,0,0,1.766-.334,5.053,5.053,0,0,0,1.569-.955l2.365,2.229a8.808,8.808,0,0,1-2.691,1.736A7.856,7.856,0,0,1,52.582,7.488ZM63.255-8.478H67.03V7.26H63.255ZM72.019-4.43a2.346,2.346,0,0,0-.895-.6,3.4,3.4,0,0,0-1.228-.2,2.738,2.738,0,0,0-2.115.811,3.189,3.189,0,0,0-.751,2.252l-.318-3.563A5.766,5.766,0,0,1,68.5-7.925a4.051,4.051,0,0,1,2.411-.781,5.307,5.307,0,0,1,1.865.311,4.119,4.119,0,0,1,1.456.917ZM83.01,7.488a7.471,7.471,0,0,1-3.586-.8A5.335,5.335,0,0,1,77.15,4.341,8.113,8.113,0,0,1,76.37.634V-1.928A7.945,7.945,0,0,1,77.15-5.59a5.309,5.309,0,0,1,2.274-2.32,7.529,7.529,0,0,1,3.586-.8,7.518,7.518,0,0,1,3.593.8,5.319,5.319,0,0,1,2.267,2.32,7.945,7.945,0,0,1,.781,3.662V.68a7.981,7.981,0,0,1-.781,3.677A5.364,5.364,0,0,1,86.6,6.684,7.46,7.46,0,0,1,83.01,7.488Zm0-3.472a2.838,2.838,0,0,0,2.229-.879A3.551,3.551,0,0,0,86.028.68V-1.928a3.493,3.493,0,0,0-.788-2.441,2.864,2.864,0,0,0-2.229-.864,2.864,2.864,0,0,0-2.229.864,3.493,3.493,0,0,0-.788,2.441V.68a3.551,3.551,0,0,0,.788,2.456A2.838,2.838,0,0,0,83.01,4.015Z" transform="translate(1560 601.454)" fill="#fff"/>
  </g>
</svg>
